<?xml version="1.0" encoding="UTF-8" standalone="no"?>
<!DOCTYPE svg PUBLIC "-//W3C//DTD SVG 1.1//EN" "http://www.w3.org/Graphics/SVG/1.1/DTD/svg11.dtd">
<svg width="100%" height="100%" viewBox="0 0 500 500" version="1.1" xmlns="http://www.w3.org/2000/svg" xmlns:xlink="http://www.w3.org/1999/xlink" xml:space="preserve" xmlns:serif="http://www.serif.com/" style="fill-rule:evenodd;clip-rule:evenodd;stroke-linejoin:round;stroke-miterlimit:2;">
    <g id="bug" transform="matrix(8.31983,0,0,8.31983,-1777.47,-692.505)">
        <g id="bug1" serif:id="bug" transform="matrix(1,0,0,1,93.962,0.906584)">
            <circle cx="149.73" cy="112.378" r="30.049" style="fill:rgb(0,132,66);"/>
        </g>
        <g transform="matrix(0.120195,0,0,0.120195,216.152,92.8335)">
            <path d="M352.575,202.064C367.462,205 368.334,189.9 365.345,186.911C361.431,182.997 351,173.224 347.086,169.311C343.172,165.397 338.487,164.977 333.519,169.311C328.55,173.644 318.715,185.26 317.065,186.911C315.414,188.561 329.222,201.889 330.037,201.073C332.865,198.245 338.604,192.382 339.869,191.117C341.134,189.852 350.206,201.597 352.575,202.064Z" style="fill:rgb(0,185,82);"/>
        </g>
        <g transform="matrix(0.0849906,0.0849906,-0.0849906,0.0849906,242.072,79.8283)">
            <path d="M352.575,202.064C367.462,205 368.334,189.9 365.345,186.911C361.431,182.997 351,173.224 347.086,169.311C343.172,165.397 338.487,164.977 333.519,169.311C328.55,173.644 318.715,185.26 317.065,186.911C315.414,188.561 329.222,201.889 330.037,201.073C332.865,198.245 338.604,192.382 339.869,191.117C341.134,189.852 350.206,201.597 352.575,202.064Z" style="fill:rgb(0,185,82);"/>
        </g>
        <g transform="matrix(-0.120195,0,0,0.120195,273.631,83.2355)">
            <path d="M352.575,202.064C367.462,205 368.334,189.9 365.345,186.911C361.431,182.997 351,173.224 347.086,169.311C343.172,165.397 338.487,164.977 333.519,169.311C328.55,173.644 318.715,185.26 317.065,186.911C315.414,188.561 329.222,201.889 330.037,201.073C332.865,198.245 338.604,192.382 339.869,191.117C341.134,189.852 350.206,201.597 352.575,202.064Z" style="fill:rgb(0,185,82);"/>
        </g>
        <g transform="matrix(-0.120195,0,0,0.120195,271.084,92.8335)">
            <path d="M352.575,202.064C367.462,205 368.334,189.9 365.345,186.911C361.431,182.997 351,173.224 347.086,169.311C343.172,165.397 338.487,164.977 333.519,169.311C328.55,173.644 318.715,185.26 317.065,186.911C315.414,188.561 329.222,201.889 330.037,201.073C332.865,198.245 338.604,192.382 339.869,191.117C341.134,189.852 350.206,201.597 352.575,202.064Z" style="fill:rgb(0,185,82);"/>
        </g>
        <g transform="matrix(-0.0849906,0.0849906,0.0849906,0.0849906,245.163,79.8283)">
            <path d="M352.575,202.064C367.462,205 368.334,189.9 365.345,186.911C361.431,182.997 351,173.224 347.086,169.311C343.172,165.397 338.487,164.977 333.519,169.311C328.55,173.644 318.715,185.26 317.065,186.911C315.414,188.561 329.222,201.889 330.037,201.073C332.865,198.245 338.604,192.382 339.869,191.117C341.134,189.852 350.206,201.597 352.575,202.064Z" style="fill:rgb(0,185,82);"/>
        </g>
        <g transform="matrix(-0.0817847,0,0,0.0787427,267.558,82.9293)">
            <path d="M352.575,202.064C367.462,205 368.334,189.9 365.345,186.911C361.431,182.997 351,173.224 347.086,169.311C343.172,165.397 338.487,164.977 333.519,169.311C328.55,173.644 318.715,185.26 317.065,186.911C315.414,188.561 329.222,201.889 330.037,201.073C332.865,198.245 338.604,192.382 339.869,191.117C341.134,189.852 350.206,201.597 352.575,202.064Z" style="fill:rgb(0,185,82);"/>
        </g>
        <g transform="matrix(0.0817847,0,0,0.0787427,219.698,82.9293)">
            <path d="M352.575,202.064C367.462,205 368.334,189.9 365.345,186.911C361.431,182.997 351,173.224 347.086,169.311C343.172,165.397 338.487,164.977 333.519,169.311C328.55,173.644 318.715,185.26 317.065,186.911C315.414,188.561 329.222,201.889 330.037,201.073C332.865,198.245 338.604,192.382 339.869,191.117C341.134,189.852 350.206,201.597 352.575,202.064Z" style="fill:rgb(0,185,82);"/>
        </g>
        <g transform="matrix(0.120195,0,0,0.120195,213.643,83.2355)">
            <path d="M352.575,202.064C367.462,205 368.334,189.9 365.345,186.911C361.431,182.997 351,173.224 347.086,169.311C343.172,165.397 338.487,164.977 333.519,169.311C328.55,173.644 318.715,185.26 317.065,186.911C315.414,188.561 329.222,201.889 330.037,201.073C332.865,198.245 338.604,192.382 339.869,191.117C341.134,189.852 350.206,201.597 352.575,202.064Z" style="fill:rgb(0,185,82);"/>
        </g>
        <g transform="matrix(0.120195,0,0,0.120195,213.643,83.2355)">
            <path d="M200.654,174.612C200.654,131.056 227.162,116.907 250,116.907C287.443,116.907 296.689,145.853 298.743,174.612C299.197,180.962 354.582,190.222 351.528,278.863C350.72,302.314 343.256,326.294 330.666,346.094C319.192,364.14 297.927,396.932 250,396.932C204.627,396.932 184.179,370.583 167.357,346.094C148.617,318.815 144.407,278.739 149.065,250C159.514,185.532 200.654,181.852 200.654,174.612Z" style="fill:rgb(0,185,82);"/>
        </g>
    </g>
</svg>
