<?xml version="1.0" encoding="UTF-8" standalone="no"?>
<!DOCTYPE svg PUBLIC "-//W3C//DTD SVG 1.1//EN" "http://www.w3.org/Graphics/SVG/1.1/DTD/svg11.dtd">
<svg width="100%" height="100%" viewBox="0 0 500 500" version="1.1" xmlns="http://www.w3.org/2000/svg" xmlns:xlink="http://www.w3.org/1999/xlink" xml:space="preserve" xmlns:serif="http://www.serif.com/" style="fill-rule:evenodd;clip-rule:evenodd;stroke-linejoin:round;stroke-miterlimit:2;">
    <g id="dragon" transform="matrix(8.31983,0,0,8.31983,-1777.47,-692.505)">
        <g id="dragon1" serif:id="dragon" transform="matrix(1,0,0,1,93.962,0.906584)">
            <circle cx="149.73" cy="112.378" r="30.049" style="fill:rgb(0,114,70);"/>
        </g>
        <g transform="matrix(0.120195,0,0,0.120195,213.643,83.2355)">
            <path d="M252.485,198.021C248.204,197.878 247.38,202.475 241.511,211.744C192.006,289.915 124.301,333.799 93.722,364.822C85.449,373.215 83.45,391.878 92.29,401.22C97.417,406.639 187.667,457.176 309.842,429.068C402.155,407.83 452.053,306.593 445.118,205.452C441.309,149.889 402.496,108.224 359.139,80.262C337.804,66.502 307.747,60.853 284.612,60.853C227.79,60.853 174.927,86.246 179.132,95.272C183.337,104.298 258.403,77.545 309.842,115.008C355.193,148.037 350.244,185.698 346.889,214.974C343.552,244.091 316.852,281.742 301.622,290.664C280.07,303.289 262.693,296.183 258.434,273.21C255.293,256.26 256.765,198.164 252.485,198.021Z" style="fill:rgb(43,205,142);"/>
        </g>
        <g transform="matrix(0.120195,0,0,0.120195,213.643,83.2355)">
            <path d="M174.574,380.785C190.705,366.132 224.771,334.149 241.511,317.409C245.902,313.018 242.764,322.997 236.78,331.255C233.755,335.429 241.699,349.578 231.646,365.437C226.413,373.692 214.549,378.272 205.382,380.785C198.385,382.703 172.69,382.497 174.574,380.785Z" style="fill:rgb(0,114,70);"/>
        </g>
    </g>
</svg>
