<?xml version="1.0" encoding="UTF-8" standalone="no"?>
<!DOCTYPE svg PUBLIC "-//W3C//DTD SVG 1.1//EN" "http://www.w3.org/Graphics/SVG/1.1/DTD/svg11.dtd">
<svg width="100%" height="100%" viewBox="0 0 500 500" version="1.1" xmlns="http://www.w3.org/2000/svg" xmlns:xlink="http://www.w3.org/1999/xlink" xml:space="preserve" xmlns:serif="http://www.serif.com/" style="fill-rule:evenodd;clip-rule:evenodd;stroke-linejoin:round;stroke-miterlimit:2;">
    <g id="fairy" transform="matrix(8.31983,0,0,8.31983,-1777.47,-692.505)">
        <g id="fairy1" serif:id="fairy" transform="matrix(1,0,0,1,93.962,0.906584)">
            <circle cx="149.73" cy="112.378" r="30.049" style="fill:rgb(147,75,147);"/>
        </g>
        <g transform="matrix(0.120195,0,0,0.120195,213.643,83.2355)">
            <path d="M250,214.91C261.648,214.91 279.793,185.069 322.17,155.547C354.106,133.298 385.634,112.827 391.599,117.11C401.083,123.919 316.885,231.749 322.17,256.409C327.07,279.276 391.857,300.141 391.599,310.343C391.421,317.401 331.475,305.485 327.224,317.437C322.19,331.591 365.995,384.642 352.857,382.421C342.893,380.736 311.033,360.971 291.145,341.07C269.558,319.47 254.669,296.755 250,296.755C245.45,296.755 233.177,319.034 212.256,338.312C187.556,361.072 150.72,384.11 146.435,382.421C136.666,378.569 178.041,326.703 173.1,317.437C168.159,308.172 107.547,316.246 108,310.343C108.78,300.172 177.781,277.029 177.781,256.409C177.781,224.203 98.756,122.421 108,117.11C115.618,112.732 153.8,136.839 188.611,162.792C222.799,188.28 240.79,214.91 250,214.91Z" style="fill:rgb(181,158,238);"/>
        </g>
    </g>
</svg>
