<?xml version="1.0" encoding="UTF-8" standalone="no"?>
<!DOCTYPE svg PUBLIC "-//W3C//DTD SVG 1.1//EN" "http://www.w3.org/Graphics/SVG/1.1/DTD/svg11.dtd">
<svg width="100%" height="100%" viewBox="0 0 500 500" version="1.1" xmlns="http://www.w3.org/2000/svg" xmlns:xlink="http://www.w3.org/1999/xlink" xml:space="preserve" xmlns:serif="http://www.serif.com/" style="fill-rule:evenodd;clip-rule:evenodd;stroke-linejoin:round;stroke-miterlimit:2;">
    <g id="fighting">
        <g id="figthing" transform="matrix(8.31983,0,0,8.31983,-995.724,-684.963)">
            <circle cx="149.73" cy="112.378" r="30.049" style="fill:rgb(255,100,88);"/>
        </g>
        <g transform="matrix(1,0,0,1,0.20358,0.836166)">
            <path d="M150.347,150.237C150.448,147.072 153.083,143.477 157.023,143.477L189.982,143.477C193.315,143.477 197.313,146.941 197.313,150.274L197.313,220.897C197.313,228.852 216.593,228.57 216.638,221.472C216.714,209.696 216.638,163.281 216.638,150.237C216.638,145.067 221.193,143.649 224.651,143.649L258.728,143.649C262.231,143.649 263.685,147.024 263.685,149.607L263.685,220.897C263.685,229.773 283.688,229.773 283.688,220.897L283.688,148.731C283.688,144.608 287.278,142.849 291.401,142.849L324.927,142.849C327.574,142.849 330.264,146.083 330.264,148.731L330.264,221.472C330.264,229.01 350.572,230.031 350.572,221.472L350.572,149.607C350.572,145.526 354.394,143.649 358.475,143.649L389.709,143.649C394.782,143.649 397.002,146.639 397.002,150.827L397.002,353.95C397.002,356.954 394.576,360.401 390.708,360.401L157.023,360.401C151.983,360.401 150.347,357.193 150.347,353.098C150.347,318.053 149.235,185.174 150.347,150.237Z" style="fill:white;"/>
        </g>
        <g transform="matrix(1,0,0,1,0.20358,0.836166)">
            <path d="M115.59,208.885C117.972,205.399 134.055,205.576 134.055,212.363C134.055,230.092 134.233,332.631 134.055,355.567C134.011,361.25 120.061,363.209 116.646,359.794C112.734,355.882 87.615,306.404 86.989,304.364C86.58,303.029 86.349,265.125 86.989,263.042C87.63,260.958 113.127,212.491 115.59,208.885Z" style="fill:white;"/>
        </g>
    </g>
</svg>
