<?xml version="1.0" encoding="UTF-8" standalone="no"?>
<!DOCTYPE svg PUBLIC "-//W3C//DTD SVG 1.1//EN" "http://www.w3.org/Graphics/SVG/1.1/DTD/svg11.dtd">
<svg width="100%" height="100%" viewBox="0 0 500 500" version="1.1" xmlns="http://www.w3.org/2000/svg" xmlns:xlink="http://www.w3.org/1999/xlink" xml:space="preserve" xmlns:serif="http://www.serif.com/" style="fill-rule:evenodd;clip-rule:evenodd;stroke-linejoin:round;stroke-miterlimit:2;">
    <g id="fire">
        <g id="fire1" serif:id="fire" transform="matrix(8.31983,0,0,8.31983,-995.724,-684.963)">
            <circle cx="149.73" cy="112.378" r="30.049" style="fill:rgb(255,141,46);"/>
        </g>
        <path d="M357.747,363.841C357.747,367.719 321.156,429.974 225.914,414.478C170.515,405.464 135.833,365.508 124.352,325.867C108.984,272.809 130.267,215.005 138.03,202.512C138.901,201.109 139.551,201.924 139.551,202.512C139.551,207.377 139.821,228.91 142.979,250C146.145,271.15 153.197,285.291 155.316,291.536C155.996,293.541 157.698,293.914 157.879,291.536C158.285,286.223 153.261,246.401 160.269,225.529C173.278,186.779 183.353,174.466 211.073,152.843C231.365,137.013 237.083,129.414 242.27,115.175C248.411,98.319 243.169,73.652 242.27,69.433C241.698,66.745 242.914,67.231 244.079,68.006C248.501,70.946 270.735,95.048 280.745,115.175C287.277,128.309 288.538,150.205 287.6,158.697C287.108,163.148 284.443,163.727 283.41,163.964C279.623,164.836 267.393,168.509 259.352,185.509C253.159,198.601 255.244,225.793 283.41,234.867C301.677,240.752 322.584,228.286 327.505,208.516C332.425,188.747 322.519,171.127 322.24,168.9C321.96,166.673 323.123,166.92 324.185,167.182C326.112,167.658 370.051,194.166 378.034,237.031C380.208,248.705 386.986,267.273 373.773,304.032C360.561,340.791 329.294,368.04 283.41,363.841C272.4,362.833 281.069,359.837 283.41,357.497C299.09,341.816 303.316,324.672 298.234,304.032C289.476,268.455 249.927,263.124 231.614,272.571C223.897,276.552 216.255,280.142 208.703,293.499C196,315.964 203.355,343.107 217.745,357.497C226.265,366.016 242.029,383.666 287.6,383.666C322.842,383.666 357.747,363.407 357.747,363.841Z" style="fill:white;"/>
    </g>
</svg>
