<?xml version="1.0" encoding="UTF-8" standalone="no"?>
<!DOCTYPE svg PUBLIC "-//W3C//DTD SVG 1.1//EN" "http://www.w3.org/Graphics/SVG/1.1/DTD/svg11.dtd">
<svg width="100%" height="100%" viewBox="0 0 500 500" version="1.1" xmlns="http://www.w3.org/2000/svg" xmlns:xlink="http://www.w3.org/1999/xlink" xml:space="preserve" xmlns:serif="http://www.serif.com/" style="fill-rule:evenodd;clip-rule:evenodd;stroke-linejoin:round;stroke-miterlimit:2;">
    <g id="ghost" transform="matrix(8.31983,0,0,8.31983,-1777.47,-692.505)">
        <g id="ghost1" serif:id="ghost" transform="matrix(1,0,0,1,93.962,0.906584)">
            <circle cx="149.73" cy="112.378" r="30.049" style="fill:rgb(73,101,196);"/>
        </g>
        <g transform="matrix(0.120195,0,0,0.120195,213.643,83.2355)">
            <path d="M27.737,271.972C24.755,274.953 24.212,213.136 62.857,154.175C79.897,128.176 107.564,104.85 140.902,84.289C194.69,51.114 280.417,41.388 350.469,72.923C396.645,93.711 436.876,146.468 446.323,182.287C458.444,228.241 455.332,284.588 416.532,323.388C403.015,336.905 351.075,374.008 295.983,323.388C264.576,294.53 247.37,254.115 226.977,223.543C204.06,189.188 160.401,176.868 120.997,189.226C64.355,206.989 32.033,267.675 27.737,271.972Z" style="fill:rgb(248,175,0);"/>
        </g>
        <g transform="matrix(0.120195,0,0,0.120195,213.643,83.2355)">
            <path d="M257.65,374.723C258.547,379.208 270.114,373.491 274.905,374.723C279.696,375.955 281.533,381.211 286.396,382.117C291.26,383.024 294.24,379.082 298.29,379.082C302.339,379.082 308.543,385.791 310.695,382.117C316.552,372.118 310.864,357.321 304.255,351.312C294.104,342.083 280.218,340.882 269.521,347.81C262.225,352.536 255.945,366.199 257.65,374.723Z" style="fill:rgb(248,175,0);"/>
        </g>
        <g transform="matrix(0.120195,0,0,0.120195,213.643,83.2355)">
            <path d="M438.277,330.507C439.383,332.78 448.346,330.182 453.184,333.63C457.096,336.418 458.793,341.876 464.064,343.385C467.014,344.231 471.6,337.739 471.6,333.63C471.6,328.653 471.213,321.932 464.064,313.522C460.339,309.139 452.722,304.953 448.047,307.105C436.849,312.26 436.306,326.458 438.277,330.507Z" style="fill:rgb(248,175,0);"/>
        </g>
        <g transform="matrix(0.120195,0,0,0.120195,213.643,83.2355)">
            <path d="M290.093,256.187C280.71,269.157 286.751,290.067 294.553,300.604C302.355,311.141 326.135,319.744 336.906,319.41C360.109,318.69 367.382,312.921 358.324,289.93C352.763,275.816 333.383,261.811 322.011,256.187C312.474,251.471 299.475,243.218 290.093,256.187Z" style="fill:rgb(73,101,196);"/>
        </g>
        <g transform="matrix(0.120195,0,0,0.120195,213.643,83.2355)">
            <path d="M388.728,262.239C383.396,284.038 385.19,303.876 396.765,307.105C403.532,308.993 423.534,296.323 427.846,277.937C430.46,266.793 429.963,246.533 415.711,241.089C401.46,235.644 391.443,251.138 388.728,262.239Z" style="fill:rgb(73,101,196);"/>
        </g>
    </g>
</svg>
