<?xml version="1.0" encoding="UTF-8" standalone="no"?>
<!DOCTYPE svg PUBLIC "-//W3C//DTD SVG 1.1//EN" "http://www.w3.org/Graphics/SVG/1.1/DTD/svg11.dtd">
<svg width="100%" height="100%" viewBox="0 0 500 500" version="1.1" xmlns="http://www.w3.org/2000/svg" xmlns:xlink="http://www.w3.org/1999/xlink" xml:space="preserve" xmlns:serif="http://www.serif.com/" style="fill-rule:evenodd;clip-rule:evenodd;stroke-linecap:round;stroke-linejoin:round;stroke-miterlimit:1.5;">
    <g id="grass">
        <g id="grass1" serif:id="grass" transform="matrix(8.31983,0,0,8.31983,-995.724,-684.963)">
            <circle cx="149.73" cy="112.378" r="30.049" style="fill:rgb(96,151,92);"/>
        </g>
        <path d="M366.542,98.378C363.871,95.708 275.515,99.151 224.399,118.58C177.074,136.569 131.991,147.425 105.397,215.336C86.534,263.503 103.343,320.272 131.608,348.537C132.468,349.397 163.776,317.369 164.202,314.923C164.824,311.352 157.46,232.046 155.25,215.336C153.462,201.808 163.438,201.356 166.215,213.815C166.833,216.592 169.862,228.384 172.789,239.676C178.614,262.144 186.003,289.834 186.934,290.765C187.388,291.219 231.62,246.015 233.084,241.387C235.038,235.21 225.263,185.744 224.399,174.031C224.019,168.881 229.348,165.447 233.084,171.39C237.961,179.15 250.181,219.828 254.25,220.214C255.11,220.296 303.282,168.529 313.493,157.835C319.905,151.119 325.903,157.054 322.472,163.496C318.157,171.599 298.566,200.738 286.396,220.214C280.756,229.241 276.291,236.19 276.414,237.999C276.489,239.118 311.036,243.118 328.012,245.284C333.969,246.044 334.383,253.532 328.012,254.685C304.588,258.925 262.882,260.989 260.801,263.07C256.241,267.63 224.303,320.69 225.111,320.69C228.606,320.69 294.768,320.954 308.887,321.299C315.948,321.472 318.508,330.018 308.887,332.101C291.679,335.826 214.645,345.743 207.72,348.537C203.858,350.095 182.755,386.967 183.195,387.184C193.175,392.09 255.836,426.733 330.666,373.195C362.054,350.738 380.902,290.208 382.296,254.685C385.654,169.122 369.212,101.049 366.542,98.378Z" style="fill:white;stroke:white;stroke-width:0.63px;"/>
    </g>
</svg>
