<?xml version="1.0" encoding="UTF-8" standalone="no"?>
<!DOCTYPE svg PUBLIC "-//W3C//DTD SVG 1.1//EN" "http://www.w3.org/Graphics/SVG/1.1/DTD/svg11.dtd">
<svg width="100%" height="100%" viewBox="0 0 500 500" version="1.1" xmlns="http://www.w3.org/2000/svg" xmlns:xlink="http://www.w3.org/1999/xlink" xml:space="preserve" xmlns:serif="http://www.serif.com/" style="fill-rule:evenodd;clip-rule:evenodd;stroke-linejoin:round;stroke-miterlimit:2;">
    <g id="ground" transform="matrix(8.31983,0,0,8.31983,-1777.47,-692.505)">
        <g id="ground1" serif:id="ground" transform="matrix(1,0,0,1,93.962,0.906584)">
            <circle cx="149.73" cy="112.378" r="30.049" style="fill:rgb(158,138,123);"/>
        </g>
        <g transform="matrix(0.120195,0,0,0.120195,209.648,80.9955)">
            <path d="M157.649,286.888C190.026,286.888 227.236,313.174 227.236,345.552C227.236,377.929 217.396,395.153 176.882,402.225C143.615,408.031 103.193,371.528 103.193,339.151C103.193,306.774 125.272,286.888 157.649,286.888Z" style="fill:rgb(107,57,55);"/>
        </g>
        <g transform="matrix(0.120195,0,0,0.120195,212.664,58.2538)">
            <path d="M163.36,288.829C200.927,288.829 216.075,309.73 216.312,345.552C216.527,377.928 195.338,404.215 157.858,404.215C116.546,404.215 99.216,384.818 98.986,345.552C98.796,313.175 130.983,288.829 163.36,288.829Z" style="fill:rgb(107,57,55);"/>
        </g>
        <g transform="matrix(0.120195,0,0,0.120195,225.933,71.7507)">
            <path d="M157.649,279.404C190.026,279.404 212.853,313.198 211.63,345.552C210.779,368.087 192.389,399.587 157.649,399.518C118.282,399.439 100.738,377.881 98.986,345.552C96.592,301.392 125.272,279.404 157.649,279.404Z" style="fill:rgb(107,57,55);"/>
        </g>
        <g transform="matrix(0.120195,0,0,0.120195,231.794,56.0104)">
            <path d="M157.649,292.211C190.026,292.211 197.82,318.873 197.798,338.835C197.777,358.421 177.644,378.594 157.649,378.722C139.811,378.837 116.789,377.472 111.367,345.552C106.573,317.324 125.272,292.211 157.649,292.211Z" style="fill:rgb(107,57,55);"/>
        </g>
        <g transform="matrix(0.120195,0,0,0.120195,242.889,72.3559)">
            <path d="M168.044,274.369C200.421,274.369 220.08,314.988 201.33,352.947C186.991,381.976 162.349,414.907 140.135,416.743C112.131,419.057 98.782,364.134 105.489,340.517C115.426,305.523 128.065,274.369 168.044,274.369Z" style="fill:rgb(107,57,55);"/>
        </g>
        <g transform="matrix(0.120195,0,0,0.120195,231.794,88.9229)">
            <path d="M157.649,278.908C188.934,287.246 213.44,303.314 213.326,345.552C213.239,377.929 193,413.39 157.649,412.638C114.662,411.725 113.765,373.659 114.571,345.552C115.65,307.922 118.611,268.504 157.649,278.908Z" style="fill:rgb(107,57,55);"/>
        </g>
    </g>
</svg>
