<?xml version="1.0" encoding="UTF-8" standalone="no"?>
<!DOCTYPE svg PUBLIC "-//W3C//DTD SVG 1.1//EN" "http://www.w3.org/Graphics/SVG/1.1/DTD/svg11.dtd">
<svg width="100%" height="100%" viewBox="0 0 500 500" version="1.1" xmlns="http://www.w3.org/2000/svg" xmlns:xlink="http://www.w3.org/1999/xlink" xml:space="preserve" xmlns:serif="http://www.serif.com/" style="fill-rule:evenodd;clip-rule:evenodd;stroke-linejoin:round;stroke-miterlimit:2;">
    <g id="ice" transform="matrix(8.31983,0,0,8.31983,-1777.47,-692.505)">
        <g id="ice1" serif:id="ice" transform="matrix(1,0,0,1,93.962,0.906584)">
            <circle cx="149.73" cy="112.378" r="30.049" style="fill:rgb(0,168,238);"/>
        </g>
        <g transform="matrix(0.129791,0,0,0.117065,211.553,83.7264)">
            <ellipse cx="248.088" cy="252.349" rx="30.042" ry="30.179" style="fill:white;"/>
        </g>
        <g>
            <g transform="matrix(0.116095,0,0,0.746596,214.603,-6.30099)">
                <rect x="234.227" y="142.339" width="31.779" height="13.676" style="fill:white;"/>
            </g>
            <g transform="matrix(0.120195,0,0,0.120195,213.643,83.2355)">
                <path d="M234.227,142.339C234.029,142.339 204.697,114.295 204.224,113.315C197.722,99.841 208.303,84.867 224.996,92.46C225.378,92.634 233.931,100.135 234.227,99.839C234.523,99.543 234.227,82.231 234.227,80.14C234.227,63.682 264.424,63.689 264.922,80.14C265.005,82.895 264.922,99.428 264.922,99.839C264.922,100.676 271.337,95.094 274.892,92.46C286.257,84.043 304.579,101.712 292.977,113.315C286.956,119.335 265.079,142.339 264.922,142.339L234.227,142.339Z" style="fill:white;"/>
            </g>
        </g>
        <g transform="matrix(0.5,-0.866025,0.866025,0.5,23.9249,267.644)">
            <g transform="matrix(0.116095,0,0,0.746596,214.603,-6.30099)">
                <rect x="234.227" y="142.339" width="31.779" height="13.676" style="fill:white;"/>
            </g>
            <g transform="matrix(0.120195,0,0,0.120195,213.643,83.2355)">
                <path d="M234.227,142.339C234.029,142.339 204.697,114.295 204.224,113.315C197.722,99.841 208.303,84.867 224.996,92.46C225.378,92.634 233.931,100.135 234.227,99.839C234.523,99.543 234.227,82.231 234.227,80.14C234.227,63.682 264.424,63.689 264.922,80.14C265.005,82.895 264.922,99.428 264.922,99.839C264.922,100.676 271.337,95.094 274.892,92.46C286.257,84.043 304.579,101.712 292.977,113.315C286.956,119.335 265.079,142.339 264.922,142.339L234.227,142.339Z" style="fill:white;"/>
            </g>
        </g>
        <g transform="matrix(-0.5,-0.866025,0.866025,-0.5,267.565,380.73)">
            <g transform="matrix(0.116095,0,0,0.746596,214.603,-6.30099)">
                <rect x="234.227" y="142.339" width="31.779" height="13.676" style="fill:white;"/>
            </g>
            <g transform="matrix(0.120195,0,0,0.120195,213.643,83.2355)">
                <path d="M234.227,142.339C234.029,142.339 204.697,114.295 204.224,113.315C197.722,99.841 208.303,84.867 224.996,92.46C225.378,92.634 233.931,100.135 234.227,99.839C234.523,99.543 234.227,82.231 234.227,80.14C234.227,63.682 264.424,63.689 264.922,80.14C265.005,82.895 264.922,99.428 264.922,99.839C264.922,100.676 271.337,95.094 274.892,92.46C286.257,84.043 304.579,101.712 292.977,113.315C286.956,119.335 265.079,142.339 264.922,142.339L234.227,142.339Z" style="fill:white;"/>
            </g>
        </g>
        <g transform="matrix(-1,1.22465e-16,-1.22465e-16,-1,487.259,226.352)">
            <g transform="matrix(0.116095,0,0,0.746596,214.603,-6.30099)">
                <rect x="234.227" y="142.339" width="31.779" height="13.676" style="fill:white;"/>
            </g>
            <g transform="matrix(0.120195,0,0,0.120195,213.643,83.2355)">
                <path d="M234.227,142.339C234.029,142.339 204.697,114.295 204.224,113.315C197.722,99.841 208.303,84.867 224.996,92.46C225.378,92.634 233.931,100.135 234.227,99.839C234.523,99.543 234.227,82.231 234.227,80.14C234.227,63.682 264.424,63.689 264.922,80.14C265.005,82.895 264.922,99.428 264.922,99.839C264.922,100.676 271.337,95.094 274.892,92.46C286.257,84.043 304.579,101.712 292.977,113.315C286.956,119.335 265.079,142.339 264.922,142.339L234.227,142.339Z" style="fill:white;"/>
            </g>
        </g>
        <g transform="matrix(-0.5,0.866025,-0.866025,-0.5,463.579,-41.2678)">
            <g transform="matrix(0.116095,0,0,0.746596,214.603,-6.30099)">
                <rect x="234.227" y="142.339" width="31.779" height="13.676" style="fill:white;"/>
            </g>
            <g transform="matrix(0.120195,0,0,0.120195,213.643,83.2355)">
                <path d="M234.227,142.339C234.029,142.339 204.697,114.295 204.224,113.315C197.722,99.841 208.303,84.867 224.996,92.46C225.378,92.634 233.931,100.135 234.227,99.839C234.523,99.543 234.227,82.231 234.227,80.14C234.227,63.682 264.424,63.689 264.922,80.14C265.005,82.895 264.922,99.428 264.922,99.839C264.922,100.676 271.337,95.094 274.892,92.46C286.257,84.043 304.579,101.712 292.977,113.315C286.956,119.335 265.079,142.339 264.922,142.339L234.227,142.339Z" style="fill:white;"/>
            </g>
        </g>
        <g transform="matrix(0.5,0.866025,-0.866025,0.5,219.957,-154.281)">
            <g transform="matrix(0.116095,0,0,0.746596,214.603,-6.30099)">
                <rect x="234.227" y="142.339" width="31.779" height="13.676" style="fill:white;"/>
            </g>
            <g transform="matrix(0.120195,0,0,0.120195,213.643,83.2355)">
                <path d="M234.227,142.339C234.029,142.339 204.697,114.295 204.224,113.315C197.722,99.841 208.303,84.867 224.996,92.46C225.378,92.634 233.931,100.135 234.227,99.839C234.523,99.543 234.227,82.231 234.227,80.14C234.227,63.682 264.424,63.689 264.922,80.14C265.005,82.895 264.922,99.428 264.922,99.839C264.922,100.676 271.337,95.094 274.892,92.46C286.257,84.043 304.579,101.712 292.977,113.315C286.956,119.335 265.079,142.339 264.922,142.339L234.227,142.339Z" style="fill:white;"/>
            </g>
        </g>
    </g>
</svg>
