<?xml version="1.0" encoding="UTF-8" standalone="no"?>
<!DOCTYPE svg PUBLIC "-//W3C//DTD SVG 1.1//EN" "http://www.w3.org/Graphics/SVG/1.1/DTD/svg11.dtd">
<svg width="100%" height="100%" viewBox="0 0 500 500" version="1.1" xmlns="http://www.w3.org/2000/svg" xmlns:xlink="http://www.w3.org/1999/xlink" xml:space="preserve" xmlns:serif="http://www.serif.com/" style="fill-rule:evenodd;clip-rule:evenodd;stroke-linejoin:round;stroke-miterlimit:2;">
    <g id="poison" transform="matrix(8.31983,0,0,8.31983,-1777.47,-692.505)">
        <g id="poison1" serif:id="poison" transform="matrix(1,0,0,1,93.962,0.906584)">
            <circle cx="149.73" cy="112.378" r="30.049" style="fill:rgb(186,47,70);"/>
        </g>
        <g transform="matrix(0.120195,0,0,0.120195,213.643,83.2355)">
            <path d="M103.22,390.427C86.491,395.19 94.595,424.376 111.173,419.414C158.484,405.253 348.285,354.992 395.688,342.847C412.671,338.495 406.272,309.019 385.314,314.289C337.419,326.33 164.203,373.064 103.22,390.427Z" style="fill:rgb(78,49,122);"/>
        </g>
        <g transform="matrix(0.120195,0,0,-0.120195,213.643,171.415)">
            <path d="M103.22,390.427C86.491,395.19 94.595,424.376 111.173,419.414C158.484,405.253 348.285,354.992 395.688,342.847C412.671,338.495 406.272,309.019 385.314,314.289C337.419,326.33 164.203,373.064 103.22,390.427Z" style="fill:rgb(78,49,122);"/>
        </g>
        <g transform="matrix(0.120195,0,0,0.120195,213.643,83.2355)">
            <path d="M183.315,274.142C195.204,309.653 227.624,320.646 249.454,320.646C271.284,320.646 307.412,310.44 314.296,274.142C314.689,272.068 340.102,258.489 347.567,236.947C359.906,201.338 363.021,172.743 345.378,136.748C330.375,106.142 291.688,80.182 249.454,80.182C217.61,80.182 174.122,97.796 154.315,136.748C145.216,154.644 129.484,193.161 155.926,245.399C164.355,262.052 182.179,270.75 183.315,274.142Z" style="fill:rgb(78,49,122);"/>
        </g>
        <g transform="matrix(0.120195,0,0,0.120195,213.643,83.2355)">
            <path d="M210.759,144.255C197.054,144.255 187.207,165.551 187.207,182.806C187.207,196.233 191.773,224.821 210.759,224.821C227.79,224.821 232.906,196.231 233.167,182.806C233.498,165.708 224.464,144.255 210.759,144.255Z" style="fill:rgb(186,47,70);"/>
        </g>
        <g transform="matrix(0.120195,0,0,0.120195,223.258,83.2355)">
            <path d="M210.759,144.255C197.054,144.255 187.207,165.551 187.207,182.806C187.207,196.233 191.773,224.821 210.759,224.821C227.79,224.821 232.906,196.231 233.167,182.806C233.498,165.708 224.464,144.255 210.759,144.255Z" style="fill:rgb(186,47,70);"/>
        </g>
        <g transform="matrix(0.120195,0,0,0.120195,213.643,83.2355)">
            <path d="M237.378,236.947C233.388,236.947 231.577,242.095 231.577,244.913C231.577,248.978 233.313,253.852 237.378,253.852C241.444,253.852 243.087,248.978 243.087,244.913C243.087,242.095 241.369,236.947 237.378,236.947Z" style="fill:rgb(186,47,70);"/>
        </g>
        <g transform="matrix(0.120195,0,0,0.120195,216.648,83.2355)">
            <path d="M237.378,236.947C233.388,236.947 231.577,242.095 231.577,244.913C231.577,248.978 233.313,253.852 237.378,253.852C241.444,253.852 243.087,248.978 243.087,244.913C243.087,242.095 241.369,236.947 237.378,236.947Z" style="fill:rgb(186,47,70);"/>
        </g>
    </g>
</svg>
