<?xml version="1.0" encoding="UTF-8" standalone="no"?>
<!DOCTYPE svg PUBLIC "-//W3C//DTD SVG 1.1//EN" "http://www.w3.org/Graphics/SVG/1.1/DTD/svg11.dtd">
<svg width="100%" height="100%" viewBox="0 0 500 500" version="1.1" xmlns="http://www.w3.org/2000/svg" xmlns:xlink="http://www.w3.org/1999/xlink" xml:space="preserve" xmlns:serif="http://www.serif.com/" style="fill-rule:evenodd;clip-rule:evenodd;stroke-linecap:round;stroke-linejoin:round;stroke-miterlimit:1.5;">
    <g id="psychic">
        <g id="psychic1" serif:id="psychic" transform="matrix(8.31983,0,0,8.31983,-995.724,-684.963)">
            <circle cx="149.73" cy="112.378" r="30.049" style="fill:rgb(89,37,232);"/>
        </g>
        <path d="M42.925,272.194C42.925,263.383 112.245,107.045 257.891,112.477C397.594,117.687 461.966,263.718 461.966,269.788C461.966,291.085 382.442,416.572 257.891,416.572C100.408,416.572 42.925,281.005 42.925,272.194Z" style="fill:white;"/>
        <path d="M205.817,161.307C205.817,163.612 143.671,193.34 149.934,259.274C156.197,325.207 194.811,358.341 256.215,360.086C307.1,361.533 349.36,311.191 354.062,265.077C361.323,193.871 295.926,161.307 297.412,161.307C341.647,161.307 418.938,255.092 418.938,270.711C418.938,275.605 357.869,378.268 250,378.268C162.655,378.268 87.35,284.484 85.853,270.711C84.961,262.509 109.553,225.71 139.029,200.537C188.304,158.454 205.817,160.745 205.817,161.307Z" style="fill:rgb(89,37,232);stroke:white;stroke-width:0.63px;"/>
        <path d="M237.466,204.735C237.466,205.859 258.554,221.848 248.5,251.339C239.629,277.362 202.567,264.84 202.567,265.795C202.567,275.099 219.733,302.383 248.5,302.383C277.267,302.383 291.316,282.525 295.63,268.178C299.796,254.323 298.841,233.082 285.384,219.624C266.636,200.877 237.466,203.612 237.466,204.735Z" style="fill:rgb(89,37,232);"/>
    </g>
</svg>
