<?xml version="1.0" encoding="UTF-8" standalone="no"?>
<!DOCTYPE svg PUBLIC "-//W3C//DTD SVG 1.1//EN" "http://www.w3.org/Graphics/SVG/1.1/DTD/svg11.dtd">
<svg width="100%" height="100%" viewBox="0 0 500 500" version="1.1" xmlns="http://www.w3.org/2000/svg" xmlns:xlink="http://www.w3.org/1999/xlink" xml:space="preserve" xmlns:serif="http://www.serif.com/" style="fill-rule:evenodd;clip-rule:evenodd;stroke-linejoin:round;stroke-miterlimit:2;">
    <g id="rock" transform="matrix(8.31983,0,0,8.31983,-1777.47,-692.505)">
        <g id="rock1" serif:id="rock" transform="matrix(1,0,0,1,93.962,0.906584)">
            <circle cx="149.73" cy="112.378" r="30.049" style="fill:rgb(148,144,134);"/>
        </g>
        <g transform="matrix(0.120195,0,0,0.120195,213.643,83.2355)">
            <path d="M82.643,346.075C94.775,319.836 126.087,251.703 161.115,195.638C183.157,160.357 211.29,131.034 222.548,116.239C229.607,106.962 248.282,109.129 257.52,116.239C267.6,123.997 271.505,152.74 283.026,162.787C298.754,176.502 317.724,164.644 329.854,175.319C343.745,187.545 360.284,221.806 366.37,236.14C369.651,243.867 370.832,254.212 366.37,261.323C350.503,286.608 316.606,345.614 301.275,367.5C290.952,382.237 285.724,385.596 267.737,386.074C234.85,386.947 134.801,379.406 103.952,372.739C86.16,368.894 77.456,357.293 82.643,346.075Z" style="fill:rgb(37,46,46);"/>
        </g>
        <g transform="matrix(0.120195,0,0,0.120195,213.643,83.2355)">
            <path d="M347.279,139.644C349.718,136.713 353.214,130.197 351.304,123.684C349.32,116.916 341.819,110.152 338.635,107.416C334.122,103.539 313.619,100.645 309.798,107.416C304.41,116.965 304.889,134.932 307.622,142.268C313.494,158.03 331.083,159.107 347.279,139.644Z" style="fill:rgb(37,46,46);"/>
        </g>
        <g transform="matrix(0.120195,0,0,0.120195,213.643,83.2355)">
            <path d="M388.22,285.792C397.012,284.749 423.592,349.782 419.351,359.48C411.627,377.146 339.018,390.207 333.519,379.852C328.91,371.172 383.434,286.36 388.22,285.792Z" style="fill:rgb(37,46,46);"/>
        </g>
    </g>
</svg>
