<?xml version="1.0" encoding="UTF-8" standalone="no"?>
<!DOCTYPE svg PUBLIC "-//W3C//DTD SVG 1.1//EN" "http://www.w3.org/Graphics/SVG/1.1/DTD/svg11.dtd">
<svg width="100%" height="100%" viewBox="0 0 500 500" version="1.1" xmlns="http://www.w3.org/2000/svg" xmlns:xlink="http://www.w3.org/1999/xlink" xml:space="preserve" xmlns:serif="http://www.serif.com/" style="fill-rule:evenodd;clip-rule:evenodd;stroke-linejoin:round;stroke-miterlimit:2;">
    <g id="steel" transform="matrix(8.31983,0,0,8.31983,-1777.47,-692.505)">
        <g id="steel1" serif:id="steel" transform="matrix(1,0,0,1,93.962,0.906584)">
            <circle cx="149.73" cy="112.378" r="30.049" style="fill:rgb(76,82,82);"/>
        </g>
        <g transform="matrix(0.120195,0,0,0.120195,213.643,83.2355)">
            <path d="M101.827,185.368C101.827,168.446 109.316,162.718 118.522,156.476C137.808,143.398 169.579,126.926 181.857,119.371C192.581,112.772 183.345,107.996 177.611,104.512C173.089,101.764 166.511,96.879 160.146,95.353C153.782,93.826 145.493,92.051 139.426,95.353C124.409,103.524 78.145,130.456 70.042,144.383C58.63,163.997 59.929,216.598 59.102,233.406C58.885,237.818 61.843,242.228 65.08,245.234C70.031,249.833 82.684,259.099 88.809,260.998C99.676,264.367 101.827,261.206 101.827,256.629L101.827,185.368Z" style="fill:rgb(139,149,150);"/>
        </g>
        <g transform="matrix(-0.0600974,-0.104092,0.104092,-0.0600974,232.665,154.43)">
            <path d="M101.827,185.368C101.827,168.446 109.316,162.718 118.522,156.476C137.808,143.398 169.579,126.926 181.857,119.371C192.581,112.772 183.345,107.996 177.611,104.512C173.089,101.764 166.511,96.879 160.146,95.353C153.782,93.826 145.493,92.051 139.426,95.353C124.409,103.524 78.145,130.456 70.042,144.383C58.63,163.997 59.929,216.598 59.102,233.406C58.885,237.818 61.843,242.228 65.08,245.234C70.031,249.833 82.684,259.099 88.809,260.998C99.676,264.367 101.827,261.206 101.827,256.629L101.827,185.368Z" style="fill:rgb(139,149,150);"/>
        </g>
        <g transform="matrix(-0.0600974,0.104092,-0.104092,-0.0600974,284.845,102.558)">
            <path d="M101.827,185.368C101.827,168.446 109.316,162.718 118.522,156.476C137.808,143.398 169.579,126.926 181.857,119.371C192.581,112.772 183.345,107.996 177.611,104.512C173.089,101.764 166.511,96.879 160.146,95.353C153.782,93.826 145.493,92.051 139.426,95.353C124.409,103.524 78.145,130.456 70.042,144.383C58.63,163.997 59.929,216.598 59.102,233.406C58.885,237.818 61.843,242.228 65.08,245.234C70.031,249.833 82.684,259.099 88.809,260.998C99.676,264.367 101.827,261.206 101.827,256.629L101.827,185.368Z" style="fill:rgb(139,149,150);"/>
        </g>
        <g transform="matrix(0.120195,0,0,0.120195,213.643,83.2355)">
            <path d="M154.743,185.368C141.104,185.368 137.656,191.462 145.824,205.171C162.787,233.639 223.378,342.563 241.57,369.646C246.106,376.399 254.91,377.009 259.483,369.646C276.595,342.096 335.209,238.457 352.006,208.58C361.496,191.701 361.991,185.368 350.764,185.368L154.743,185.368Z" style="fill:rgb(139,149,150);"/>
        </g>
    </g>
</svg>
