<?xml version="1.0" encoding="UTF-8" standalone="no"?>
<!DOCTYPE svg PUBLIC "-//W3C//DTD SVG 1.1//EN" "http://www.w3.org/Graphics/SVG/1.1/DTD/svg11.dtd">
<svg width="100%" height="100%" viewBox="0 0 2561 1440" version="1.1" xmlns="http://www.w3.org/2000/svg" xmlns:xlink="http://www.w3.org/1999/xlink" xml:space="preserve" xmlns:serif="http://www.serif.com/" style="fill-rule:evenodd;clip-rule:evenodd;stroke-linecap:round;stroke-linejoin:round;stroke-miterlimit:1.5;">
    <g transform="matrix(1,0,0,1,0.208333,0)">
        <rect x="0" y="0" width="2560" height="1440" style="fill:rgb(187,187,187);"/>
        <g id="pokeball" transform="matrix(0.810516,-0.467952,0.467952,0.810516,135.726,735.431)">
            <g transform="matrix(1.03128,0,0,1.03128,13.0597,-45.0445)">
                <circle cx="1228.51" cy="741.839" r="698.161" style="fill:rgb(223,223,223);stroke:rgb(87,87,87);stroke-width:19.43px;"/>
            </g>
            <g transform="matrix(1.03128,0,0,1.03128,13.0597,-45.0445)">
                <circle cx="1228.51" cy="741.839" r="698.161" style="fill:rgb(223,223,223);stroke:rgb(87,87,87);stroke-width:19.43px;"/>
            </g>
            <g transform="matrix(-1,-1.22465e-16,1.22465e-16,-1,2560,1440)">
                <path d="M560,720C560,490.161 2000,490.161 2000,720C2000,1236.39 1520,1440 1280,1440C1021.25,1440 560,1234.48 560,720Z" style="fill:rgb(255,93,78);stroke:rgb(87,87,87);stroke-width:20.03px;"/>
            </g>
            <path d="M560.24,701.25C565.193,701.25 798.455,838.409 1280,838.409C1785.57,838.409 1987.74,701.25 1999.76,701.25C2002.33,701.25 1992.11,836.589 1990.29,838.409C1919.61,909.089 1560.51,958.748 1280,958.748C1043.24,958.748 659.798,928.499 569.708,838.409C565.583,834.284 558.343,701.25 560.24,701.25Z" style="fill:rgb(87,87,87);stroke:rgb(87,87,87);stroke-width:20.03px;"/>
            <g transform="matrix(1.20985,0,0,1.20985,-322.995,-195.924)">
                <circle cx="1324.96" cy="898.711" r="157.152" style="fill:rgb(223,223,223);stroke:rgb(87,87,87);stroke-width:16.56px;"/>
            </g>
            <g transform="matrix(0.682661,0,0,0.682661,375.503,277.864)">
                <circle cx="1324.96" cy="898.711" r="157.152" style="fill:rgb(223,223,223);stroke:rgb(87,87,87);stroke-width:29.35px;"/>
            </g>
        </g>
        <g transform="matrix(2.70598,0,0,2.70598,973.754,717.39)">
            <g transform="matrix(1,0,0,1,-236.5,-250)">
                <g transform="matrix(1,0,0,1,-12.4992,-0.537293)">
                    <g id="leaves">
                        <path d="M19.961,1.057C21.095,2.19 60.815,25.495 62.391,65.803C63.185,86.1 64.01,108.154 62.391,126.8C61.651,135.327 62.245,147.624 69.121,157.656C87.881,185.028 102.841,193.945 114.306,202.336C115.112,202.925 126.018,208.001 137.913,208.001C138.701,208.001 155.071,174.359 155.132,173.574C156.024,161.985 150.515,122.311 137.913,101.095C130.812,89.142 117.433,70.786 105.632,53.41C96.076,39.341 87.924,25.728 82.065,18.146C77.611,12.382 65.799,9.166 62.391,8.632C51.785,6.969 19.547,0.643 19.961,1.057Z" style="fill:rgb(140,196,71);stroke:black;stroke-width:1px;"/>
                        <path d="M273.384,21.387C273.099,21.387 264.66,24.907 254.102,26.888C247.989,28.035 236.418,28.865 231.417,30.17C212.507,35.104 190.967,39.017 168.133,60.786C156.17,72.192 147.575,85.731 138.85,100.805C138.529,101.36 155.206,142.743 155.206,172.128C155.206,172.984 177.517,138.283 189.167,123.989C206.336,102.924 231.054,92.159 231.417,91.377C239.05,74.892 249.572,61.489 260.832,48.738C271.779,36.343 273.878,21.387 273.384,21.387Z" style="fill:rgb(140,196,71);stroke:black;stroke-width:1px;"/>
                        <path d="M412.956,123.989C413.437,123.989 426.542,93.077 425.416,56.473C425.233,50.532 417.732,44.24 412.956,43.092C408.39,41.995 370.389,44.832 323.411,56.473C286.585,65.598 249.982,83.555 230.336,91.591C214.136,98.216 195.783,115.185 177.656,139.329C162.747,159.185 137.814,207.36 137.814,208.358C137.814,208.483 147.674,211.099 157.392,214.808C167.521,218.674 177.526,223.637 177.656,223.62C204.047,220.146 283.437,203.292 296.163,187.51C321.537,156.044 369.673,92.177 401.428,74.952C403.878,73.623 412.475,123.989 412.956,123.989Z" style="fill:rgb(140,196,71);stroke:black;stroke-width:1px;"/>
                        <path d="M484.724,177.069C478.618,170.92 446.213,147.982 412.956,138.035C390.203,131.23 343.27,129.804 342.054,131.019C327.723,145.35 299.709,182.588 299.874,182.753C299.967,182.846 320.438,175.432 342.054,172.144C358.689,169.613 376.003,170.744 385.228,172.144C391.508,173.097 413.805,187.521 416.624,187.521C419.444,187.521 436.272,176.974 449.595,174.927C460.945,173.184 485.188,177.536 484.724,177.069Z" style="fill:rgb(140,196,71);stroke:black;stroke-width:1px;"/>
                        <path d="M477.4,239.929C477.911,239.418 465.79,210.606 444.045,198.14C441.311,196.573 431.204,194.583 416.624,187.521C404.31,181.557 392.176,174.18 385.393,172.287C370.206,168.049 352.116,171.11 337.962,172.816C324.872,174.393 312.106,177.554 300.46,182.45C299.462,182.87 295.327,193.703 268.085,202.194C258.318,205.238 238.046,211.558 219.076,215.819C198.312,220.483 178.162,223.113 177.655,223.621C177.148,224.128 194.507,236.415 201.971,240.812C205.217,242.724 218.884,248.754 222.44,250C236.958,255.086 268.762,267.322 289.078,271.328C307.173,274.896 326.583,279.014 344.341,274.035C367.778,267.464 407.519,237.583 429.696,231.899C445.316,227.895 476.889,240.44 477.4,239.929Z" style="fill:rgb(140,196,71);stroke:black;stroke-width:1px;"/>
                    </g>
                    <g id="leavesShadows">
                        <path d="M298.627,185.555C384.196,190.072 319.3,260.776 281.62,269.13C281.515,269.153 276.353,267.846 269.379,265.687C261.968,263.392 252.483,260.154 243.899,257.197C232.197,253.166 222.333,249.403 222.191,249.34C222.002,249.256 217.653,245.346 212.424,241.355C208.129,238.076 202.793,235.253 199.7,233.288C193.694,229.472 180.22,223.558 181.475,223.366C196.376,221.096 228.847,214.318 256.148,206.351C259.263,205.442 261.4,204.791 263.492,204.149C264.562,203.82 265.645,203.509 266.791,203.134C277.514,199.619 283.822,196.545 287.972,194.174C292.434,191.623 294.333,189.885 296.047,188.286C297.844,186.609 298.546,185.551 298.627,185.555Z" style="fill:rgb(100,153,73);"/>
                        <path d="M334.972,139.329C349.904,136.342 364.472,154.735 361.96,169.753C361.929,169.937 343.487,170.995 329.195,173.619C312.821,176.625 301.606,181.732 301.467,181.573C301.205,181.273 333.441,139.635 334.972,139.329Z" style="fill:rgb(100,153,73);"/>
                        <path d="M208.635,106.219C240.707,92.866 329.022,91.335 256.233,205.19C255.826,205.826 241.888,209.913 225.975,213.776C205.884,218.652 182.527,222.909 179.792,222.771C179.148,222.739 167.701,217.848 156.778,213.634C147.529,210.065 139.016,207.464 139.016,206.918C139.016,206.372 150.777,182.632 165.837,158.177C167.804,154.982 169.695,151.665 171.852,148.414C175.344,143.153 179.231,137.988 183.014,133.214C194.66,118.518 206.201,107.232 208.635,106.219Z" style="fill:rgb(100,153,73);"/>
                        <path d="M139.412,100.869C143.567,96.714 202.513,65.33 205.181,107.589C205.206,107.989 191.786,119.835 180.287,134.935C167.322,151.958 155.999,173.903 155.68,173.584C155.56,173.464 155.566,170.692 155.196,166.331C154.625,159.583 153.353,149.023 150.861,138.528C146.476,120.061 139.087,101.194 139.412,100.869Z" style="fill:rgb(100,153,73);"/>
                        <path d="M80.116,171.353C79.87,170.863 77.211,139.875 83.53,108.085C89.069,80.221 115.35,76.252 137.552,101.24C137.816,101.538 138.892,103.246 140.143,106.315C141.767,110.297 143.97,117.101 146.477,125.534C148.729,133.112 151.304,142.016 152.596,151.167C153.578,158.119 155.538,166.64 154.625,173.517C154.438,174.929 153.821,176.209 153.391,177.46C153.056,178.436 140.642,200.802 139.723,203.367C139.643,203.59 137.789,207.102 137.552,207.096C136.727,207.073 130.246,204.715 123.905,203.367C119.05,202.335 114.529,202.552 114.327,202.351C113.833,201.856 106.632,196.694 99.137,190.461C90.859,183.578 82.151,175.414 80.116,171.353Z" style="fill:rgb(100,153,73);"/>
                    </g>
                    <g id="body">
                        <path id="body1" serif:id="body" d="M114.306,202.336C92.739,205.323 62.645,217.27 45.761,232.221C28.877,247.171 13.151,266.363 13,292.039C12.82,322.63 44.073,363.971 73.672,378.313C78.662,380.731 83.243,383.036 87.577,385.189C101.06,391.89 112.148,397.117 125.721,399.682C143.656,403.071 168.533,401.922 181.28,398.649C218.589,389.068 235.893,367.062 241.642,341.997C249.914,305.939 235.876,266.872 221.831,249.777C204.527,228.716 127.494,200.509 114.306,202.336Z" style="fill:rgb(90,144,204);stroke:black;stroke-width:1px;"/>
                        <path d="M204.04,235.828C203.56,237.635 220.851,293.746 197.839,331.829C181.491,358.884 160.889,361.646 125.177,357.589C102.836,355.05 69.255,336.157 52.33,331.829C46.845,330.426 38.82,330.001 35.344,331.829C33.33,332.889 29.422,337.925 29.785,338.694C33.386,346.303 55.857,368.329 68.683,375.068C85.673,383.996 101.818,393.66 124.398,399.035C144.168,403.742 182.496,399.212 192.175,395.329C221.398,383.606 238.114,362.182 241.959,338.694C250.195,288.383 225.165,252.597 220.996,248.427C220.9,248.331 216.906,244.611 213.588,242.216C209.94,239.583 204.083,235.667 204.04,235.828Z" style="fill:rgb(44,91,161);"/>
                    </g>
                    <g id="leftFoot">
                        <path id="leftFoot1" serif:id="leftFoot" d="M73.797,379.425C68.253,379.425 53.838,401.506 51.876,409.799C48.378,424.579 42.291,448.616 52.659,468.068C57.616,477.369 75.142,478.838 84.113,471.286C97.666,459.877 105.83,444.364 110.688,428.836C111.408,426.534 113.792,399.977 110.688,396.109C110.358,395.698 100.644,391.12 91.55,387.152C82.623,383.257 74.316,379.425 73.797,379.425Z" style="fill:rgb(90,144,204);stroke:black;stroke-width:1px;"/>
                        <path d="M52.546,409.956C52.549,410.585 65.958,410.736 75.029,419.808C92.431,437.21 91.321,463.6 91.777,463.102C100.939,453.086 107.937,440.028 110.203,428.642C112.2,418.61 112.443,404.495 110.649,396.076C110.623,395.951 101.126,392.089 91.777,387.823C83.044,383.838 74.44,379.425 73.797,379.425C68.482,379.425 52.527,404.101 52.546,409.956Z" style="fill:rgb(44,91,161);"/>
                    </g>
                    <g id="rightFoot">
                        <path id="rightFoot1" serif:id="rightFoot" d="M181.28,398.649C187.751,405.12 193,426.575 192.067,441.167C191.099,456.308 184.801,481.925 175.472,489.495C158.187,503.521 147.891,502.578 137.096,487.796C130.345,478.551 128.849,455.797 131.086,437.076C132.669,423.84 141.11,403.711 143.902,401.573C144.388,401.201 154.412,401.37 163.202,400.636C172.607,399.85 180.817,398.186 181.28,398.649Z" style="fill:rgb(90,144,204);stroke:black;stroke-width:1px;"/>
                        <path d="M143.902,401.573C141.016,404.459 137.054,415.294 134.437,424.278C132.617,430.526 131.541,435.86 131.541,437.082C131.541,437.334 152.386,435.787 162.524,450.392C172.029,464.087 176.408,488.031 176.802,487.656C184.508,480.336 192.666,452.182 191.564,433.743C190.524,416.354 184.471,402.242 180.798,398.569C180.624,398.394 170.671,400.461 161.147,401.251C152.424,401.975 144.062,401.413 143.902,401.573Z" style="fill:rgb(44,91,161);"/>
                    </g>
                    <g id="mouth">
                        <path id="mouth1" serif:id="mouth" d="M99.898,272.503C99.966,272.402 105.391,275.526 112.242,277.379C119.039,279.218 127.281,279.801 127.321,279.915C128.718,283.883 124.066,297.527 119.088,307.328C117.645,310.169 115.929,312.425 114.629,314.353C109.474,321.996 98.421,321.429 97.187,310.622C96.551,305.045 99.697,272.8 99.898,272.503Z" style="fill:rgb(66,0,0);stroke:black;stroke-width:1px;"/>
                        <path id="tongue" d="M108.549,276.758C109.31,276.645 113.228,277.811 117.308,278.507C122.192,279.341 127.295,279.755 127.321,279.915C128.335,286.181 119.766,309.349 114.629,314.353C109.759,319.097 101.729,323.809 97.187,310.622C96.684,309.16 98.687,288.009 99.179,286.543C100.615,282.261 105.971,277.138 108.549,276.758Z" style="fill:rgb(255,126,184);stroke:black;stroke-width:1px;"/>
                    </g>
                    <g id="leftEye">
                        <path id="leftEye1" serif:id="leftEye" d="M83.34,242.426C78.583,242.445 76.299,246.777 76.371,250C76.427,252.503 77.452,257.027 83.34,257.449C86.405,257.668 90.299,254.755 90.386,250C90.432,247.497 88.789,242.404 83.34,242.426Z" style="fill:rgb(210,80,108);stroke:black;stroke-width:1px;"/>
                        <g id="leftEye2" serif:id="leftEye" transform="matrix(0.839657,0,0,0.734578,13.7395,64.8938)">
                            <path d="M83.34,242.426C78.583,242.445 76.299,246.777 76.371,250C76.427,252.503 77.452,257.027 83.34,257.449C86.405,257.668 90.299,254.755 90.386,250C90.432,247.497 88.789,242.404 83.34,242.426Z" style="fill:rgb(223,223,223);"/>
                        </g>
                    </g>
                    <g id="rightEye">
                        <path id="rightEye1" serif:id="rightEye" d="M163.007,267.935C158.288,267.744 155.452,271.385 155.132,274.887C154.863,277.833 157.051,282.745 161.577,282.79C165.946,282.833 168.653,280.376 169.262,276.758C169.892,273.021 168.371,268.153 163.007,267.935Z" style="fill:rgb(210,80,108);stroke:black;stroke-width:1px;"/>
                        <g id="rightEye2" serif:id="rightEye" transform="matrix(0.868073,0,0,0.793435,21.5483,55.7592)">
                            <path d="M163.007,267.935C158.288,267.744 155.452,271.385 155.132,274.887C154.863,277.833 157.051,282.745 161.577,282.79C165.946,282.833 168.653,280.376 169.262,276.758C169.892,273.021 168.371,268.153 163.007,267.935Z" style="fill:rgb(223,223,223);"/>
                        </g>
                    </g>
                    <g id="leavesDetails">
                        <path d="M199.7,233.288C226.772,223.595 267.472,207.127 324.356,202.251C338.734,201.019 370.525,206.62 424.541,208.187C432.362,208.413 445.526,217.627 452.107,222.234" style="fill:none;stroke:black;stroke-width:1px;"/>
                        <path d="M307.89,172.079C336.437,163.432 403.8,144.87 453.055,164.727" style="fill:none;stroke:black;stroke-width:1px;"/>
                        <path d="M154.001,212.596C225.787,123.336 293.849,81.017 389.865,56.417" style="fill:none;stroke:black;stroke-width:1px;"/>
                        <path d="M153.406,152.813C174.783,101.119 208.002,50.255 256.121,35.463" style="fill:none;stroke:black;stroke-width:1px;"/>
                        <path d="M138.247,207.222C138.598,206.35 139.3,204.604 139.328,203.224C139.582,190.886 114.041,77.745 56.332,15.129" style="fill:none;stroke:black;stroke-width:1px;"/>
                        <path d="M401.571,74.931C403.852,73.001 407.594,70.727 412.113,68.79" style="fill:none;stroke:black;stroke-width:1px;"/>
                    </g>
                </g>
            </g>
        </g>
        <g transform="matrix(6.65497,0,0,6.53562,-983.268,-6768.55)">
            <path d="M154.25,1086.67C156.219,1086.02 158.07,1085.41 159.804,1084.86C161.537,1084.31 163.364,1083.78 165.285,1083.29C167.205,1082.79 169.044,1082.39 170.802,1082.1C172.153,1081.87 173.537,1081.76 174.953,1081.76C177.313,1081.76 178.859,1081.83 179.591,1081.95C180.698,1082.17 181.744,1082.51 182.729,1082.98C183.713,1083.45 184.592,1084.08 185.365,1084.87C186.138,1085.66 186.769,1086.59 187.257,1087.67C187.453,1088.11 187.55,1088.57 187.55,1089.06C187.55,1090.88 186.553,1093.13 184.56,1095.8C182.566,1098.47 180.564,1100.8 178.554,1102.78C176.544,1104.77 175.042,1106.19 174.049,1107.05L178.444,1122.46L172.047,1127.07L160.841,1095.07C160.809,1095.07 160.654,1095.22 160.377,1095.53C160.101,1095.84 159.739,1096.24 159.291,1096.74C158.843,1097.23 158.563,1097.54 158.449,1097.65C158.4,1097.65 158.241,1097.3 157.973,1096.6C157.704,1095.9 157.346,1094.93 156.898,1093.69C156.451,1092.44 155.946,1091.06 155.385,1089.54C154.823,1088.01 154.445,1087.06 154.25,1086.67ZM170.045,1093.45L172.047,1100.66C173.057,1099.63 174.31,1098.23 175.807,1096.46C177.305,1094.68 178.053,1093.4 178.053,1092.6C178.053,1092.29 177.923,1092.11 177.663,1092.06C176.93,1091.9 176.206,1091.82 175.49,1091.82C173.341,1091.82 171.527,1092.36 170.045,1093.45Z" style="fill:rgb(255,202,57);fill-rule:nonzero;stroke:rgb(42,87,147);stroke-width:2.84px;stroke-linecap:butt;stroke-miterlimit:2;"/>
            <path d="M205.885,1099.02C207.041,1099.64 207.981,1100.47 208.705,1101.52C209.429,1102.57 209.958,1103.75 210.292,1105.06C210.626,1106.37 210.793,1107.74 210.793,1109.15C210.793,1110.32 210.699,1111.46 210.512,1112.55C210.325,1113.64 210.068,1114.64 209.743,1115.55C209.417,1116.46 209.035,1117.23 208.595,1117.87C207.57,1119.4 206.471,1120.72 205.299,1121.82C204.127,1122.93 202.931,1123.82 201.71,1124.5C200.49,1125.17 199.281,1125.67 198.085,1125.99C196.889,1126.3 195.705,1126.46 194.533,1126.46C193.149,1126.46 191.835,1126.25 190.59,1125.82C189.345,1125.38 188.283,1124.82 187.404,1124.12C185.955,1122.91 184.824,1121.29 184.01,1119.25C183.196,1117.2 182.79,1115.04 182.79,1112.77C182.79,1108.84 183.921,1105.68 186.183,1103.27C188.12,1101.2 190.122,1099.64 192.189,1098.59C194.256,1097.54 196.372,1097.02 198.537,1097.02C199.806,1097.02 201.027,1097.18 202.199,1097.5C203.371,1097.81 204.599,1098.32 205.885,1099.02ZM204.445,1103.12C204.168,1104.36 203.57,1105.45 202.65,1106.39C201.731,1107.34 200.832,1107.81 199.953,1107.81C199.513,1107.81 199.123,1107.7 198.781,1107.47C198.293,1107.08 198.048,1106.39 198.048,1105.42C198.048,1104.67 198.297,1103.93 198.793,1103.19C199.289,1102.46 200.075,1101.88 201.149,1101.46C200.075,1101.46 199.037,1101.67 198.036,1102.07C197.035,1102.48 196.177,1103 195.46,1103.65C194.744,1104.29 194.171,1105.01 193.739,1105.82C193.308,1106.63 193.092,1107.43 193.092,1108.25C193.092,1109.76 193.792,1110.97 195.192,1111.86C196.494,1112.69 197.731,1113.11 198.903,1113.11C200.058,1113.11 201.084,1112.72 201.979,1111.95C202.874,1111.17 203.558,1110.18 204.03,1108.97C204.502,1107.76 204.738,1106.56 204.738,1105.37C204.738,1104.56 204.64,1103.81 204.445,1103.12Z" style="fill:rgb(255,202,57);fill-rule:nonzero;stroke:rgb(42,87,147);stroke-width:2.84px;stroke-linecap:butt;stroke-miterlimit:2;"/>
            <path d="M206.74,1084.66L219.142,1079.46L220.949,1107.66L231.154,1102.07L241.75,1103.66L227.931,1114.26L240.944,1124.07L241.53,1133.86L222.34,1120.07L222.951,1132.05L211.33,1132.27L209.132,1089.87L205.543,1090.67L206.74,1084.66Z" style="fill:rgb(255,202,57);fill-rule:nonzero;stroke:rgb(42,87,147);stroke-width:2.84px;stroke-linecap:butt;stroke-miterlimit:2;"/>
            <path d="M258.742,1111.96L264.626,1119.07C264.154,1120.43 263.035,1121.68 261.269,1122.82C259.503,1123.96 257.403,1124.86 254.97,1125.52C252.536,1126.18 250.107,1126.51 247.682,1126.51C245.534,1126.51 243.617,1126.23 241.933,1125.66C240.248,1125.09 238.95,1124.22 238.039,1123.07C236.46,1121.08 235.67,1118.54 235.67,1115.45C235.67,1113.01 236.114,1110.61 237.001,1108.24C237.888,1105.87 238.828,1104.21 239.821,1103.27C241.009,1102.15 242.299,1101.21 243.69,1100.46C245.082,1099.71 246.527,1099.15 248.024,1098.78C249.521,1098.4 251.059,1098.21 252.638,1098.21C254.705,1098.21 256.671,1098.55 258.534,1099.2C260.398,1099.86 262.029,1100.82 263.429,1102.07L250.026,1118.06C251.214,1118.06 252.341,1117.82 253.407,1117.32C254.473,1116.82 255.454,1116.12 256.349,1115.19C257.244,1114.28 258.042,1113.2 258.742,1111.96ZM251.979,1106.27C251.182,1105.87 250.368,1105.66 249.538,1105.66C248.659,1105.66 247.808,1105.84 246.986,1106.2C246.164,1106.56 245.583,1106.98 245.241,1107.47C244.232,1108.77 243.727,1110.2 243.727,1111.77C243.727,1112.33 243.784,1112.88 243.898,1113.4C244.012,1113.92 244.207,1114.64 244.484,1115.55L251.979,1106.27ZM239.43,1088.67L252.443,1081.47L258.034,1090.06L242.238,1093.06L239.43,1088.67Z" style="fill:rgb(255,202,57);fill-rule:nonzero;stroke:rgb(42,87,147);stroke-width:2.84px;stroke-linecap:butt;stroke-miterlimit:2;"/>
            <path d="M283.327,1097.46C287.542,1096.12 290.675,1095.46 292.726,1095.46C294.354,1095.46 295.753,1095.79 296.925,1096.46C298.374,1097.29 299.936,1098.7 301.613,1100.7C303.289,1102.71 304.331,1104.56 304.738,1106.27C305.6,1109.74 306.032,1112.77 306.032,1115.35C306.032,1116.72 305.942,1118.16 305.763,1119.66C305.584,1121.17 305.307,1123.1 304.933,1125.46L294.728,1126.07C294.761,1125.26 294.777,1124.09 294.777,1122.56C294.777,1116.18 293.898,1110.75 292.14,1106.27C291.815,1105.47 291.432,1104.85 290.993,1104.39C290.553,1103.94 290.163,1103.71 289.821,1103.71C289.463,1103.71 289.284,1103.96 289.284,1104.46C289.284,1104.76 289.316,1105.01 289.381,1105.22C289.495,1105.48 289.609,1105.83 289.723,1106.27C290.602,1109.8 291.042,1112.83 291.042,1115.35C291.042,1116.59 290.96,1117.89 290.797,1119.25C290.635,1120.61 290.35,1122.68 289.943,1125.46L279.738,1126.07C279.77,1125.26 279.787,1124.09 279.787,1122.56C279.787,1116.16 278.9,1110.73 277.126,1106.27C276.914,1105.75 276.751,1105.2 276.637,1104.62C276.523,1104.05 276.442,1103.76 276.393,1103.76C276.328,1103.76 276.141,1104.14 275.832,1104.9C275.522,1105.67 275.189,1106.46 274.831,1107.27C274.586,1107.84 274.387,1108.49 274.232,1109.23C274.078,1109.96 273.964,1110.78 273.891,1111.69C273.817,1112.6 273.781,1113.68 273.781,1114.91C273.781,1117.42 273.927,1120.6 274.22,1124.46L262.233,1125.85C262.038,1124.42 261.859,1123 261.696,1121.58C261.533,1120.16 261.407,1118.85 261.317,1117.64C261.228,1116.42 261.183,1115.12 261.183,1113.72C261.183,1113.12 261.216,1112.25 261.281,1111.11L260.841,1096.87L270.436,1095.65L271.828,1097.26C274.399,1096.43 276.499,1096.02 278.126,1096.02C279.933,1096.02 281.667,1096.5 283.327,1097.46Z" style="fill:rgb(255,202,57);fill-rule:nonzero;stroke:rgb(42,87,147);stroke-width:2.84px;stroke-linecap:butt;stroke-miterlimit:2;"/>
            <path d="M325.88,1099.02C327.036,1099.64 327.976,1100.47 328.7,1101.52C329.425,1102.57 329.953,1103.75 330.287,1105.06C330.621,1106.37 330.788,1107.74 330.788,1109.15C330.788,1110.32 330.694,1111.46 330.507,1112.55C330.32,1113.64 330.063,1114.64 329.738,1115.55C329.412,1116.46 329.03,1117.23 328.59,1117.87C327.565,1119.4 326.466,1120.72 325.294,1121.82C324.123,1122.93 322.926,1123.82 321.706,1124.5C320.485,1125.17 319.276,1125.67 318.08,1125.99C316.884,1126.3 315.7,1126.46 314.528,1126.46C313.144,1126.46 311.83,1126.25 310.585,1125.82C309.34,1125.38 308.278,1124.82 307.399,1124.12C305.95,1122.91 304.819,1121.29 304.005,1119.25C303.192,1117.2 302.785,1115.04 302.785,1112.77C302.785,1108.84 303.916,1105.68 306.178,1103.27C308.115,1101.2 310.117,1099.64 312.184,1098.59C314.251,1097.54 316.367,1097.02 318.532,1097.02C319.801,1097.02 321.022,1097.18 322.194,1097.5C323.366,1097.81 324.595,1098.32 325.88,1099.02ZM324.44,1103.12C324.163,1104.36 323.565,1105.45 322.646,1106.39C321.726,1107.34 320.827,1107.81 319.948,1107.81C319.508,1107.81 319.118,1107.7 318.776,1107.47C318.288,1107.08 318.043,1106.39 318.043,1105.42C318.043,1104.67 318.292,1103.93 318.788,1103.19C319.285,1102.46 320.07,1101.88 321.144,1101.46C320.07,1101.46 319.032,1101.67 318.031,1102.07C317.03,1102.48 316.172,1103 315.456,1103.65C314.739,1104.29 314.166,1105.01 313.734,1105.82C313.303,1106.63 313.087,1107.43 313.087,1108.25C313.087,1109.76 313.787,1110.97 315.187,1111.86C316.489,1112.69 317.726,1113.11 318.898,1113.11C320.054,1113.11 321.079,1112.72 321.974,1111.95C322.869,1111.17 323.553,1110.18 324.025,1108.97C324.497,1107.76 324.733,1106.56 324.733,1105.37C324.733,1104.56 324.635,1103.81 324.44,1103.12Z" style="fill:rgb(255,202,57);fill-rule:nonzero;stroke:rgb(42,87,147);stroke-width:2.84px;stroke-linecap:butt;stroke-miterlimit:2;"/>
            <path d="M339.333,1097.26C341.139,1096.66 342.694,1096.2 343.996,1095.88C345.298,1095.57 346.543,1095.41 347.731,1095.41C349.326,1095.41 350.726,1095.76 351.93,1096.46C353.379,1097.29 354.941,1098.7 356.618,1100.7C358.294,1102.71 359.336,1104.56 359.743,1106.27C360.605,1109.74 361.037,1112.77 361.037,1115.35C361.037,1116.72 360.947,1118.16 360.768,1119.66C360.589,1121.17 360.312,1123.1 359.938,1125.46L349.733,1126.07C349.765,1125.26 349.782,1124.09 349.782,1122.56C349.782,1116.18 348.903,1110.75 347.145,1106.27C346.461,1104.6 345.794,1103.76 345.143,1103.76C344.297,1103.76 343.361,1104.93 342.335,1107.27C342.091,1107.84 341.892,1108.49 341.737,1109.23C341.583,1109.96 341.469,1110.78 341.396,1111.69C341.322,1112.6 341.286,1113.68 341.286,1114.91C341.286,1117.42 341.432,1120.6 341.725,1124.46L329.738,1125.85C329.543,1124.42 329.363,1123 329.201,1121.58C329.038,1120.16 328.912,1118.85 328.822,1117.64C328.733,1116.42 328.688,1115.12 328.688,1113.72C328.688,1113.12 328.721,1112.25 328.786,1111.11L328.346,1096.87L337.941,1095.65L339.333,1097.26Z" style="fill:rgb(255,202,57);fill-rule:nonzero;stroke:rgb(42,87,147);stroke-width:2.84px;stroke-linecap:butt;stroke-miterlimit:2;"/>
            <path d="M417.433,1094.65L406.496,1101.8C405.763,1099.98 403.314,1099.07 399.147,1099.07C398.203,1099.07 397.235,1099.75 396.242,1101.1C395.249,1102.45 394.752,1103.97 394.752,1105.66C394.834,1106.95 395.216,1108.18 395.9,1109.36C396.584,1110.54 397.796,1111.17 399.538,1111.25C400.84,1111.25 402.207,1110.9 403.639,1110.2C405.071,1109.5 406.308,1108.1 407.35,1106C407.415,1106.13 408.091,1106.74 409.376,1107.83C410.662,1108.92 411.977,1110.02 413.319,1111.11C414.662,1112.2 415.651,1113 416.286,1113.52C415.049,1116.49 413.413,1118.8 411.378,1120.48C409.344,1122.16 407.212,1123.31 404.982,1123.92C402.752,1124.54 400.539,1124.85 398.341,1124.85C395.265,1124.85 392.559,1124.27 390.224,1123.11C387.888,1121.94 385.972,1119.95 384.474,1117.12C382.977,1114.3 382.065,1110.48 381.74,1105.66C381.707,1105.19 381.691,1104.47 381.691,1103.51C381.691,1101.1 381.972,1098.79 382.533,1096.58C383.095,1094.37 384.014,1092.37 385.292,1090.59C386.57,1088.8 388.332,1087.35 390.578,1086.23C392.824,1085.11 395.542,1084.52 398.732,1084.47C400.848,1084.47 402.931,1084.72 404.982,1085.21C407.033,1085.71 408.913,1086.4 410.622,1087.29C412.331,1088.18 413.8,1089.26 415.028,1090.54C416.257,1091.81 417.059,1093.19 417.433,1094.65Z" style="fill:rgb(255,202,57);fill-rule:nonzero;stroke:rgb(42,87,147);stroke-width:2.84px;stroke-linecap:butt;stroke-miterlimit:2;"/>
            <path d="M435.89,1099.02C437.046,1099.64 437.986,1100.47 438.71,1101.52C439.434,1102.57 439.963,1103.75 440.297,1105.06C440.631,1106.37 440.797,1107.74 440.797,1109.15C440.797,1110.32 440.704,1111.46 440.517,1112.55C440.329,1113.64 440.073,1114.64 439.748,1115.55C439.422,1116.46 439.04,1117.23 438.6,1117.87C437.575,1119.4 436.476,1120.72 435.304,1121.82C434.132,1122.93 432.936,1123.82 431.715,1124.5C430.495,1125.17 429.286,1125.67 428.09,1125.99C426.894,1126.3 425.71,1126.46 424.538,1126.46C423.154,1126.46 421.84,1126.25 420.595,1125.82C419.35,1125.38 418.288,1124.82 417.409,1124.12C415.96,1122.91 414.829,1121.29 414.015,1119.25C413.201,1117.2 412.794,1115.04 412.794,1112.77C412.794,1108.84 413.926,1105.68 416.188,1103.27C418.125,1101.2 420.127,1099.64 422.194,1098.59C424.261,1097.54 426.377,1097.02 428.542,1097.02C429.811,1097.02 431.032,1097.18 432.204,1097.5C433.376,1097.81 434.604,1098.32 435.89,1099.02ZM434.45,1103.12C434.173,1104.36 433.575,1105.45 432.655,1106.39C431.736,1107.34 430.836,1107.81 429.958,1107.81C429.518,1107.81 429.127,1107.7 428.786,1107.47C428.297,1107.08 428.053,1106.39 428.053,1105.42C428.053,1104.67 428.301,1103.93 428.798,1103.19C429.294,1102.46 430.08,1101.88 431.154,1101.46C430.08,1101.46 429.042,1101.67 428.041,1102.07C427.04,1102.48 426.182,1103 425.465,1103.65C424.749,1104.29 424.175,1105.01 423.744,1105.82C423.313,1106.63 423.097,1107.43 423.097,1108.25C423.097,1109.76 423.797,1110.97 425.197,1111.86C426.499,1112.69 427.736,1113.11 428.908,1113.11C430.063,1113.11 431.089,1112.72 431.984,1111.95C432.879,1111.17 433.563,1110.18 434.035,1108.97C434.507,1107.76 434.743,1106.56 434.743,1105.37C434.743,1104.56 434.645,1103.81 434.45,1103.12Z" style="fill:rgb(255,202,57);fill-rule:nonzero;stroke:rgb(42,87,147);stroke-width:2.84px;stroke-linecap:butt;stroke-miterlimit:2;"/>
            <path d="M454.958,1101.56C454.062,1101.67 453.179,1101.96 452.309,1102.41C451.438,1102.87 450.693,1103.41 450.075,1104.03C449.456,1104.64 448.972,1105.32 448.622,1106.06C448.272,1106.81 448.097,1107.53 448.097,1108.25C448.097,1109.73 448.797,1110.93 450.197,1111.86C451.434,1112.69 452.687,1113.11 453.957,1113.11C454.201,1113.11 454.534,1113.08 454.958,1113.01L454.958,1107.81C454.518,1107.81 454.127,1107.7 453.786,1107.47C453.297,1107.08 453.053,1106.33 453.053,1105.22C453.053,1103.63 453.688,1102.41 454.958,1101.56ZM454.738,1077.85L464.943,1073.26L465.553,1106.32C465.683,1107.17 465.749,1108.13 465.749,1109.2C465.749,1110.14 465.716,1110.85 465.651,1111.3L465.944,1126.27L454.958,1126.85L454.958,1125.36C453.167,1126.1 451.361,1126.46 449.538,1126.46C448.138,1126.46 446.824,1126.25 445.595,1125.83C444.366,1125.4 443.304,1124.83 442.409,1124.12C440.96,1122.91 439.829,1121.29 439.015,1119.25C438.201,1117.2 437.794,1115.04 437.794,1112.77C437.794,1108.84 438.926,1105.68 441.188,1103.27C443.141,1101.22 445.155,1099.66 447.231,1098.61C449.306,1097.55 451.426,1097.02 453.59,1097.02C454.193,1097.02 454.648,1097.04 454.958,1097.07L454.738,1077.85Z" style="fill:rgb(255,202,57);fill-rule:nonzero;stroke:rgb(42,87,147);stroke-width:2.84px;stroke-linecap:butt;stroke-miterlimit:2;"/>
            <path d="M486.256,1111.96L492.14,1119.07C491.668,1120.43 490.549,1121.68 488.783,1122.82C487.017,1123.96 484.918,1124.86 482.484,1125.52C480.051,1126.18 477.622,1126.51 475.197,1126.51C473.048,1126.51 471.132,1126.23 469.447,1125.66C467.763,1125.09 466.465,1124.22 465.553,1123.07C463.974,1121.08 463.185,1118.54 463.185,1115.45C463.185,1113.01 463.629,1110.61 464.516,1108.24C465.403,1105.87 466.343,1104.21 467.335,1103.27C468.524,1102.15 469.814,1101.21 471.205,1100.46C472.597,1099.71 474.041,1099.15 475.539,1098.78C477.036,1098.4 478.574,1098.21 480.153,1098.21C482.22,1098.21 484.185,1098.55 486.049,1099.2C487.912,1099.86 489.544,1100.82 490.944,1102.07L477.541,1118.06C478.729,1118.06 479.856,1117.82 480.922,1117.32C481.988,1116.82 482.969,1116.12 483.864,1115.19C484.759,1114.28 485.557,1113.2 486.256,1111.96ZM479.494,1106.27C478.696,1105.87 477.882,1105.66 477.052,1105.66C476.173,1105.66 475.323,1105.84 474.501,1106.2C473.679,1106.56 473.097,1106.98 472.755,1107.47C471.746,1108.77 471.242,1110.2 471.242,1111.77C471.242,1112.33 471.299,1112.88 471.413,1113.4C471.527,1113.92 471.722,1114.64 471.999,1115.55L479.494,1106.27Z" style="fill:rgb(255,202,57);fill-rule:nonzero;stroke:rgb(42,87,147);stroke-width:2.84px;stroke-linecap:butt;stroke-miterlimit:2;"/>
            <path d="M506.251,1120.82L500.343,1128.46L487.746,1128.86L499.953,1112.72L486.159,1094.87L499.538,1095.46L506.251,1104.32L512.941,1095.46L526.344,1094.87L512.55,1112.72L524.757,1128.86L512.135,1128.46L506.251,1120.82Z" style="fill:rgb(255,202,57);fill-rule:nonzero;stroke:rgb(42,87,147);stroke-width:2.84px;stroke-linecap:butt;stroke-miterlimit:2;"/>
        </g>
        <g id="venetionBlinds">
            <g transform="matrix(1,0,0,1,-2.27374e-13,-45.469)">
                <path d="M0,53.365L2560,53.365" style="fill:none;stroke:rgb(116,116,116);stroke-width:0.42px;"/>
            </g>
            <g transform="matrix(1,0,0,1,-2.27374e-13,-36.469)">
                <path d="M0,53.365L2560,53.365" style="fill:none;stroke:rgb(116,116,116);stroke-width:0.42px;"/>
            </g>
            <g transform="matrix(1,0,0,1,-2.27374e-13,-28.469)">
                <path d="M0,53.365L2560,53.365" style="fill:none;stroke:rgb(116,116,116);stroke-width:0.42px;"/>
            </g>
            <g transform="matrix(1,0,0,1,-2.27374e-13,-19.469)">
                <path d="M0,53.365L2560,53.365" style="fill:none;stroke:rgb(116,116,116);stroke-width:0.42px;"/>
            </g>
            <g transform="matrix(1,0,0,1,-2.27374e-13,-11.469)">
                <path d="M0,53.365L2560,53.365" style="fill:none;stroke:rgb(116,116,116);stroke-width:0.42px;"/>
            </g>
            <g transform="matrix(1,0,0,1,-2.27374e-13,-2.46895)">
                <path d="M0,53.365L2560,53.365" style="fill:none;stroke:rgb(116,116,116);stroke-width:0.42px;"/>
            </g>
            <g transform="matrix(1,0,0,1,-2.27374e-13,5.53105)">
                <path d="M0,53.365L2560,53.365" style="fill:none;stroke:rgb(116,116,116);stroke-width:0.42px;"/>
            </g>
            <g transform="matrix(1,0,0,1,-2.27374e-13,14.531)">
                <path d="M0,53.365L2560,53.365" style="fill:none;stroke:rgb(116,116,116);stroke-width:0.42px;"/>
            </g>
            <g transform="matrix(1,0,0,1,-2.27374e-13,22.531)">
                <path d="M0,53.365L2560,53.365" style="fill:none;stroke:rgb(116,116,116);stroke-width:0.42px;"/>
            </g>
            <g transform="matrix(1,0,0,1,-2.27374e-13,31.531)">
                <path d="M0,53.365L2560,53.365" style="fill:none;stroke:rgb(116,116,116);stroke-width:0.42px;"/>
            </g>
            <g transform="matrix(1,0,0,1,-2.27374e-13,39.531)">
                <path d="M0,53.365L2560,53.365" style="fill:none;stroke:rgb(116,116,116);stroke-width:0.42px;"/>
            </g>
            <g transform="matrix(1,0,0,1,-2.27374e-13,48.531)">
                <path d="M0,53.365L2560,53.365" style="fill:none;stroke:rgb(116,116,116);stroke-width:0.42px;"/>
            </g>
            <g transform="matrix(1,0,0,1,-2.27374e-13,56.531)">
                <path d="M0,53.365L2560,53.365" style="fill:none;stroke:rgb(116,116,116);stroke-width:0.42px;"/>
            </g>
            <g transform="matrix(1,0,0,1,-2.27374e-13,65.531)">
                <path d="M0,53.365L2560,53.365" style="fill:none;stroke:rgb(116,116,116);stroke-width:0.42px;"/>
            </g>
            <g transform="matrix(1,0,0,1,-2.27374e-13,73.531)">
                <path d="M0,53.365L2560,53.365" style="fill:none;stroke:rgb(116,116,116);stroke-width:0.42px;"/>
            </g>
            <g transform="matrix(1,0,0,1,-2.27374e-13,82.531)">
                <path d="M0,53.365L2560,53.365" style="fill:none;stroke:rgb(116,116,116);stroke-width:0.42px;"/>
            </g>
            <g transform="matrix(1,0,0,1,-2.27374e-13,90.531)">
                <path d="M0,53.365L2560,53.365" style="fill:none;stroke:rgb(116,116,116);stroke-width:0.42px;"/>
            </g>
            <g transform="matrix(1,0,0,1,-2.27374e-13,99.531)">
                <path d="M0,53.365L2560,53.365" style="fill:none;stroke:rgb(116,116,116);stroke-width:0.42px;"/>
            </g>
            <g transform="matrix(1,0,0,1,-2.27374e-13,107.531)">
                <path d="M0,53.365L2560,53.365" style="fill:none;stroke:rgb(116,116,116);stroke-width:0.42px;"/>
            </g>
            <g transform="matrix(1,0,0,1,-2.27374e-13,116.531)">
                <path d="M0,53.365L2560,53.365" style="fill:none;stroke:rgb(116,116,116);stroke-width:0.42px;"/>
            </g>
            <g transform="matrix(1,0,0,1,-2.27374e-13,124.531)">
                <path d="M0,53.365L2560,53.365" style="fill:none;stroke:rgb(116,116,116);stroke-width:0.42px;"/>
            </g>
            <g transform="matrix(1,0,0,1,-2.27374e-13,133.531)">
                <path d="M0,53.365L2560,53.365" style="fill:none;stroke:rgb(116,116,116);stroke-width:0.42px;"/>
            </g>
            <g transform="matrix(1,0,0,1,-2.27374e-13,141.531)">
                <path d="M0,53.365L2560,53.365" style="fill:none;stroke:rgb(116,116,116);stroke-width:0.42px;"/>
            </g>
            <g transform="matrix(1,0,0,1,-2.27374e-13,150.531)">
                <path d="M0,53.365L2560,53.365" style="fill:none;stroke:rgb(116,116,116);stroke-width:0.42px;"/>
            </g>
            <g transform="matrix(1,0,0,1,-2.27374e-13,158.531)">
                <path d="M0,53.365L2560,53.365" style="fill:none;stroke:rgb(116,116,116);stroke-width:0.42px;"/>
            </g>
            <g transform="matrix(1,0,0,1,-2.27374e-13,167.531)">
                <path d="M0,53.365L2560,53.365" style="fill:none;stroke:rgb(116,116,116);stroke-width:0.42px;"/>
            </g>
            <g transform="matrix(1,0,0,1,-2.27374e-13,175.531)">
                <path d="M0,53.365L2560,53.365" style="fill:none;stroke:rgb(116,116,116);stroke-width:0.42px;"/>
            </g>
            <g transform="matrix(1,0,0,1,-2.27374e-13,184.531)">
                <path d="M0,53.365L2560,53.365" style="fill:none;stroke:rgb(116,116,116);stroke-width:0.42px;"/>
            </g>
            <g transform="matrix(1,0,0,1,-2.27374e-13,192.531)">
                <path d="M0,53.365L2560,53.365" style="fill:none;stroke:rgb(116,116,116);stroke-width:0.42px;"/>
            </g>
            <g transform="matrix(1,0,0,1,-2.27374e-13,201.531)">
                <path d="M0,53.365L2560,53.365" style="fill:none;stroke:rgb(116,116,116);stroke-width:0.42px;"/>
            </g>
            <g transform="matrix(1,0,0,1,-2.27374e-13,209.531)">
                <path d="M0,53.365L2560,53.365" style="fill:none;stroke:rgb(116,116,116);stroke-width:0.42px;"/>
            </g>
            <g transform="matrix(1,0,0,1,-2.27374e-13,218.531)">
                <path d="M0,53.365L2560,53.365" style="fill:none;stroke:rgb(116,116,116);stroke-width:0.42px;"/>
            </g>
            <g transform="matrix(1,0,0,1,-2.27374e-13,226.531)">
                <path d="M0,53.365L2560,53.365" style="fill:none;stroke:rgb(116,116,116);stroke-width:0.42px;"/>
            </g>
            <g transform="matrix(1,0,0,1,-2.27374e-13,235.531)">
                <path d="M0,53.365L2560,53.365" style="fill:none;stroke:rgb(116,116,116);stroke-width:0.42px;"/>
            </g>
            <g transform="matrix(1,0,0,1,-2.27374e-13,243.531)">
                <path d="M0,53.365L2560,53.365" style="fill:none;stroke:rgb(116,116,116);stroke-width:0.42px;"/>
            </g>
            <g transform="matrix(1,0,0,1,-2.27374e-13,252.531)">
                <path d="M0,53.365L2560,53.365" style="fill:none;stroke:rgb(116,116,116);stroke-width:0.42px;"/>
            </g>
            <g transform="matrix(1,0,0,1,-2.27374e-13,260.531)">
                <path d="M0,53.365L2560,53.365" style="fill:none;stroke:rgb(116,116,116);stroke-width:0.42px;"/>
            </g>
            <g transform="matrix(1,0,0,1,-2.27374e-13,269.531)">
                <path d="M0,53.365L2560,53.365" style="fill:none;stroke:rgb(116,116,116);stroke-width:0.42px;"/>
            </g>
            <g transform="matrix(1,0,0,1,-2.27374e-13,277.531)">
                <path d="M0,53.365L2560,53.365" style="fill:none;stroke:rgb(116,116,116);stroke-width:0.42px;"/>
            </g>
            <g transform="matrix(1,0,0,1,-2.27374e-13,286.531)">
                <path d="M0,53.365L2560,53.365" style="fill:none;stroke:rgb(116,116,116);stroke-width:0.42px;"/>
            </g>
            <g transform="matrix(1,0,0,1,-2.27374e-13,294.531)">
                <path d="M0,53.365L2560,53.365" style="fill:none;stroke:rgb(116,116,116);stroke-width:0.42px;"/>
            </g>
            <g transform="matrix(1,0,0,1,-2.27374e-13,303.531)">
                <path d="M0,53.365L2560,53.365" style="fill:none;stroke:rgb(116,116,116);stroke-width:0.42px;"/>
            </g>
            <g transform="matrix(1,0,0,1,-2.27374e-13,311.531)">
                <path d="M0,53.365L2560,53.365" style="fill:none;stroke:rgb(116,116,116);stroke-width:0.42px;"/>
            </g>
            <g transform="matrix(1,0,0,1,-2.27374e-13,320.531)">
                <path d="M0,53.365L2560,53.365" style="fill:none;stroke:rgb(116,116,116);stroke-width:0.42px;"/>
            </g>
            <g transform="matrix(1,0,0,1,-2.27374e-13,328.531)">
                <path d="M0,53.365L2560,53.365" style="fill:none;stroke:rgb(116,116,116);stroke-width:0.42px;"/>
            </g>
            <g transform="matrix(1,0,0,1,-2.27374e-13,337.531)">
                <path d="M0,53.365L2560,53.365" style="fill:none;stroke:rgb(116,116,116);stroke-width:0.42px;"/>
            </g>
            <g transform="matrix(1,0,0,1,-2.27374e-13,345.531)">
                <path d="M0,53.365L2560,53.365" style="fill:none;stroke:rgb(116,116,116);stroke-width:0.42px;"/>
            </g>
            <g transform="matrix(1,0,0,1,-2.27374e-13,354.531)">
                <path d="M0,53.365L2560,53.365" style="fill:none;stroke:rgb(116,116,116);stroke-width:0.42px;"/>
            </g>
            <g transform="matrix(1,0,0,1,-2.27374e-13,362.531)">
                <path d="M0,53.365L2560,53.365" style="fill:none;stroke:rgb(116,116,116);stroke-width:0.42px;"/>
            </g>
            <g transform="matrix(1,0,0,1,-2.27374e-13,371.531)">
                <path d="M0,53.365L2560,53.365" style="fill:none;stroke:rgb(116,116,116);stroke-width:0.42px;"/>
            </g>
            <g transform="matrix(1,0,0,1,-2.27374e-13,379.531)">
                <path d="M0,53.365L2560,53.365" style="fill:none;stroke:rgb(116,116,116);stroke-width:0.42px;"/>
            </g>
            <g transform="matrix(1,0,0,1,-2.27374e-13,388.531)">
                <path d="M0,53.365L2560,53.365" style="fill:none;stroke:rgb(116,116,116);stroke-width:0.42px;"/>
            </g>
            <g transform="matrix(1,0,0,1,-2.27374e-13,396.531)">
                <path d="M0,53.365L2560,53.365" style="fill:none;stroke:rgb(116,116,116);stroke-width:0.42px;"/>
            </g>
            <g transform="matrix(1,0,0,1,-2.27374e-13,405.531)">
                <path d="M0,53.365L2560,53.365" style="fill:none;stroke:rgb(116,116,116);stroke-width:0.42px;"/>
            </g>
            <g transform="matrix(1,0,0,1,-2.27374e-13,413.531)">
                <path d="M0,53.365L2560,53.365" style="fill:none;stroke:rgb(116,116,116);stroke-width:0.42px;"/>
            </g>
            <g transform="matrix(1,0,0,1,-2.27374e-13,422.531)">
                <path d="M0,53.365L2560,53.365" style="fill:none;stroke:rgb(116,116,116);stroke-width:0.42px;"/>
            </g>
            <g transform="matrix(1,0,0,1,-2.27374e-13,430.531)">
                <path d="M0,53.365L2560,53.365" style="fill:none;stroke:rgb(116,116,116);stroke-width:0.42px;"/>
            </g>
            <g transform="matrix(1,0,0,1,-2.27374e-13,439.531)">
                <path d="M0,53.365L2560,53.365" style="fill:none;stroke:rgb(116,116,116);stroke-width:0.42px;"/>
            </g>
            <g transform="matrix(1,0,0,1,-2.27374e-13,447.531)">
                <path d="M0,53.365L2560,53.365" style="fill:none;stroke:rgb(116,116,116);stroke-width:0.42px;"/>
            </g>
            <g transform="matrix(1,0,0,1,-2.27374e-13,456.531)">
                <path d="M0,53.365L2560,53.365" style="fill:none;stroke:rgb(116,116,116);stroke-width:0.42px;"/>
            </g>
            <g transform="matrix(1,0,0,1,-2.27374e-13,464.531)">
                <path d="M0,53.365L2560,53.365" style="fill:none;stroke:rgb(116,116,116);stroke-width:0.42px;"/>
            </g>
            <g transform="matrix(1,0,0,1,-2.27374e-13,473.531)">
                <path d="M0,53.365L2560,53.365" style="fill:none;stroke:rgb(116,116,116);stroke-width:0.42px;"/>
            </g>
            <g transform="matrix(1,0,0,1,-2.27374e-13,481.531)">
                <path d="M0,53.365L2560,53.365" style="fill:none;stroke:rgb(116,116,116);stroke-width:0.42px;"/>
            </g>
            <g transform="matrix(1,0,0,1,-2.27374e-13,490.531)">
                <path d="M0,53.365L2560,53.365" style="fill:none;stroke:rgb(116,116,116);stroke-width:0.42px;"/>
            </g>
            <g transform="matrix(1,0,0,1,-2.27374e-13,498.531)">
                <path d="M0,53.365L2560,53.365" style="fill:none;stroke:rgb(116,116,116);stroke-width:0.42px;"/>
            </g>
            <g transform="matrix(1,0,0,1,-2.27374e-13,507.531)">
                <path d="M0,53.365L2560,53.365" style="fill:none;stroke:rgb(116,116,116);stroke-width:0.42px;"/>
            </g>
            <g transform="matrix(1,0,0,1,-2.27374e-13,515.531)">
                <path d="M0,53.365L2560,53.365" style="fill:none;stroke:rgb(116,116,116);stroke-width:0.42px;"/>
            </g>
            <g transform="matrix(1,0,0,1,-2.27374e-13,524.531)">
                <path d="M0,53.365L2560,53.365" style="fill:none;stroke:rgb(116,116,116);stroke-width:0.42px;"/>
            </g>
            <g transform="matrix(1,0,0,1,-2.27374e-13,532.531)">
                <path d="M0,53.365L2560,53.365" style="fill:none;stroke:rgb(116,116,116);stroke-width:0.42px;"/>
            </g>
            <g transform="matrix(1,0,0,1,-2.27374e-13,541.531)">
                <path d="M0,53.365L2560,53.365" style="fill:none;stroke:rgb(116,116,116);stroke-width:0.42px;"/>
            </g>
            <g transform="matrix(1,0,0,1,-2.27374e-13,549.531)">
                <path d="M0,53.365L2560,53.365" style="fill:none;stroke:rgb(116,116,116);stroke-width:0.42px;"/>
            </g>
            <g transform="matrix(1,0,0,1,-2.27374e-13,558.531)">
                <path d="M0,53.365L2560,53.365" style="fill:none;stroke:rgb(116,116,116);stroke-width:0.42px;"/>
            </g>
            <g transform="matrix(1,0,0,1,-2.27374e-13,566.531)">
                <path d="M0,53.365L2560,53.365" style="fill:none;stroke:rgb(116,116,116);stroke-width:0.42px;"/>
            </g>
            <g transform="matrix(1,0,0,1,-2.27374e-13,575.531)">
                <path d="M0,53.365L2560,53.365" style="fill:none;stroke:rgb(116,116,116);stroke-width:0.42px;"/>
            </g>
            <g transform="matrix(1,0,0,1,-2.27374e-13,583.531)">
                <path d="M0,53.365L2560,53.365" style="fill:none;stroke:rgb(116,116,116);stroke-width:0.42px;"/>
            </g>
            <g transform="matrix(1,0,0,1,-2.27374e-13,592.531)">
                <path d="M0,53.365L2560,53.365" style="fill:none;stroke:rgb(116,116,116);stroke-width:0.42px;"/>
            </g>
            <g transform="matrix(1,0,0,1,-2.27374e-13,600.531)">
                <path d="M0,53.365L2560,53.365" style="fill:none;stroke:rgb(116,116,116);stroke-width:0.42px;"/>
            </g>
            <g transform="matrix(1,0,0,1,-2.27374e-13,609.531)">
                <path d="M0,53.365L2560,53.365" style="fill:none;stroke:rgb(116,116,116);stroke-width:0.42px;"/>
            </g>
            <g transform="matrix(1,0,0,1,-2.27374e-13,617.531)">
                <path d="M0,53.365L2560,53.365" style="fill:none;stroke:rgb(116,116,116);stroke-width:0.42px;"/>
            </g>
            <g transform="matrix(1,0,0,1,-2.27374e-13,626.531)">
                <path d="M0,53.365L2560,53.365" style="fill:none;stroke:rgb(116,116,116);stroke-width:0.42px;"/>
            </g>
            <g transform="matrix(1,0,0,1,-2.27374e-13,634.531)">
                <path d="M0,53.365L2560,53.365" style="fill:none;stroke:rgb(116,116,116);stroke-width:0.42px;"/>
            </g>
            <g transform="matrix(1,0,0,1,-2.27374e-13,643.531)">
                <path d="M0,53.365L2560,53.365" style="fill:none;stroke:rgb(116,116,116);stroke-width:0.42px;"/>
            </g>
            <g transform="matrix(1,0,0,1,-2.27374e-13,651.531)">
                <path d="M0,53.365L2560,53.365" style="fill:none;stroke:rgb(116,116,116);stroke-width:0.42px;"/>
            </g>
            <g transform="matrix(1,0,0,1,-2.27374e-13,660.531)">
                <path d="M0,53.365L2560,53.365" style="fill:none;stroke:rgb(116,116,116);stroke-width:0.42px;"/>
            </g>
            <g transform="matrix(1,0,0,1,-2.27374e-13,668.531)">
                <path d="M0,53.365L2560,53.365" style="fill:none;stroke:rgb(116,116,116);stroke-width:0.42px;"/>
            </g>
            <g transform="matrix(1,0,0,1,-2.27374e-13,677.531)">
                <path d="M0,53.365L2560,53.365" style="fill:none;stroke:rgb(116,116,116);stroke-width:0.42px;"/>
            </g>
            <g transform="matrix(1,0,0,1,-2.27374e-13,685.531)">
                <path d="M0,53.365L2560,53.365" style="fill:none;stroke:rgb(116,116,116);stroke-width:0.42px;"/>
            </g>
            <g transform="matrix(1,0,0,1,-2.27374e-13,694.531)">
                <path d="M0,53.365L2560,53.365" style="fill:none;stroke:rgb(116,116,116);stroke-width:0.42px;"/>
            </g>
            <g transform="matrix(1,0,0,1,-2.27374e-13,702.531)">
                <path d="M0,53.365L2560,53.365" style="fill:none;stroke:rgb(116,116,116);stroke-width:0.42px;"/>
            </g>
            <g transform="matrix(1,0,0,1,-2.27374e-13,711.531)">
                <path d="M0,53.365L2560,53.365" style="fill:none;stroke:rgb(116,116,116);stroke-width:0.42px;"/>
            </g>
            <g transform="matrix(1,0,0,1,-2.27374e-13,719.531)">
                <path d="M0,53.365L2560,53.365" style="fill:none;stroke:rgb(116,116,116);stroke-width:0.42px;"/>
            </g>
            <g transform="matrix(1,0,0,1,-2.27374e-13,728.531)">
                <path d="M0,53.365L2560,53.365" style="fill:none;stroke:rgb(116,116,116);stroke-width:0.42px;"/>
            </g>
            <g transform="matrix(1,0,0,1,-2.27374e-13,736.531)">
                <path d="M0,53.365L2560,53.365" style="fill:none;stroke:rgb(116,116,116);stroke-width:0.42px;"/>
            </g>
            <g transform="matrix(1,0,0,1,-2.27374e-13,745.531)">
                <path d="M0,53.365L2560,53.365" style="fill:none;stroke:rgb(116,116,116);stroke-width:0.42px;"/>
            </g>
            <g transform="matrix(1,0,0,1,-2.27374e-13,753.531)">
                <path d="M0,53.365L2560,53.365" style="fill:none;stroke:rgb(116,116,116);stroke-width:0.42px;"/>
            </g>
            <g transform="matrix(1,0,0,1,-2.27374e-13,762.531)">
                <path d="M0,53.365L2560,53.365" style="fill:none;stroke:rgb(116,116,116);stroke-width:0.42px;"/>
            </g>
            <g transform="matrix(1,0,0,1,-2.27374e-13,770.531)">
                <path d="M0,53.365L2560,53.365" style="fill:none;stroke:rgb(116,116,116);stroke-width:0.42px;"/>
            </g>
            <g transform="matrix(1,0,0,1,-2.27374e-13,779.531)">
                <path d="M0,53.365L2560,53.365" style="fill:none;stroke:rgb(116,116,116);stroke-width:0.42px;"/>
            </g>
            <g transform="matrix(1,0,0,1,-2.27374e-13,787.531)">
                <path d="M0,53.365L2560,53.365" style="fill:none;stroke:rgb(116,116,116);stroke-width:0.42px;"/>
            </g>
            <g transform="matrix(1,0,0,1,-2.27374e-13,796.531)">
                <path d="M0,53.365L2560,53.365" style="fill:none;stroke:rgb(116,116,116);stroke-width:0.42px;"/>
            </g>
            <g transform="matrix(1,0,0,1,-2.27374e-13,804.531)">
                <path d="M0,53.365L2560,53.365" style="fill:none;stroke:rgb(116,116,116);stroke-width:0.42px;"/>
            </g>
            <g transform="matrix(1,0,0,1,-2.27374e-13,813.531)">
                <path d="M0,53.365L2560,53.365" style="fill:none;stroke:rgb(116,116,116);stroke-width:0.42px;"/>
            </g>
            <g transform="matrix(1,0,0,1,-2.27374e-13,821.531)">
                <path d="M0,53.365L2560,53.365" style="fill:none;stroke:rgb(116,116,116);stroke-width:0.42px;"/>
            </g>
            <g transform="matrix(1,0,0,1,-2.27374e-13,830.531)">
                <path d="M0,53.365L2560,53.365" style="fill:none;stroke:rgb(116,116,116);stroke-width:0.42px;"/>
            </g>
            <g transform="matrix(1,0,0,1,-2.27374e-13,838.531)">
                <path d="M0,53.365L2560,53.365" style="fill:none;stroke:rgb(116,116,116);stroke-width:0.42px;"/>
            </g>
            <g transform="matrix(1,0,0,1,-2.27374e-13,847.531)">
                <path d="M0,53.365L2560,53.365" style="fill:none;stroke:rgb(116,116,116);stroke-width:0.42px;"/>
            </g>
            <g transform="matrix(1,0,0,1,-2.27374e-13,855.531)">
                <path d="M0,53.365L2560,53.365" style="fill:none;stroke:rgb(116,116,116);stroke-width:0.42px;"/>
            </g>
            <g transform="matrix(1,0,0,1,-2.27374e-13,864.531)">
                <path d="M0,53.365L2560,53.365" style="fill:none;stroke:rgb(116,116,116);stroke-width:0.42px;"/>
            </g>
            <g transform="matrix(1,0,0,1,-2.27374e-13,872.531)">
                <path d="M0,53.365L2560,53.365" style="fill:none;stroke:rgb(116,116,116);stroke-width:0.42px;"/>
            </g>
            <g transform="matrix(1,0,0,1,-2.27374e-13,881.531)">
                <path d="M0,53.365L2560,53.365" style="fill:none;stroke:rgb(116,116,116);stroke-width:0.42px;"/>
            </g>
            <g transform="matrix(1,0,0,1,-2.27374e-13,889.531)">
                <path d="M0,53.365L2560,53.365" style="fill:none;stroke:rgb(116,116,116);stroke-width:0.42px;"/>
            </g>
            <g transform="matrix(1,0,0,1,-2.27374e-13,898.531)">
                <path d="M0,53.365L2560,53.365" style="fill:none;stroke:rgb(116,116,116);stroke-width:0.42px;"/>
            </g>
            <g transform="matrix(1,0,0,1,-2.27374e-13,906.531)">
                <path d="M0,53.365L2560,53.365" style="fill:none;stroke:rgb(116,116,116);stroke-width:0.42px;"/>
            </g>
            <g transform="matrix(1,0,0,1,-2.27374e-13,915.531)">
                <path d="M0,53.365L2560,53.365" style="fill:none;stroke:rgb(116,116,116);stroke-width:0.42px;"/>
            </g>
            <g transform="matrix(1,0,0,1,-2.27374e-13,923.531)">
                <path d="M0,53.365L2560,53.365" style="fill:none;stroke:rgb(116,116,116);stroke-width:0.42px;"/>
            </g>
            <g transform="matrix(1,0,0,1,-2.27374e-13,932.531)">
                <path d="M0,53.365L2560,53.365" style="fill:none;stroke:rgb(116,116,116);stroke-width:0.42px;"/>
            </g>
            <g transform="matrix(1,0,0,1,-2.27374e-13,940.531)">
                <path d="M0,53.365L2560,53.365" style="fill:none;stroke:rgb(116,116,116);stroke-width:0.42px;"/>
            </g>
            <g transform="matrix(1,0,0,1,-2.27374e-13,949.531)">
                <path d="M0,53.365L2560,53.365" style="fill:none;stroke:rgb(116,116,116);stroke-width:0.42px;"/>
            </g>
            <g transform="matrix(1,0,0,1,-2.27374e-13,957.531)">
                <path d="M0,53.365L2560,53.365" style="fill:none;stroke:rgb(116,116,116);stroke-width:0.42px;"/>
            </g>
            <g transform="matrix(1,0,0,1,-2.27374e-13,966.531)">
                <path d="M0,53.365L2560,53.365" style="fill:none;stroke:rgb(116,116,116);stroke-width:0.42px;"/>
            </g>
            <g transform="matrix(1,0,0,1,-2.27374e-13,974.531)">
                <path d="M0,53.365L2560,53.365" style="fill:none;stroke:rgb(116,116,116);stroke-width:0.42px;"/>
            </g>
            <g transform="matrix(1,0,0,1,-2.27374e-13,983.531)">
                <path d="M0,53.365L2560,53.365" style="fill:none;stroke:rgb(116,116,116);stroke-width:0.42px;"/>
            </g>
            <g transform="matrix(1,0,0,1,-2.27374e-13,991.531)">
                <path d="M0,53.365L2560,53.365" style="fill:none;stroke:rgb(116,116,116);stroke-width:0.42px;"/>
            </g>
            <g transform="matrix(1,0,0,1,-2.27374e-13,1000.53)">
                <path d="M0,53.365L2560,53.365" style="fill:none;stroke:rgb(116,116,116);stroke-width:0.42px;"/>
            </g>
            <g transform="matrix(1,0,0,1,-2.27374e-13,1008.53)">
                <path d="M0,53.365L2560,53.365" style="fill:none;stroke:rgb(116,116,116);stroke-width:0.42px;"/>
            </g>
            <g transform="matrix(1,0,0,1,-2.27374e-13,1017.53)">
                <path d="M0,53.365L2560,53.365" style="fill:none;stroke:rgb(116,116,116);stroke-width:0.42px;"/>
            </g>
            <g transform="matrix(1,0,0,1,-2.27374e-13,1025.53)">
                <path d="M0,53.365L2560,53.365" style="fill:none;stroke:rgb(116,116,116);stroke-width:0.42px;"/>
            </g>
            <g transform="matrix(1,0,0,1,-2.27374e-13,1034.53)">
                <path d="M0,53.365L2560,53.365" style="fill:none;stroke:rgb(116,116,116);stroke-width:0.42px;"/>
            </g>
            <g transform="matrix(1,0,0,1,-2.27374e-13,1042.53)">
                <path d="M0,53.365L2560,53.365" style="fill:none;stroke:rgb(116,116,116);stroke-width:0.42px;"/>
            </g>
            <g transform="matrix(1,0,0,1,-2.27374e-13,1051.53)">
                <path d="M0,53.365L2560,53.365" style="fill:none;stroke:rgb(116,116,116);stroke-width:0.42px;"/>
            </g>
            <g transform="matrix(1,0,0,1,-2.27374e-13,1059.53)">
                <path d="M0,53.365L2560,53.365" style="fill:none;stroke:rgb(116,116,116);stroke-width:0.42px;"/>
            </g>
            <g transform="matrix(1,0,0,1,-2.27374e-13,1068.53)">
                <path d="M0,53.365L2560,53.365" style="fill:none;stroke:rgb(116,116,116);stroke-width:0.42px;"/>
            </g>
            <g transform="matrix(1,0,0,1,-2.27374e-13,1076.53)">
                <path d="M0,53.365L2560,53.365" style="fill:none;stroke:rgb(116,116,116);stroke-width:0.42px;"/>
            </g>
            <g transform="matrix(1,0,0,1,-2.27374e-13,1085.53)">
                <path d="M0,53.365L2560,53.365" style="fill:none;stroke:rgb(116,116,116);stroke-width:0.42px;"/>
            </g>
            <g transform="matrix(1,0,0,1,-2.27374e-13,1093.53)">
                <path d="M0,53.365L2560,53.365" style="fill:none;stroke:rgb(116,116,116);stroke-width:0.42px;"/>
            </g>
            <g transform="matrix(1,0,0,1,-2.27374e-13,1102.53)">
                <path d="M0,53.365L2560,53.365" style="fill:none;stroke:rgb(116,116,116);stroke-width:0.42px;"/>
            </g>
            <g transform="matrix(1,0,0,1,-2.27374e-13,1110.53)">
                <path d="M0,53.365L2560,53.365" style="fill:none;stroke:rgb(116,116,116);stroke-width:0.42px;"/>
            </g>
            <g transform="matrix(1,0,0,1,-2.27374e-13,1119.53)">
                <path d="M0,53.365L2560,53.365" style="fill:none;stroke:rgb(116,116,116);stroke-width:0.42px;"/>
            </g>
            <g transform="matrix(1,0,0,1,-2.27374e-13,1127.53)">
                <path d="M0,53.365L2560,53.365" style="fill:none;stroke:rgb(116,116,116);stroke-width:0.42px;"/>
            </g>
            <g transform="matrix(1,0,0,1,-2.27374e-13,1136.53)">
                <path d="M0,53.365L2560,53.365" style="fill:none;stroke:rgb(116,116,116);stroke-width:0.42px;"/>
            </g>
            <g transform="matrix(1,0,0,1,-2.27374e-13,1144.53)">
                <path d="M0,53.365L2560,53.365" style="fill:none;stroke:rgb(116,116,116);stroke-width:0.42px;"/>
            </g>
            <g transform="matrix(1,0,0,1,-2.27374e-13,1153.53)">
                <path d="M0,53.365L2560,53.365" style="fill:none;stroke:rgb(116,116,116);stroke-width:0.42px;"/>
            </g>
            <g transform="matrix(1,0,0,1,-2.27374e-13,1161.53)">
                <path d="M0,53.365L2560,53.365" style="fill:none;stroke:rgb(116,116,116);stroke-width:0.42px;"/>
            </g>
            <g transform="matrix(1,0,0,1,-2.27374e-13,1170.53)">
                <path d="M0,53.365L2560,53.365" style="fill:none;stroke:rgb(116,116,116);stroke-width:0.42px;"/>
            </g>
            <g transform="matrix(1,0,0,1,-2.27374e-13,1178.53)">
                <path d="M0,53.365L2560,53.365" style="fill:none;stroke:rgb(116,116,116);stroke-width:0.42px;"/>
            </g>
            <g transform="matrix(1,0,0,1,-2.27374e-13,1187.53)">
                <path d="M0,53.365L2560,53.365" style="fill:none;stroke:rgb(116,116,116);stroke-width:0.42px;"/>
            </g>
            <g transform="matrix(1,0,0,1,-2.27374e-13,1195.53)">
                <path d="M0,53.365L2560,53.365" style="fill:none;stroke:rgb(116,116,116);stroke-width:0.42px;"/>
            </g>
            <g transform="matrix(1,0,0,1,-2.27374e-13,1204.53)">
                <path d="M0,53.365L2560,53.365" style="fill:none;stroke:rgb(116,116,116);stroke-width:0.42px;"/>
            </g>
            <g transform="matrix(1,0,0,1,-2.27374e-13,1212.53)">
                <path d="M0,53.365L2560,53.365" style="fill:none;stroke:rgb(116,116,116);stroke-width:0.42px;"/>
            </g>
            <g transform="matrix(1,0,0,1,-2.27374e-13,1221.53)">
                <path d="M0,53.365L2560,53.365" style="fill:none;stroke:rgb(116,116,116);stroke-width:0.42px;"/>
            </g>
            <g transform="matrix(1,0,0,1,-2.27374e-13,1229.53)">
                <path d="M0,53.365L2560,53.365" style="fill:none;stroke:rgb(116,116,116);stroke-width:0.42px;"/>
            </g>
            <g transform="matrix(1,0,0,1,-2.27374e-13,1238.53)">
                <path d="M0,53.365L2560,53.365" style="fill:none;stroke:rgb(116,116,116);stroke-width:0.42px;"/>
            </g>
            <g transform="matrix(1,0,0,1,-2.27374e-13,1246.53)">
                <path d="M0,53.365L2560,53.365" style="fill:none;stroke:rgb(116,116,116);stroke-width:0.42px;"/>
            </g>
            <g transform="matrix(1,0,0,1,-2.27374e-13,1255.53)">
                <path d="M0,53.365L2560,53.365" style="fill:none;stroke:rgb(116,116,116);stroke-width:0.42px;"/>
            </g>
            <g transform="matrix(1,0,0,1,-2.27374e-13,1263.53)">
                <path d="M0,53.365L2560,53.365" style="fill:none;stroke:rgb(116,116,116);stroke-width:0.42px;"/>
            </g>
            <g transform="matrix(1,0,0,1,-2.27374e-13,1272.53)">
                <path d="M0,53.365L2560,53.365" style="fill:none;stroke:rgb(116,116,116);stroke-width:0.42px;"/>
            </g>
            <g transform="matrix(1,0,0,1,-2.27374e-13,1280.53)">
                <path d="M0,53.365L2560,53.365" style="fill:none;stroke:rgb(116,116,116);stroke-width:0.42px;"/>
            </g>
            <g transform="matrix(1,0,0,1,-2.27374e-13,1289.53)">
                <path d="M0,53.365L2560,53.365" style="fill:none;stroke:rgb(116,116,116);stroke-width:0.42px;"/>
            </g>
            <g transform="matrix(1,0,0,1,-2.27374e-13,1297.53)">
                <path d="M0,53.365L2560,53.365" style="fill:none;stroke:rgb(116,116,116);stroke-width:0.42px;"/>
            </g>
            <g transform="matrix(1,0,0,1,-2.27374e-13,1306.53)">
                <path d="M0,53.365L2560,53.365" style="fill:none;stroke:rgb(116,116,116);stroke-width:0.42px;"/>
            </g>
            <g transform="matrix(1,0,0,1,-2.27374e-13,1314.53)">
                <path d="M0,53.365L2560,53.365" style="fill:none;stroke:rgb(116,116,116);stroke-width:0.42px;"/>
            </g>
            <g transform="matrix(1,0,0,1,-2.27374e-13,1323.53)">
                <path d="M0,53.365L2560,53.365" style="fill:none;stroke:rgb(116,116,116);stroke-width:0.42px;"/>
            </g>
            <g transform="matrix(1,0,0,1,-2.27374e-13,1331.53)">
                <path d="M0,53.365L2560,53.365" style="fill:none;stroke:rgb(116,116,116);stroke-width:0.42px;"/>
            </g>
            <g transform="matrix(1,0,0,1,-2.27374e-13,1340.53)">
                <path d="M0,53.365L2560,53.365" style="fill:none;stroke:rgb(116,116,116);stroke-width:0.42px;"/>
            </g>
            <g transform="matrix(1,0,0,1,-2.27374e-13,1348.53)">
                <path d="M0,53.365L2560,53.365" style="fill:none;stroke:rgb(116,116,116);stroke-width:0.42px;"/>
            </g>
            <g transform="matrix(1,0,0,1,-2.27374e-13,1357.53)">
                <path d="M0,53.365L2560,53.365" style="fill:none;stroke:rgb(116,116,116);stroke-width:0.42px;"/>
            </g>
            <g transform="matrix(1,0,0,1,-2.27374e-13,1365.53)">
                <path d="M0,53.365L2560,53.365" style="fill:none;stroke:rgb(116,116,116);stroke-width:0.42px;"/>
            </g>
            <g transform="matrix(1,0,0,1,-2.27374e-13,1374.53)">
                <path d="M0,53.365L2560,53.365" style="fill:none;stroke:rgb(116,116,116);stroke-width:0.42px;"/>
            </g>
            <g transform="matrix(1,0,0,1,-2.27374e-13,1382.53)">
                <path d="M0,53.365L2560,53.365" style="fill:none;stroke:rgb(116,116,116);stroke-width:0.42px;"/>
            </g>
        </g>
    </g>
</svg>
