<?xml version="1.0" encoding="UTF-8" standalone="no"?>
<!DOCTYPE svg PUBLIC "-//W3C//DTD SVG 1.1//EN" "http://www.w3.org/Graphics/SVG/1.1/DTD/svg11.dtd">
<svg width="100%" height="100%" viewBox="0 0 2561 1440" version="1.1" xmlns="http://www.w3.org/2000/svg" xmlns:xlink="http://www.w3.org/1999/xlink" xml:space="preserve" xmlns:serif="http://www.serif.com/" style="fill-rule:evenodd;clip-rule:evenodd;stroke-linecap:round;stroke-linejoin:round;stroke-miterlimit:1.5;">
    <g transform="matrix(1,0,0,1,0.208333,0)">
        <rect x="0" y="0" width="2560" height="1440" style="fill:rgb(187,187,187);"/>
        <g id="pokeball" transform="matrix(0.810516,-0.467952,0.467952,0.810516,135.726,735.431)">
            <g transform="matrix(1.03128,0,0,1.03128,13.0597,-45.0445)">
                <circle cx="1228.51" cy="741.839" r="698.161" style="fill:rgb(223,223,223);stroke:rgb(87,87,87);stroke-width:19.43px;"/>
            </g>
            <g transform="matrix(1.03128,0,0,1.03128,13.0597,-45.0445)">
                <circle cx="1228.51" cy="741.839" r="698.161" style="fill:rgb(223,223,223);stroke:rgb(87,87,87);stroke-width:19.43px;"/>
            </g>
            <g transform="matrix(-1,-1.22465e-16,1.22465e-16,-1,2560,1440)">
                <path d="M560,720C560,490.161 2000,490.161 2000,720C2000,1236.39 1520,1440 1280,1440C1021.25,1440 560,1234.48 560,720Z" style="fill:rgb(255,93,78);stroke:rgb(87,87,87);stroke-width:20.03px;"/>
            </g>
            <path d="M560.24,701.25C565.193,701.25 798.455,838.409 1280,838.409C1785.57,838.409 1987.74,701.25 1999.76,701.25C2002.33,701.25 1992.11,836.589 1990.29,838.409C1919.61,909.089 1560.51,958.748 1280,958.748C1043.24,958.748 659.798,928.499 569.708,838.409C565.583,834.284 558.343,701.25 560.24,701.25Z" style="fill:rgb(87,87,87);stroke:rgb(87,87,87);stroke-width:20.03px;"/>
            <g transform="matrix(1.20985,0,0,1.20985,-322.995,-195.924)">
                <circle cx="1324.96" cy="898.711" r="157.152" style="fill:rgb(223,223,223);stroke:rgb(87,87,87);stroke-width:16.56px;"/>
            </g>
            <g transform="matrix(0.682661,0,0,0.682661,375.503,277.864)">
                <circle cx="1324.96" cy="898.711" r="157.152" style="fill:rgb(223,223,223);stroke:rgb(87,87,87);stroke-width:29.35px;"/>
            </g>
        </g>
        <g transform="matrix(2.70598,0,0,2.70598,973.754,717.39)">
            <g transform="matrix(1,0,0,1,-236.5,-250)">
                <g transform="matrix(1,0,0,1,-12.4992,-0.537293)">
                    <g id="leaves">
                        <path d="M19.961,1.057C21.095,2.19 60.815,25.495 62.391,65.803C63.185,86.1 64.01,108.154 62.391,126.8C61.651,135.327 62.245,147.624 69.121,157.656C87.881,185.028 102.841,193.945 114.306,202.336C115.112,202.925 126.018,208.001 137.913,208.001C138.701,208.001 155.071,174.359 155.132,173.574C156.024,161.985 150.515,122.311 137.913,101.095C130.812,89.142 117.433,70.786 105.632,53.41C96.076,39.341 87.924,25.728 82.065,18.146C77.611,12.382 65.799,9.166 62.391,8.632C51.785,6.969 19.547,0.643 19.961,1.057Z" style="fill:rgb(140,196,71);stroke:black;stroke-width:1px;"/>
                        <path d="M273.384,21.387C273.099,21.387 264.66,24.907 254.102,26.888C247.989,28.035 236.418,28.865 231.417,30.17C212.507,35.104 190.967,39.017 168.133,60.786C156.17,72.192 147.575,85.731 138.85,100.805C138.529,101.36 155.206,142.743 155.206,172.128C155.206,172.984 177.517,138.283 189.167,123.989C206.336,102.924 231.054,92.159 231.417,91.377C239.05,74.892 249.572,61.489 260.832,48.738C271.779,36.343 273.878,21.387 273.384,21.387Z" style="fill:rgb(140,196,71);stroke:black;stroke-width:1px;"/>
                        <path d="M412.956,123.989C413.437,123.989 426.542,93.077 425.416,56.473C425.233,50.532 417.732,44.24 412.956,43.092C408.39,41.995 370.389,44.832 323.411,56.473C286.585,65.598 249.982,83.555 230.336,91.591C214.136,98.216 195.783,115.185 177.656,139.329C162.747,159.185 137.814,207.36 137.814,208.358C137.814,208.483 147.674,211.099 157.392,214.808C167.521,218.674 177.526,223.637 177.656,223.62C204.047,220.146 283.437,203.292 296.163,187.51C321.537,156.044 369.673,92.177 401.428,74.952C403.878,73.623 412.475,123.989 412.956,123.989Z" style="fill:rgb(140,196,71);stroke:black;stroke-width:1px;"/>
                        <path d="M484.724,177.069C478.618,170.92 446.213,147.982 412.956,138.035C390.203,131.23 343.27,129.804 342.054,131.019C327.723,145.35 299.709,182.588 299.874,182.753C299.967,182.846 320.438,175.432 342.054,172.144C358.689,169.613 376.003,170.744 385.228,172.144C391.508,173.097 413.805,187.521 416.624,187.521C419.444,187.521 436.272,176.974 449.595,174.927C460.945,173.184 485.188,177.536 484.724,177.069Z" style="fill:rgb(140,196,71);stroke:black;stroke-width:1px;"/>
                        <path d="M477.4,239.929C477.911,239.418 465.79,210.606 444.045,198.14C441.311,196.573 431.204,194.583 416.624,187.521C404.31,181.557 392.176,174.18 385.393,172.287C370.206,168.049 352.116,171.11 337.962,172.816C324.872,174.393 312.106,177.554 300.46,182.45C299.462,182.87 295.327,193.703 268.085,202.194C258.318,205.238 238.046,211.558 219.076,215.819C198.312,220.483 178.162,223.113 177.655,223.621C177.148,224.128 194.507,236.415 201.971,240.812C205.217,242.724 218.884,248.754 222.44,250C236.958,255.086 268.762,267.322 289.078,271.328C307.173,274.896 326.583,279.014 344.341,274.035C367.778,267.464 407.519,237.583 429.696,231.899C445.316,227.895 476.889,240.44 477.4,239.929Z" style="fill:rgb(140,196,71);stroke:black;stroke-width:1px;"/>
                    </g>
                    <g id="leavesShadows">
                        <path d="M298.627,185.555C384.196,190.072 319.3,260.776 281.62,269.13C281.515,269.153 276.353,267.846 269.379,265.687C261.968,263.392 252.483,260.154 243.899,257.197C232.197,253.166 222.333,249.403 222.191,249.34C222.002,249.256 217.653,245.346 212.424,241.355C208.129,238.076 202.793,235.253 199.7,233.288C193.694,229.472 180.22,223.558 181.475,223.366C196.376,221.096 228.847,214.318 256.148,206.351C259.263,205.442 261.4,204.791 263.492,204.149C264.562,203.82 265.645,203.509 266.791,203.134C277.514,199.619 283.822,196.545 287.972,194.174C292.434,191.623 294.333,189.885 296.047,188.286C297.844,186.609 298.546,185.551 298.627,185.555Z" style="fill:rgb(100,153,73);"/>
                        <path d="M334.972,139.329C349.904,136.342 364.472,154.735 361.96,169.753C361.929,169.937 343.487,170.995 329.195,173.619C312.821,176.625 301.606,181.732 301.467,181.573C301.205,181.273 333.441,139.635 334.972,139.329Z" style="fill:rgb(100,153,73);"/>
                        <path d="M208.635,106.219C240.707,92.866 329.022,91.335 256.233,205.19C255.826,205.826 241.888,209.913 225.975,213.776C205.884,218.652 182.527,222.909 179.792,222.771C179.148,222.739 167.701,217.848 156.778,213.634C147.529,210.065 139.016,207.464 139.016,206.918C139.016,206.372 150.777,182.632 165.837,158.177C167.804,154.982 169.695,151.665 171.852,148.414C175.344,143.153 179.231,137.988 183.014,133.214C194.66,118.518 206.201,107.232 208.635,106.219Z" style="fill:rgb(100,153,73);"/>
                        <path d="M139.412,100.869C143.567,96.714 202.513,65.33 205.181,107.589C205.206,107.989 191.786,119.835 180.287,134.935C167.322,151.958 155.999,173.903 155.68,173.584C155.56,173.464 155.566,170.692 155.196,166.331C154.625,159.583 153.353,149.023 150.861,138.528C146.476,120.061 139.087,101.194 139.412,100.869Z" style="fill:rgb(100,153,73);"/>
                        <path d="M80.116,171.353C79.87,170.863 77.211,139.875 83.53,108.085C89.069,80.221 115.35,76.252 137.552,101.24C137.816,101.538 138.892,103.246 140.143,106.315C141.767,110.297 143.97,117.101 146.477,125.534C148.729,133.112 151.304,142.016 152.596,151.167C153.578,158.119 155.538,166.64 154.625,173.517C154.438,174.929 153.821,176.209 153.391,177.46C153.056,178.436 140.642,200.802 139.723,203.367C139.643,203.59 137.789,207.102 137.552,207.096C136.727,207.073 130.246,204.715 123.905,203.367C119.05,202.335 114.529,202.552 114.327,202.351C113.833,201.856 106.632,196.694 99.137,190.461C90.859,183.578 82.151,175.414 80.116,171.353Z" style="fill:rgb(100,153,73);"/>
                    </g>
                    <g id="body">
                        <path id="body1" serif:id="body" d="M114.306,202.336C92.739,205.323 62.645,217.27 45.761,232.221C28.877,247.171 13.151,266.363 13,292.039C12.82,322.63 44.073,363.971 73.672,378.313C78.662,380.731 83.243,383.036 87.577,385.189C101.06,391.89 112.148,397.117 125.721,399.682C143.656,403.071 168.533,401.922 181.28,398.649C218.589,389.068 235.893,367.062 241.642,341.997C249.914,305.939 235.876,266.872 221.831,249.777C204.527,228.716 127.494,200.509 114.306,202.336Z" style="fill:rgb(90,144,204);stroke:black;stroke-width:1px;"/>
                        <path d="M204.04,235.828C203.56,237.635 220.851,293.746 197.839,331.829C181.491,358.884 160.889,361.646 125.177,357.589C102.836,355.05 69.255,336.157 52.33,331.829C46.845,330.426 38.82,330.001 35.344,331.829C33.33,332.889 29.422,337.925 29.785,338.694C33.386,346.303 55.857,368.329 68.683,375.068C85.673,383.996 101.818,393.66 124.398,399.035C144.168,403.742 182.496,399.212 192.175,395.329C221.398,383.606 238.114,362.182 241.959,338.694C250.195,288.383 225.165,252.597 220.996,248.427C220.9,248.331 216.906,244.611 213.588,242.216C209.94,239.583 204.083,235.667 204.04,235.828Z" style="fill:rgb(44,91,161);"/>
                    </g>
                    <g id="leftFoot">
                        <path id="leftFoot1" serif:id="leftFoot" d="M73.797,379.425C68.253,379.425 53.838,401.506 51.876,409.799C48.378,424.579 42.291,448.616 52.659,468.068C57.616,477.369 75.142,478.838 84.113,471.286C97.666,459.877 105.83,444.364 110.688,428.836C111.408,426.534 113.792,399.977 110.688,396.109C110.358,395.698 100.644,391.12 91.55,387.152C82.623,383.257 74.316,379.425 73.797,379.425Z" style="fill:rgb(90,144,204);stroke:black;stroke-width:1px;"/>
                        <path d="M52.546,409.956C52.549,410.585 65.958,410.736 75.029,419.808C92.431,437.21 91.321,463.6 91.777,463.102C100.939,453.086 107.937,440.028 110.203,428.642C112.2,418.61 112.443,404.495 110.649,396.076C110.623,395.951 101.126,392.089 91.777,387.823C83.044,383.838 74.44,379.425 73.797,379.425C68.482,379.425 52.527,404.101 52.546,409.956Z" style="fill:rgb(44,91,161);"/>
                    </g>
                    <g id="rightFoot">
                        <path id="rightFoot1" serif:id="rightFoot" d="M181.28,398.649C187.751,405.12 193,426.575 192.067,441.167C191.099,456.308 184.801,481.925 175.472,489.495C158.187,503.521 147.891,502.578 137.096,487.796C130.345,478.551 128.849,455.797 131.086,437.076C132.669,423.84 141.11,403.711 143.902,401.573C144.388,401.201 154.412,401.37 163.202,400.636C172.607,399.85 180.817,398.186 181.28,398.649Z" style="fill:rgb(90,144,204);stroke:black;stroke-width:1px;"/>
                        <path d="M143.902,401.573C141.016,404.459 137.054,415.294 134.437,424.278C132.617,430.526 131.541,435.86 131.541,437.082C131.541,437.334 152.386,435.787 162.524,450.392C172.029,464.087 176.408,488.031 176.802,487.656C184.508,480.336 192.666,452.182 191.564,433.743C190.524,416.354 184.471,402.242 180.798,398.569C180.624,398.394 170.671,400.461 161.147,401.251C152.424,401.975 144.062,401.413 143.902,401.573Z" style="fill:rgb(44,91,161);"/>
                    </g>
                    <g id="mouth">
                        <path id="mouth1" serif:id="mouth" d="M99.898,272.503C99.966,272.402 105.391,275.526 112.242,277.379C119.039,279.218 127.281,279.801 127.321,279.915C128.718,283.883 124.066,297.527 119.088,307.328C117.645,310.169 115.929,312.425 114.629,314.353C109.474,321.996 98.421,321.429 97.187,310.622C96.551,305.045 99.697,272.8 99.898,272.503Z" style="fill:rgb(66,0,0);stroke:black;stroke-width:1px;"/>
                        <path id="tongue" d="M108.549,276.758C109.31,276.645 113.228,277.811 117.308,278.507C122.192,279.341 127.295,279.755 127.321,279.915C128.335,286.181 119.766,309.349 114.629,314.353C109.759,319.097 101.729,323.809 97.187,310.622C96.684,309.16 98.687,288.009 99.179,286.543C100.615,282.261 105.971,277.138 108.549,276.758Z" style="fill:rgb(255,126,184);stroke:black;stroke-width:1px;"/>
                    </g>
                    <g id="leftEye">
                        <path id="leftEye1" serif:id="leftEye" d="M83.34,242.426C78.583,242.445 76.299,246.777 76.371,250C76.427,252.503 77.452,257.027 83.34,257.449C86.405,257.668 90.299,254.755 90.386,250C90.432,247.497 88.789,242.404 83.34,242.426Z" style="fill:rgb(210,80,108);stroke:black;stroke-width:1px;"/>
                        <g id="leftEye2" serif:id="leftEye" transform="matrix(0.839657,0,0,0.734578,13.7395,64.8938)">
                            <path d="M83.34,242.426C78.583,242.445 76.299,246.777 76.371,250C76.427,252.503 77.452,257.027 83.34,257.449C86.405,257.668 90.299,254.755 90.386,250C90.432,247.497 88.789,242.404 83.34,242.426Z" style="fill:rgb(223,223,223);"/>
                        </g>
                    </g>
                    <g id="rightEye">
                        <path id="rightEye1" serif:id="rightEye" d="M163.007,267.935C158.288,267.744 155.452,271.385 155.132,274.887C154.863,277.833 157.051,282.745 161.577,282.79C165.946,282.833 168.653,280.376 169.262,276.758C169.892,273.021 168.371,268.153 163.007,267.935Z" style="fill:rgb(210,80,108);stroke:black;stroke-width:1px;"/>
                        <g id="rightEye2" serif:id="rightEye" transform="matrix(0.868073,0,0,0.793435,21.5483,55.7592)">
                            <path d="M163.007,267.935C158.288,267.744 155.452,271.385 155.132,274.887C154.863,277.833 157.051,282.745 161.577,282.79C165.946,282.833 168.653,280.376 169.262,276.758C169.892,273.021 168.371,268.153 163.007,267.935Z" style="fill:rgb(223,223,223);"/>
                        </g>
                    </g>
                    <g id="leavesDetails">
                        <path d="M199.7,233.288C226.772,223.595 267.472,207.127 324.356,202.251C338.734,201.019 370.525,206.62 424.541,208.187C432.362,208.413 445.526,217.627 452.107,222.234" style="fill:none;stroke:black;stroke-width:1px;"/>
                        <path d="M307.89,172.079C336.437,163.432 403.8,144.87 453.055,164.727" style="fill:none;stroke:black;stroke-width:1px;"/>
                        <path d="M154.001,212.596C225.787,123.336 293.849,81.017 389.865,56.417" style="fill:none;stroke:black;stroke-width:1px;"/>
                        <path d="M153.406,152.813C174.783,101.119 208.002,50.255 256.121,35.463" style="fill:none;stroke:black;stroke-width:1px;"/>
                        <path d="M138.247,207.222C138.598,206.35 139.3,204.604 139.328,203.224C139.582,190.886 114.041,77.745 56.332,15.129" style="fill:none;stroke:black;stroke-width:1px;"/>
                        <path d="M401.571,74.931C403.852,73.001 407.594,70.727 412.113,68.79" style="fill:none;stroke:black;stroke-width:1px;"/>
                    </g>
                </g>
            </g>
        </g>
        <g transform="matrix(1.10916,0,0,1.08927,-342.869,-72.6308)">
            <g transform="matrix(300,0,0,300,360.136,605.606)">
                <path d="M-0.04,-0.776C-0.001,-0.789 0.036,-0.801 0.071,-0.812C0.106,-0.823 0.142,-0.834 0.181,-0.844C0.219,-0.853 0.256,-0.861 0.291,-0.867C0.318,-0.872 0.346,-0.874 0.374,-0.874C0.421,-0.874 0.452,-0.873 0.467,-0.87C0.489,-0.866 0.51,-0.859 0.53,-0.85C0.549,-0.84 0.567,-0.828 0.582,-0.812C0.598,-0.796 0.61,-0.777 0.62,-0.756C0.624,-0.747 0.626,-0.738 0.626,-0.728C0.626,-0.692 0.606,-0.647 0.566,-0.593C0.526,-0.54 0.486,-0.493 0.446,-0.454C0.406,-0.414 0.376,-0.385 0.356,-0.368L0.444,-0.06L0.316,0.032L0.092,-0.608C0.091,-0.608 0.088,-0.605 0.083,-0.599C0.077,-0.592 0.07,-0.584 0.061,-0.574C0.052,-0.565 0.046,-0.558 0.044,-0.556C0.043,-0.556 0.04,-0.563 0.034,-0.577C0.029,-0.591 0.022,-0.611 0.013,-0.635C0.004,-0.66 -0.006,-0.688 -0.017,-0.719C-0.029,-0.749 -0.036,-0.768 -0.04,-0.776ZM0.276,-0.64L0.316,-0.496C0.336,-0.517 0.361,-0.545 0.391,-0.58C0.421,-0.616 0.436,-0.641 0.436,-0.657C0.436,-0.663 0.433,-0.667 0.428,-0.668C0.414,-0.671 0.399,-0.673 0.385,-0.673C0.342,-0.673 0.306,-0.662 0.276,-0.64Z" style="fill:rgb(255,202,57);fill-rule:nonzero;stroke:rgb(42,87,147);stroke-width:0.06px;stroke-linecap:butt;stroke-miterlimit:2;"/>
            </g>
            <g transform="matrix(300,0,0,300,525.078,605.606)">
                <path d="M0.443,-0.529C0.466,-0.516 0.485,-0.5 0.499,-0.479C0.514,-0.458 0.524,-0.434 0.531,-0.408C0.538,-0.382 0.541,-0.354 0.541,-0.326C0.541,-0.303 0.539,-0.28 0.535,-0.258C0.532,-0.236 0.527,-0.216 0.52,-0.198C0.514,-0.18 0.506,-0.165 0.497,-0.152C0.477,-0.121 0.455,-0.095 0.431,-0.073C0.408,-0.051 0.384,-0.033 0.359,-0.019C0.335,-0.006 0.311,0.004 0.287,0.01C0.263,0.017 0.239,0.02 0.216,0.02C0.188,0.02 0.162,0.016 0.137,0.007C0.112,-0.002 0.091,-0.013 0.073,-0.027C0.044,-0.051 0.022,-0.083 0.005,-0.124C-0.011,-0.165 -0.019,-0.208 -0.019,-0.254C-0.019,-0.332 0.004,-0.396 0.049,-0.444C0.088,-0.485 0.128,-0.516 0.169,-0.537C0.21,-0.558 0.253,-0.569 0.296,-0.569C0.321,-0.569 0.346,-0.566 0.369,-0.559C0.393,-0.553 0.417,-0.543 0.443,-0.529ZM0.414,-0.447C0.409,-0.422 0.397,-0.4 0.378,-0.381C0.36,-0.362 0.342,-0.353 0.324,-0.353C0.315,-0.353 0.308,-0.355 0.301,-0.36C0.291,-0.368 0.286,-0.381 0.286,-0.401C0.286,-0.416 0.291,-0.431 0.301,-0.445C0.311,-0.46 0.327,-0.472 0.348,-0.48C0.327,-0.48 0.306,-0.476 0.286,-0.468C0.266,-0.46 0.249,-0.449 0.234,-0.436C0.22,-0.423 0.209,-0.409 0.2,-0.393C0.191,-0.377 0.187,-0.361 0.187,-0.344C0.187,-0.314 0.201,-0.29 0.229,-0.272C0.255,-0.255 0.28,-0.247 0.303,-0.247C0.326,-0.247 0.347,-0.255 0.365,-0.27C0.383,-0.286 0.396,-0.306 0.406,-0.33C0.415,-0.354 0.42,-0.378 0.42,-0.402C0.42,-0.418 0.418,-0.433 0.414,-0.447Z" style="fill:rgb(255,202,57);fill-rule:nonzero;stroke:rgb(42,87,147);stroke-width:0.06px;stroke-linecap:butt;stroke-miterlimit:2;"/>
            </g>
            <g transform="matrix(300,0,0,300,675.078,605.606)">
                <path d="M-0.04,-0.816L0.208,-0.92L0.244,-0.356L0.448,-0.468L0.66,-0.436L0.384,-0.224L0.644,-0.028L0.656,0.168L0.272,-0.108L0.284,0.132L0.052,0.136L0.008,-0.712L-0.064,-0.696L-0.04,-0.816Z" style="fill:rgb(255,202,57);fill-rule:nonzero;stroke:rgb(42,87,147);stroke-width:0.06px;stroke-linecap:butt;stroke-miterlimit:2;"/>
            </g>
            <g transform="matrix(300,0,0,300,840.019,605.606)">
                <path d="M0.45,-0.27L0.568,-0.128C0.558,-0.101 0.536,-0.076 0.501,-0.053C0.465,-0.03 0.423,-0.012 0.375,0.001C0.326,0.014 0.278,0.021 0.229,0.021C0.186,0.021 0.148,0.015 0.114,0.004C0.08,-0.007 0.054,-0.025 0.036,-0.048C0.005,-0.088 -0.011,-0.138 -0.011,-0.2C-0.011,-0.249 -0.002,-0.297 0.015,-0.344C0.033,-0.392 0.052,-0.425 0.072,-0.444C0.096,-0.466 0.121,-0.485 0.149,-0.5C0.177,-0.515 0.206,-0.526 0.236,-0.534C0.266,-0.541 0.297,-0.545 0.328,-0.545C0.369,-0.545 0.409,-0.538 0.446,-0.525C0.483,-0.512 0.516,-0.493 0.544,-0.468L0.276,-0.148C0.3,-0.148 0.322,-0.153 0.344,-0.163C0.365,-0.173 0.384,-0.187 0.402,-0.205C0.42,-0.224 0.436,-0.245 0.45,-0.27ZM0.315,-0.384C0.299,-0.392 0.283,-0.396 0.266,-0.396C0.249,-0.396 0.232,-0.392 0.215,-0.385C0.199,-0.378 0.187,-0.37 0.18,-0.36C0.16,-0.334 0.15,-0.305 0.15,-0.274C0.15,-0.263 0.151,-0.252 0.153,-0.241C0.156,-0.231 0.16,-0.216 0.165,-0.198L0.315,-0.384Z" style="fill:rgb(255,202,57);fill-rule:nonzero;stroke:rgb(42,87,147);stroke-width:0.06px;stroke-linecap:butt;stroke-miterlimit:2;"/>
            </g>
            <g transform="matrix(300,0,0,300,990.019,605.606)">
                <path d="M0.442,-0.56C0.526,-0.587 0.589,-0.6 0.63,-0.6C0.662,-0.6 0.69,-0.593 0.714,-0.58C0.743,-0.563 0.774,-0.535 0.808,-0.495C0.841,-0.455 0.862,-0.418 0.87,-0.384C0.887,-0.314 0.896,-0.254 0.896,-0.202C0.896,-0.175 0.894,-0.146 0.891,-0.116C0.887,-0.086 0.882,-0.047 0.874,0L0.67,0.012C0.671,-0.004 0.671,-0.028 0.671,-0.058C0.671,-0.186 0.653,-0.294 0.618,-0.384C0.612,-0.4 0.604,-0.412 0.595,-0.421C0.586,-0.431 0.579,-0.435 0.572,-0.435C0.565,-0.435 0.561,-0.43 0.561,-0.42C0.561,-0.414 0.562,-0.409 0.563,-0.405C0.565,-0.4 0.568,-0.393 0.57,-0.384C0.587,-0.313 0.596,-0.253 0.596,-0.202C0.596,-0.177 0.595,-0.151 0.591,-0.124C0.588,-0.097 0.582,-0.056 0.574,0L0.37,0.012C0.371,-0.004 0.371,-0.028 0.371,-0.058C0.371,-0.186 0.353,-0.295 0.318,-0.384C0.314,-0.394 0.31,-0.405 0.308,-0.417C0.306,-0.428 0.304,-0.434 0.303,-0.434C0.302,-0.434 0.298,-0.426 0.292,-0.411C0.286,-0.396 0.279,-0.38 0.272,-0.364C0.267,-0.352 0.263,-0.339 0.26,-0.325C0.257,-0.31 0.255,-0.294 0.253,-0.275C0.252,-0.257 0.251,-0.236 0.251,-0.211C0.251,-0.161 0.254,-0.097 0.26,-0.02L0.02,0.008C0.016,-0.021 0.013,-0.049 0.009,-0.078C0.006,-0.106 0.003,-0.132 0.002,-0.156C0,-0.181 -0.001,-0.207 -0.001,-0.235C-0.001,-0.247 0,-0.264 0.001,-0.287L-0.008,-0.572L0.184,-0.596L0.212,-0.564C0.263,-0.581 0.305,-0.589 0.338,-0.589C0.374,-0.589 0.409,-0.579 0.442,-0.56Z" style="fill:rgb(255,202,57);fill-rule:nonzero;stroke:rgb(42,87,147);stroke-width:0.06px;stroke-linecap:butt;stroke-miterlimit:2;"/>
            </g>
            <g transform="matrix(300,0,0,300,1245.05,605.606)">
                <path d="M0.443,-0.529C0.466,-0.516 0.485,-0.5 0.499,-0.479C0.514,-0.458 0.524,-0.434 0.531,-0.408C0.538,-0.382 0.541,-0.354 0.541,-0.326C0.541,-0.303 0.539,-0.28 0.535,-0.258C0.532,-0.236 0.527,-0.216 0.52,-0.198C0.514,-0.18 0.506,-0.165 0.497,-0.152C0.477,-0.121 0.455,-0.095 0.431,-0.073C0.408,-0.051 0.384,-0.033 0.359,-0.019C0.335,-0.006 0.311,0.004 0.287,0.01C0.263,0.017 0.239,0.02 0.216,0.02C0.188,0.02 0.162,0.016 0.137,0.007C0.112,-0.002 0.091,-0.013 0.073,-0.027C0.044,-0.051 0.022,-0.083 0.005,-0.124C-0.011,-0.165 -0.019,-0.208 -0.019,-0.254C-0.019,-0.332 0.004,-0.396 0.049,-0.444C0.088,-0.485 0.128,-0.516 0.169,-0.537C0.21,-0.558 0.253,-0.569 0.296,-0.569C0.321,-0.569 0.346,-0.566 0.369,-0.559C0.393,-0.553 0.417,-0.543 0.443,-0.529ZM0.414,-0.447C0.409,-0.422 0.397,-0.4 0.378,-0.381C0.36,-0.362 0.342,-0.353 0.324,-0.353C0.315,-0.353 0.308,-0.355 0.301,-0.36C0.291,-0.368 0.286,-0.381 0.286,-0.401C0.286,-0.416 0.291,-0.431 0.301,-0.445C0.311,-0.46 0.327,-0.472 0.348,-0.48C0.327,-0.48 0.306,-0.476 0.286,-0.468C0.266,-0.46 0.249,-0.449 0.234,-0.436C0.22,-0.423 0.209,-0.409 0.2,-0.393C0.191,-0.377 0.187,-0.361 0.187,-0.344C0.187,-0.314 0.201,-0.29 0.229,-0.272C0.255,-0.255 0.28,-0.247 0.303,-0.247C0.326,-0.247 0.347,-0.255 0.365,-0.27C0.383,-0.286 0.396,-0.306 0.406,-0.33C0.415,-0.354 0.42,-0.378 0.42,-0.402C0.42,-0.418 0.418,-0.433 0.414,-0.447Z" style="fill:rgb(255,202,57);fill-rule:nonzero;stroke:rgb(42,87,147);stroke-width:0.06px;stroke-linecap:butt;stroke-miterlimit:2;"/>
            </g>
            <g transform="matrix(300,0,0,300,1395.05,605.606)">
                <path d="M0.212,-0.564C0.248,-0.576 0.279,-0.585 0.305,-0.592C0.331,-0.598 0.356,-0.601 0.38,-0.601C0.412,-0.601 0.44,-0.594 0.464,-0.58C0.493,-0.563 0.524,-0.535 0.558,-0.495C0.591,-0.455 0.612,-0.418 0.62,-0.384C0.637,-0.314 0.646,-0.254 0.646,-0.202C0.646,-0.175 0.644,-0.146 0.641,-0.116C0.637,-0.086 0.632,-0.047 0.624,0L0.42,0.012C0.421,-0.004 0.421,-0.028 0.421,-0.058C0.421,-0.186 0.403,-0.294 0.368,-0.384C0.354,-0.417 0.341,-0.434 0.328,-0.434C0.311,-0.434 0.292,-0.411 0.272,-0.364C0.267,-0.352 0.263,-0.339 0.26,-0.325C0.257,-0.31 0.255,-0.294 0.253,-0.275C0.252,-0.257 0.251,-0.236 0.251,-0.211C0.251,-0.161 0.254,-0.097 0.26,-0.02L0.02,0.008C0.016,-0.021 0.013,-0.049 0.009,-0.078C0.006,-0.106 0.003,-0.132 0.002,-0.156C0,-0.181 -0.001,-0.207 -0.001,-0.235C-0.001,-0.247 0,-0.264 0.001,-0.287L-0.008,-0.572L0.184,-0.596L0.212,-0.564Z" style="fill:rgb(255,202,57);fill-rule:nonzero;stroke:rgb(42,87,147);stroke-width:0.06px;stroke-linecap:butt;stroke-miterlimit:2;"/>
            </g>
            <g transform="matrix(300,0,0,300,1725.08,605.606)">
                <path d="M0.674,-0.616L0.455,-0.473C0.44,-0.51 0.391,-0.528 0.308,-0.528C0.289,-0.528 0.27,-0.514 0.25,-0.487C0.23,-0.46 0.22,-0.43 0.22,-0.396C0.222,-0.37 0.229,-0.346 0.243,-0.322C0.257,-0.298 0.281,-0.286 0.316,-0.284C0.342,-0.284 0.369,-0.291 0.398,-0.305C0.427,-0.319 0.451,-0.347 0.472,-0.389C0.473,-0.387 0.487,-0.374 0.513,-0.353C0.538,-0.331 0.565,-0.309 0.592,-0.287C0.618,-0.265 0.638,-0.249 0.651,-0.239C0.626,-0.18 0.593,-0.133 0.553,-0.1C0.512,-0.066 0.469,-0.043 0.425,-0.031C0.38,-0.018 0.336,-0.012 0.292,-0.012C0.23,-0.012 0.176,-0.024 0.13,-0.047C0.083,-0.07 0.045,-0.11 0.015,-0.167C-0.015,-0.223 -0.034,-0.3 -0.04,-0.396C-0.041,-0.405 -0.041,-0.42 -0.041,-0.439C-0.041,-0.487 -0.035,-0.533 -0.024,-0.578C-0.013,-0.622 0.005,-0.662 0.031,-0.698C0.057,-0.733 0.092,-0.762 0.137,-0.785C0.182,-0.807 0.236,-0.819 0.3,-0.82C0.342,-0.82 0.384,-0.815 0.425,-0.805C0.466,-0.795 0.503,-0.781 0.538,-0.763C0.572,-0.746 0.601,-0.724 0.626,-0.698C0.65,-0.673 0.666,-0.646 0.674,-0.616Z" style="fill:rgb(255,202,57);fill-rule:nonzero;stroke:rgb(42,87,147);stroke-width:0.06px;stroke-linecap:butt;stroke-miterlimit:2;"/>
            </g>
            <g transform="matrix(300,0,0,300,1905.11,605.606)">
                <path d="M0.443,-0.529C0.466,-0.516 0.485,-0.5 0.499,-0.479C0.514,-0.458 0.524,-0.434 0.531,-0.408C0.538,-0.382 0.541,-0.354 0.541,-0.326C0.541,-0.303 0.539,-0.28 0.535,-0.258C0.532,-0.236 0.527,-0.216 0.52,-0.198C0.514,-0.18 0.506,-0.165 0.497,-0.152C0.477,-0.121 0.455,-0.095 0.431,-0.073C0.408,-0.051 0.384,-0.033 0.359,-0.019C0.335,-0.006 0.311,0.004 0.287,0.01C0.263,0.017 0.239,0.02 0.216,0.02C0.188,0.02 0.162,0.016 0.137,0.007C0.112,-0.002 0.091,-0.013 0.073,-0.027C0.044,-0.051 0.022,-0.083 0.005,-0.124C-0.011,-0.165 -0.019,-0.208 -0.019,-0.254C-0.019,-0.332 0.004,-0.396 0.049,-0.444C0.088,-0.485 0.128,-0.516 0.169,-0.537C0.21,-0.558 0.253,-0.569 0.296,-0.569C0.321,-0.569 0.346,-0.566 0.369,-0.559C0.393,-0.553 0.417,-0.543 0.443,-0.529ZM0.414,-0.447C0.409,-0.422 0.397,-0.4 0.378,-0.381C0.36,-0.362 0.342,-0.353 0.324,-0.353C0.315,-0.353 0.308,-0.355 0.301,-0.36C0.291,-0.368 0.286,-0.381 0.286,-0.401C0.286,-0.416 0.291,-0.431 0.301,-0.445C0.311,-0.46 0.327,-0.472 0.348,-0.48C0.327,-0.48 0.306,-0.476 0.286,-0.468C0.266,-0.46 0.249,-0.449 0.234,-0.436C0.22,-0.423 0.209,-0.409 0.2,-0.393C0.191,-0.377 0.187,-0.361 0.187,-0.344C0.187,-0.314 0.201,-0.29 0.229,-0.272C0.255,-0.255 0.28,-0.247 0.303,-0.247C0.326,-0.247 0.347,-0.255 0.365,-0.27C0.383,-0.286 0.396,-0.306 0.406,-0.33C0.415,-0.354 0.42,-0.378 0.42,-0.402C0.42,-0.418 0.418,-0.433 0.414,-0.447Z" style="fill:rgb(255,202,57);fill-rule:nonzero;stroke:rgb(42,87,147);stroke-width:0.06px;stroke-linecap:butt;stroke-miterlimit:2;"/>
            </g>
            <g transform="matrix(300,0,0,300,2055.11,605.606)">
                <path d="M0.324,-0.478C0.306,-0.476 0.289,-0.47 0.271,-0.461C0.254,-0.452 0.239,-0.441 0.227,-0.429C0.214,-0.416 0.205,-0.403 0.198,-0.388C0.191,-0.373 0.187,-0.359 0.187,-0.344C0.187,-0.315 0.201,-0.291 0.229,-0.272C0.254,-0.255 0.279,-0.247 0.304,-0.247C0.309,-0.247 0.316,-0.248 0.324,-0.249L0.324,-0.353C0.315,-0.353 0.308,-0.355 0.301,-0.36C0.291,-0.368 0.286,-0.383 0.286,-0.405C0.286,-0.437 0.299,-0.461 0.324,-0.478ZM0.32,-0.952L0.524,-1.044L0.536,-0.383C0.539,-0.366 0.54,-0.347 0.54,-0.325C0.54,-0.306 0.539,-0.292 0.538,-0.283L0.544,0.016L0.324,0.028L0.324,-0.002C0.288,0.013 0.252,0.02 0.216,0.02C0.188,0.02 0.162,0.016 0.137,0.007C0.112,-0.001 0.091,-0.013 0.073,-0.027C0.044,-0.051 0.022,-0.083 0.005,-0.124C-0.011,-0.165 -0.019,-0.208 -0.019,-0.254C-0.019,-0.332 0.004,-0.396 0.049,-0.444C0.088,-0.485 0.128,-0.516 0.17,-0.537C0.211,-0.558 0.254,-0.569 0.297,-0.569C0.309,-0.569 0.318,-0.569 0.324,-0.568L0.32,-0.952Z" style="fill:rgb(255,202,57);fill-rule:nonzero;stroke:rgb(42,87,147);stroke-width:0.06px;stroke-linecap:butt;stroke-miterlimit:2;"/>
            </g>
            <g transform="matrix(300,0,0,300,2205.11,605.606)">
                <path d="M0.45,-0.27L0.568,-0.128C0.558,-0.101 0.536,-0.076 0.501,-0.053C0.465,-0.03 0.423,-0.012 0.375,0.001C0.326,0.014 0.278,0.021 0.229,0.021C0.186,0.021 0.148,0.015 0.114,0.004C0.08,-0.007 0.054,-0.025 0.036,-0.048C0.005,-0.088 -0.011,-0.138 -0.011,-0.2C-0.011,-0.249 -0.002,-0.297 0.015,-0.344C0.033,-0.392 0.052,-0.425 0.072,-0.444C0.096,-0.466 0.121,-0.485 0.149,-0.5C0.177,-0.515 0.206,-0.526 0.236,-0.534C0.266,-0.541 0.297,-0.545 0.328,-0.545C0.369,-0.545 0.409,-0.538 0.446,-0.525C0.483,-0.512 0.516,-0.493 0.544,-0.468L0.276,-0.148C0.3,-0.148 0.322,-0.153 0.344,-0.163C0.365,-0.173 0.384,-0.187 0.402,-0.205C0.42,-0.224 0.436,-0.245 0.45,-0.27ZM0.315,-0.384C0.299,-0.392 0.283,-0.396 0.266,-0.396C0.249,-0.396 0.232,-0.392 0.215,-0.385C0.199,-0.378 0.187,-0.37 0.18,-0.36C0.16,-0.334 0.15,-0.305 0.15,-0.274C0.15,-0.263 0.151,-0.252 0.153,-0.241C0.156,-0.231 0.16,-0.216 0.165,-0.198L0.315,-0.384Z" style="fill:rgb(255,202,57);fill-rule:nonzero;stroke:rgb(42,87,147);stroke-width:0.06px;stroke-linecap:butt;stroke-miterlimit:2;"/>
            </g>
            <g transform="matrix(300,0,0,300,2355.11,605.606)">
                <path d="M0.35,-0.093L0.232,0.06L-0.02,0.068L0.224,-0.255L-0.052,-0.612L0.216,-0.6L0.35,-0.423L0.484,-0.6L0.752,-0.612L0.476,-0.255L0.72,0.068L0.468,0.06L0.35,-0.093Z" style="fill:rgb(255,202,57);fill-rule:nonzero;stroke:rgb(42,87,147);stroke-width:0.06px;stroke-linecap:butt;stroke-miterlimit:2;"/>
            </g>
        </g>
        <g id="venetionBlinds">
            <g transform="matrix(1,0,0,1,-2.27374e-13,-45.469)">
                <path d="M0,53.365L2560,53.365" style="fill:none;stroke:rgb(116,116,116);stroke-width:0.42px;"/>
            </g>
            <g transform="matrix(1,0,0,1,-2.27374e-13,-36.469)">
                <path d="M0,53.365L2560,53.365" style="fill:none;stroke:rgb(116,116,116);stroke-width:0.42px;"/>
            </g>
            <g transform="matrix(1,0,0,1,-2.27374e-13,-28.469)">
                <path d="M0,53.365L2560,53.365" style="fill:none;stroke:rgb(116,116,116);stroke-width:0.42px;"/>
            </g>
            <g transform="matrix(1,0,0,1,-2.27374e-13,-19.469)">
                <path d="M0,53.365L2560,53.365" style="fill:none;stroke:rgb(116,116,116);stroke-width:0.42px;"/>
            </g>
            <g transform="matrix(1,0,0,1,-2.27374e-13,-11.469)">
                <path d="M0,53.365L2560,53.365" style="fill:none;stroke:rgb(116,116,116);stroke-width:0.42px;"/>
            </g>
            <g transform="matrix(1,0,0,1,-2.27374e-13,-2.46895)">
                <path d="M0,53.365L2560,53.365" style="fill:none;stroke:rgb(116,116,116);stroke-width:0.42px;"/>
            </g>
            <g transform="matrix(1,0,0,1,-2.27374e-13,5.53105)">
                <path d="M0,53.365L2560,53.365" style="fill:none;stroke:rgb(116,116,116);stroke-width:0.42px;"/>
            </g>
            <g transform="matrix(1,0,0,1,-2.27374e-13,14.531)">
                <path d="M0,53.365L2560,53.365" style="fill:none;stroke:rgb(116,116,116);stroke-width:0.42px;"/>
            </g>
            <g transform="matrix(1,0,0,1,-2.27374e-13,22.531)">
                <path d="M0,53.365L2560,53.365" style="fill:none;stroke:rgb(116,116,116);stroke-width:0.42px;"/>
            </g>
            <g transform="matrix(1,0,0,1,-2.27374e-13,31.531)">
                <path d="M0,53.365L2560,53.365" style="fill:none;stroke:rgb(116,116,116);stroke-width:0.42px;"/>
            </g>
            <g transform="matrix(1,0,0,1,-2.27374e-13,39.531)">
                <path d="M0,53.365L2560,53.365" style="fill:none;stroke:rgb(116,116,116);stroke-width:0.42px;"/>
            </g>
            <g transform="matrix(1,0,0,1,-2.27374e-13,48.531)">
                <path d="M0,53.365L2560,53.365" style="fill:none;stroke:rgb(116,116,116);stroke-width:0.42px;"/>
            </g>
            <g transform="matrix(1,0,0,1,-2.27374e-13,56.531)">
                <path d="M0,53.365L2560,53.365" style="fill:none;stroke:rgb(116,116,116);stroke-width:0.42px;"/>
            </g>
            <g transform="matrix(1,0,0,1,-2.27374e-13,65.531)">
                <path d="M0,53.365L2560,53.365" style="fill:none;stroke:rgb(116,116,116);stroke-width:0.42px;"/>
            </g>
            <g transform="matrix(1,0,0,1,-2.27374e-13,73.531)">
                <path d="M0,53.365L2560,53.365" style="fill:none;stroke:rgb(116,116,116);stroke-width:0.42px;"/>
            </g>
            <g transform="matrix(1,0,0,1,-2.27374e-13,82.531)">
                <path d="M0,53.365L2560,53.365" style="fill:none;stroke:rgb(116,116,116);stroke-width:0.42px;"/>
            </g>
            <g transform="matrix(1,0,0,1,-2.27374e-13,90.531)">
                <path d="M0,53.365L2560,53.365" style="fill:none;stroke:rgb(116,116,116);stroke-width:0.42px;"/>
            </g>
            <g transform="matrix(1,0,0,1,-2.27374e-13,99.531)">
                <path d="M0,53.365L2560,53.365" style="fill:none;stroke:rgb(116,116,116);stroke-width:0.42px;"/>
            </g>
            <g transform="matrix(1,0,0,1,-2.27374e-13,107.531)">
                <path d="M0,53.365L2560,53.365" style="fill:none;stroke:rgb(116,116,116);stroke-width:0.42px;"/>
            </g>
            <g transform="matrix(1,0,0,1,-2.27374e-13,116.531)">
                <path d="M0,53.365L2560,53.365" style="fill:none;stroke:rgb(116,116,116);stroke-width:0.42px;"/>
            </g>
            <g transform="matrix(1,0,0,1,-2.27374e-13,124.531)">
                <path d="M0,53.365L2560,53.365" style="fill:none;stroke:rgb(116,116,116);stroke-width:0.42px;"/>
            </g>
            <g transform="matrix(1,0,0,1,-2.27374e-13,133.531)">
                <path d="M0,53.365L2560,53.365" style="fill:none;stroke:rgb(116,116,116);stroke-width:0.42px;"/>
            </g>
            <g transform="matrix(1,0,0,1,-2.27374e-13,141.531)">
                <path d="M0,53.365L2560,53.365" style="fill:none;stroke:rgb(116,116,116);stroke-width:0.42px;"/>
            </g>
            <g transform="matrix(1,0,0,1,-2.27374e-13,150.531)">
                <path d="M0,53.365L2560,53.365" style="fill:none;stroke:rgb(116,116,116);stroke-width:0.42px;"/>
            </g>
            <g transform="matrix(1,0,0,1,-2.27374e-13,158.531)">
                <path d="M0,53.365L2560,53.365" style="fill:none;stroke:rgb(116,116,116);stroke-width:0.42px;"/>
            </g>
            <g transform="matrix(1,0,0,1,-2.27374e-13,167.531)">
                <path d="M0,53.365L2560,53.365" style="fill:none;stroke:rgb(116,116,116);stroke-width:0.42px;"/>
            </g>
            <g transform="matrix(1,0,0,1,-2.27374e-13,175.531)">
                <path d="M0,53.365L2560,53.365" style="fill:none;stroke:rgb(116,116,116);stroke-width:0.42px;"/>
            </g>
            <g transform="matrix(1,0,0,1,-2.27374e-13,184.531)">
                <path d="M0,53.365L2560,53.365" style="fill:none;stroke:rgb(116,116,116);stroke-width:0.42px;"/>
            </g>
            <g transform="matrix(1,0,0,1,-2.27374e-13,192.531)">
                <path d="M0,53.365L2560,53.365" style="fill:none;stroke:rgb(116,116,116);stroke-width:0.42px;"/>
            </g>
            <g transform="matrix(1,0,0,1,-2.27374e-13,201.531)">
                <path d="M0,53.365L2560,53.365" style="fill:none;stroke:rgb(116,116,116);stroke-width:0.42px;"/>
            </g>
            <g transform="matrix(1,0,0,1,-2.27374e-13,209.531)">
                <path d="M0,53.365L2560,53.365" style="fill:none;stroke:rgb(116,116,116);stroke-width:0.42px;"/>
            </g>
            <g transform="matrix(1,0,0,1,-2.27374e-13,218.531)">
                <path d="M0,53.365L2560,53.365" style="fill:none;stroke:rgb(116,116,116);stroke-width:0.42px;"/>
            </g>
            <g transform="matrix(1,0,0,1,-2.27374e-13,226.531)">
                <path d="M0,53.365L2560,53.365" style="fill:none;stroke:rgb(116,116,116);stroke-width:0.42px;"/>
            </g>
            <g transform="matrix(1,0,0,1,-2.27374e-13,235.531)">
                <path d="M0,53.365L2560,53.365" style="fill:none;stroke:rgb(116,116,116);stroke-width:0.42px;"/>
            </g>
            <g transform="matrix(1,0,0,1,-2.27374e-13,243.531)">
                <path d="M0,53.365L2560,53.365" style="fill:none;stroke:rgb(116,116,116);stroke-width:0.42px;"/>
            </g>
            <g transform="matrix(1,0,0,1,-2.27374e-13,252.531)">
                <path d="M0,53.365L2560,53.365" style="fill:none;stroke:rgb(116,116,116);stroke-width:0.42px;"/>
            </g>
            <g transform="matrix(1,0,0,1,-2.27374e-13,260.531)">
                <path d="M0,53.365L2560,53.365" style="fill:none;stroke:rgb(116,116,116);stroke-width:0.42px;"/>
            </g>
            <g transform="matrix(1,0,0,1,-2.27374e-13,269.531)">
                <path d="M0,53.365L2560,53.365" style="fill:none;stroke:rgb(116,116,116);stroke-width:0.42px;"/>
            </g>
            <g transform="matrix(1,0,0,1,-2.27374e-13,277.531)">
                <path d="M0,53.365L2560,53.365" style="fill:none;stroke:rgb(116,116,116);stroke-width:0.42px;"/>
            </g>
            <g transform="matrix(1,0,0,1,-2.27374e-13,286.531)">
                <path d="M0,53.365L2560,53.365" style="fill:none;stroke:rgb(116,116,116);stroke-width:0.42px;"/>
            </g>
            <g transform="matrix(1,0,0,1,-2.27374e-13,294.531)">
                <path d="M0,53.365L2560,53.365" style="fill:none;stroke:rgb(116,116,116);stroke-width:0.42px;"/>
            </g>
            <g transform="matrix(1,0,0,1,-2.27374e-13,303.531)">
                <path d="M0,53.365L2560,53.365" style="fill:none;stroke:rgb(116,116,116);stroke-width:0.42px;"/>
            </g>
            <g transform="matrix(1,0,0,1,-2.27374e-13,311.531)">
                <path d="M0,53.365L2560,53.365" style="fill:none;stroke:rgb(116,116,116);stroke-width:0.42px;"/>
            </g>
            <g transform="matrix(1,0,0,1,-2.27374e-13,320.531)">
                <path d="M0,53.365L2560,53.365" style="fill:none;stroke:rgb(116,116,116);stroke-width:0.42px;"/>
            </g>
            <g transform="matrix(1,0,0,1,-2.27374e-13,328.531)">
                <path d="M0,53.365L2560,53.365" style="fill:none;stroke:rgb(116,116,116);stroke-width:0.42px;"/>
            </g>
            <g transform="matrix(1,0,0,1,-2.27374e-13,337.531)">
                <path d="M0,53.365L2560,53.365" style="fill:none;stroke:rgb(116,116,116);stroke-width:0.42px;"/>
            </g>
            <g transform="matrix(1,0,0,1,-2.27374e-13,345.531)">
                <path d="M0,53.365L2560,53.365" style="fill:none;stroke:rgb(116,116,116);stroke-width:0.42px;"/>
            </g>
            <g transform="matrix(1,0,0,1,-2.27374e-13,354.531)">
                <path d="M0,53.365L2560,53.365" style="fill:none;stroke:rgb(116,116,116);stroke-width:0.42px;"/>
            </g>
            <g transform="matrix(1,0,0,1,-2.27374e-13,362.531)">
                <path d="M0,53.365L2560,53.365" style="fill:none;stroke:rgb(116,116,116);stroke-width:0.42px;"/>
            </g>
            <g transform="matrix(1,0,0,1,-2.27374e-13,371.531)">
                <path d="M0,53.365L2560,53.365" style="fill:none;stroke:rgb(116,116,116);stroke-width:0.42px;"/>
            </g>
            <g transform="matrix(1,0,0,1,-2.27374e-13,379.531)">
                <path d="M0,53.365L2560,53.365" style="fill:none;stroke:rgb(116,116,116);stroke-width:0.42px;"/>
            </g>
            <g transform="matrix(1,0,0,1,-2.27374e-13,388.531)">
                <path d="M0,53.365L2560,53.365" style="fill:none;stroke:rgb(116,116,116);stroke-width:0.42px;"/>
            </g>
            <g transform="matrix(1,0,0,1,-2.27374e-13,396.531)">
                <path d="M0,53.365L2560,53.365" style="fill:none;stroke:rgb(116,116,116);stroke-width:0.42px;"/>
            </g>
            <g transform="matrix(1,0,0,1,-2.27374e-13,405.531)">
                <path d="M0,53.365L2560,53.365" style="fill:none;stroke:rgb(116,116,116);stroke-width:0.42px;"/>
            </g>
            <g transform="matrix(1,0,0,1,-2.27374e-13,413.531)">
                <path d="M0,53.365L2560,53.365" style="fill:none;stroke:rgb(116,116,116);stroke-width:0.42px;"/>
            </g>
            <g transform="matrix(1,0,0,1,-2.27374e-13,422.531)">
                <path d="M0,53.365L2560,53.365" style="fill:none;stroke:rgb(116,116,116);stroke-width:0.42px;"/>
            </g>
            <g transform="matrix(1,0,0,1,-2.27374e-13,430.531)">
                <path d="M0,53.365L2560,53.365" style="fill:none;stroke:rgb(116,116,116);stroke-width:0.42px;"/>
            </g>
            <g transform="matrix(1,0,0,1,-2.27374e-13,439.531)">
                <path d="M0,53.365L2560,53.365" style="fill:none;stroke:rgb(116,116,116);stroke-width:0.42px;"/>
            </g>
            <g transform="matrix(1,0,0,1,-2.27374e-13,447.531)">
                <path d="M0,53.365L2560,53.365" style="fill:none;stroke:rgb(116,116,116);stroke-width:0.42px;"/>
            </g>
            <g transform="matrix(1,0,0,1,-2.27374e-13,456.531)">
                <path d="M0,53.365L2560,53.365" style="fill:none;stroke:rgb(116,116,116);stroke-width:0.42px;"/>
            </g>
            <g transform="matrix(1,0,0,1,-2.27374e-13,464.531)">
                <path d="M0,53.365L2560,53.365" style="fill:none;stroke:rgb(116,116,116);stroke-width:0.42px;"/>
            </g>
            <g transform="matrix(1,0,0,1,-2.27374e-13,473.531)">
                <path d="M0,53.365L2560,53.365" style="fill:none;stroke:rgb(116,116,116);stroke-width:0.42px;"/>
            </g>
            <g transform="matrix(1,0,0,1,-2.27374e-13,481.531)">
                <path d="M0,53.365L2560,53.365" style="fill:none;stroke:rgb(116,116,116);stroke-width:0.42px;"/>
            </g>
            <g transform="matrix(1,0,0,1,-2.27374e-13,490.531)">
                <path d="M0,53.365L2560,53.365" style="fill:none;stroke:rgb(116,116,116);stroke-width:0.42px;"/>
            </g>
            <g transform="matrix(1,0,0,1,-2.27374e-13,498.531)">
                <path d="M0,53.365L2560,53.365" style="fill:none;stroke:rgb(116,116,116);stroke-width:0.42px;"/>
            </g>
            <g transform="matrix(1,0,0,1,-2.27374e-13,507.531)">
                <path d="M0,53.365L2560,53.365" style="fill:none;stroke:rgb(116,116,116);stroke-width:0.42px;"/>
            </g>
            <g transform="matrix(1,0,0,1,-2.27374e-13,515.531)">
                <path d="M0,53.365L2560,53.365" style="fill:none;stroke:rgb(116,116,116);stroke-width:0.42px;"/>
            </g>
            <g transform="matrix(1,0,0,1,-2.27374e-13,524.531)">
                <path d="M0,53.365L2560,53.365" style="fill:none;stroke:rgb(116,116,116);stroke-width:0.42px;"/>
            </g>
            <g transform="matrix(1,0,0,1,-2.27374e-13,532.531)">
                <path d="M0,53.365L2560,53.365" style="fill:none;stroke:rgb(116,116,116);stroke-width:0.42px;"/>
            </g>
            <g transform="matrix(1,0,0,1,-2.27374e-13,541.531)">
                <path d="M0,53.365L2560,53.365" style="fill:none;stroke:rgb(116,116,116);stroke-width:0.42px;"/>
            </g>
            <g transform="matrix(1,0,0,1,-2.27374e-13,549.531)">
                <path d="M0,53.365L2560,53.365" style="fill:none;stroke:rgb(116,116,116);stroke-width:0.42px;"/>
            </g>
            <g transform="matrix(1,0,0,1,-2.27374e-13,558.531)">
                <path d="M0,53.365L2560,53.365" style="fill:none;stroke:rgb(116,116,116);stroke-width:0.42px;"/>
            </g>
            <g transform="matrix(1,0,0,1,-2.27374e-13,566.531)">
                <path d="M0,53.365L2560,53.365" style="fill:none;stroke:rgb(116,116,116);stroke-width:0.42px;"/>
            </g>
            <g transform="matrix(1,0,0,1,-2.27374e-13,575.531)">
                <path d="M0,53.365L2560,53.365" style="fill:none;stroke:rgb(116,116,116);stroke-width:0.42px;"/>
            </g>
            <g transform="matrix(1,0,0,1,-2.27374e-13,583.531)">
                <path d="M0,53.365L2560,53.365" style="fill:none;stroke:rgb(116,116,116);stroke-width:0.42px;"/>
            </g>
            <g transform="matrix(1,0,0,1,-2.27374e-13,592.531)">
                <path d="M0,53.365L2560,53.365" style="fill:none;stroke:rgb(116,116,116);stroke-width:0.42px;"/>
            </g>
            <g transform="matrix(1,0,0,1,-2.27374e-13,600.531)">
                <path d="M0,53.365L2560,53.365" style="fill:none;stroke:rgb(116,116,116);stroke-width:0.42px;"/>
            </g>
            <g transform="matrix(1,0,0,1,-2.27374e-13,609.531)">
                <path d="M0,53.365L2560,53.365" style="fill:none;stroke:rgb(116,116,116);stroke-width:0.42px;"/>
            </g>
            <g transform="matrix(1,0,0,1,-2.27374e-13,617.531)">
                <path d="M0,53.365L2560,53.365" style="fill:none;stroke:rgb(116,116,116);stroke-width:0.42px;"/>
            </g>
            <g transform="matrix(1,0,0,1,-2.27374e-13,626.531)">
                <path d="M0,53.365L2560,53.365" style="fill:none;stroke:rgb(116,116,116);stroke-width:0.42px;"/>
            </g>
            <g transform="matrix(1,0,0,1,-2.27374e-13,634.531)">
                <path d="M0,53.365L2560,53.365" style="fill:none;stroke:rgb(116,116,116);stroke-width:0.42px;"/>
            </g>
            <g transform="matrix(1,0,0,1,-2.27374e-13,643.531)">
                <path d="M0,53.365L2560,53.365" style="fill:none;stroke:rgb(116,116,116);stroke-width:0.42px;"/>
            </g>
            <g transform="matrix(1,0,0,1,-2.27374e-13,651.531)">
                <path d="M0,53.365L2560,53.365" style="fill:none;stroke:rgb(116,116,116);stroke-width:0.42px;"/>
            </g>
            <g transform="matrix(1,0,0,1,-2.27374e-13,660.531)">
                <path d="M0,53.365L2560,53.365" style="fill:none;stroke:rgb(116,116,116);stroke-width:0.42px;"/>
            </g>
            <g transform="matrix(1,0,0,1,-2.27374e-13,668.531)">
                <path d="M0,53.365L2560,53.365" style="fill:none;stroke:rgb(116,116,116);stroke-width:0.42px;"/>
            </g>
            <g transform="matrix(1,0,0,1,-2.27374e-13,677.531)">
                <path d="M0,53.365L2560,53.365" style="fill:none;stroke:rgb(116,116,116);stroke-width:0.42px;"/>
            </g>
            <g transform="matrix(1,0,0,1,-2.27374e-13,685.531)">
                <path d="M0,53.365L2560,53.365" style="fill:none;stroke:rgb(116,116,116);stroke-width:0.42px;"/>
            </g>
            <g transform="matrix(1,0,0,1,-2.27374e-13,694.531)">
                <path d="M0,53.365L2560,53.365" style="fill:none;stroke:rgb(116,116,116);stroke-width:0.42px;"/>
            </g>
            <g transform="matrix(1,0,0,1,-2.27374e-13,702.531)">
                <path d="M0,53.365L2560,53.365" style="fill:none;stroke:rgb(116,116,116);stroke-width:0.42px;"/>
            </g>
            <g transform="matrix(1,0,0,1,-2.27374e-13,711.531)">
                <path d="M0,53.365L2560,53.365" style="fill:none;stroke:rgb(116,116,116);stroke-width:0.42px;"/>
            </g>
            <g transform="matrix(1,0,0,1,-2.27374e-13,719.531)">
                <path d="M0,53.365L2560,53.365" style="fill:none;stroke:rgb(116,116,116);stroke-width:0.42px;"/>
            </g>
            <g transform="matrix(1,0,0,1,-2.27374e-13,728.531)">
                <path d="M0,53.365L2560,53.365" style="fill:none;stroke:rgb(116,116,116);stroke-width:0.42px;"/>
            </g>
            <g transform="matrix(1,0,0,1,-2.27374e-13,736.531)">
                <path d="M0,53.365L2560,53.365" style="fill:none;stroke:rgb(116,116,116);stroke-width:0.42px;"/>
            </g>
            <g transform="matrix(1,0,0,1,-2.27374e-13,745.531)">
                <path d="M0,53.365L2560,53.365" style="fill:none;stroke:rgb(116,116,116);stroke-width:0.42px;"/>
            </g>
            <g transform="matrix(1,0,0,1,-2.27374e-13,753.531)">
                <path d="M0,53.365L2560,53.365" style="fill:none;stroke:rgb(116,116,116);stroke-width:0.42px;"/>
            </g>
            <g transform="matrix(1,0,0,1,-2.27374e-13,762.531)">
                <path d="M0,53.365L2560,53.365" style="fill:none;stroke:rgb(116,116,116);stroke-width:0.42px;"/>
            </g>
            <g transform="matrix(1,0,0,1,-2.27374e-13,770.531)">
                <path d="M0,53.365L2560,53.365" style="fill:none;stroke:rgb(116,116,116);stroke-width:0.42px;"/>
            </g>
            <g transform="matrix(1,0,0,1,-2.27374e-13,779.531)">
                <path d="M0,53.365L2560,53.365" style="fill:none;stroke:rgb(116,116,116);stroke-width:0.42px;"/>
            </g>
            <g transform="matrix(1,0,0,1,-2.27374e-13,787.531)">
                <path d="M0,53.365L2560,53.365" style="fill:none;stroke:rgb(116,116,116);stroke-width:0.42px;"/>
            </g>
            <g transform="matrix(1,0,0,1,-2.27374e-13,796.531)">
                <path d="M0,53.365L2560,53.365" style="fill:none;stroke:rgb(116,116,116);stroke-width:0.42px;"/>
            </g>
            <g transform="matrix(1,0,0,1,-2.27374e-13,804.531)">
                <path d="M0,53.365L2560,53.365" style="fill:none;stroke:rgb(116,116,116);stroke-width:0.42px;"/>
            </g>
            <g transform="matrix(1,0,0,1,-2.27374e-13,813.531)">
                <path d="M0,53.365L2560,53.365" style="fill:none;stroke:rgb(116,116,116);stroke-width:0.42px;"/>
            </g>
            <g transform="matrix(1,0,0,1,-2.27374e-13,821.531)">
                <path d="M0,53.365L2560,53.365" style="fill:none;stroke:rgb(116,116,116);stroke-width:0.42px;"/>
            </g>
            <g transform="matrix(1,0,0,1,-2.27374e-13,830.531)">
                <path d="M0,53.365L2560,53.365" style="fill:none;stroke:rgb(116,116,116);stroke-width:0.42px;"/>
            </g>
            <g transform="matrix(1,0,0,1,-2.27374e-13,838.531)">
                <path d="M0,53.365L2560,53.365" style="fill:none;stroke:rgb(116,116,116);stroke-width:0.42px;"/>
            </g>
            <g transform="matrix(1,0,0,1,-2.27374e-13,847.531)">
                <path d="M0,53.365L2560,53.365" style="fill:none;stroke:rgb(116,116,116);stroke-width:0.42px;"/>
            </g>
            <g transform="matrix(1,0,0,1,-2.27374e-13,855.531)">
                <path d="M0,53.365L2560,53.365" style="fill:none;stroke:rgb(116,116,116);stroke-width:0.42px;"/>
            </g>
            <g transform="matrix(1,0,0,1,-2.27374e-13,864.531)">
                <path d="M0,53.365L2560,53.365" style="fill:none;stroke:rgb(116,116,116);stroke-width:0.42px;"/>
            </g>
            <g transform="matrix(1,0,0,1,-2.27374e-13,872.531)">
                <path d="M0,53.365L2560,53.365" style="fill:none;stroke:rgb(116,116,116);stroke-width:0.42px;"/>
            </g>
            <g transform="matrix(1,0,0,1,-2.27374e-13,881.531)">
                <path d="M0,53.365L2560,53.365" style="fill:none;stroke:rgb(116,116,116);stroke-width:0.42px;"/>
            </g>
            <g transform="matrix(1,0,0,1,-2.27374e-13,889.531)">
                <path d="M0,53.365L2560,53.365" style="fill:none;stroke:rgb(116,116,116);stroke-width:0.42px;"/>
            </g>
            <g transform="matrix(1,0,0,1,-2.27374e-13,898.531)">
                <path d="M0,53.365L2560,53.365" style="fill:none;stroke:rgb(116,116,116);stroke-width:0.42px;"/>
            </g>
            <g transform="matrix(1,0,0,1,-2.27374e-13,906.531)">
                <path d="M0,53.365L2560,53.365" style="fill:none;stroke:rgb(116,116,116);stroke-width:0.42px;"/>
            </g>
            <g transform="matrix(1,0,0,1,-2.27374e-13,915.531)">
                <path d="M0,53.365L2560,53.365" style="fill:none;stroke:rgb(116,116,116);stroke-width:0.42px;"/>
            </g>
            <g transform="matrix(1,0,0,1,-2.27374e-13,923.531)">
                <path d="M0,53.365L2560,53.365" style="fill:none;stroke:rgb(116,116,116);stroke-width:0.42px;"/>
            </g>
            <g transform="matrix(1,0,0,1,-2.27374e-13,932.531)">
                <path d="M0,53.365L2560,53.365" style="fill:none;stroke:rgb(116,116,116);stroke-width:0.42px;"/>
            </g>
            <g transform="matrix(1,0,0,1,-2.27374e-13,940.531)">
                <path d="M0,53.365L2560,53.365" style="fill:none;stroke:rgb(116,116,116);stroke-width:0.42px;"/>
            </g>
            <g transform="matrix(1,0,0,1,-2.27374e-13,949.531)">
                <path d="M0,53.365L2560,53.365" style="fill:none;stroke:rgb(116,116,116);stroke-width:0.42px;"/>
            </g>
            <g transform="matrix(1,0,0,1,-2.27374e-13,957.531)">
                <path d="M0,53.365L2560,53.365" style="fill:none;stroke:rgb(116,116,116);stroke-width:0.42px;"/>
            </g>
            <g transform="matrix(1,0,0,1,-2.27374e-13,966.531)">
                <path d="M0,53.365L2560,53.365" style="fill:none;stroke:rgb(116,116,116);stroke-width:0.42px;"/>
            </g>
            <g transform="matrix(1,0,0,1,-2.27374e-13,974.531)">
                <path d="M0,53.365L2560,53.365" style="fill:none;stroke:rgb(116,116,116);stroke-width:0.42px;"/>
            </g>
            <g transform="matrix(1,0,0,1,-2.27374e-13,983.531)">
                <path d="M0,53.365L2560,53.365" style="fill:none;stroke:rgb(116,116,116);stroke-width:0.42px;"/>
            </g>
            <g transform="matrix(1,0,0,1,-2.27374e-13,991.531)">
                <path d="M0,53.365L2560,53.365" style="fill:none;stroke:rgb(116,116,116);stroke-width:0.42px;"/>
            </g>
            <g transform="matrix(1,0,0,1,-2.27374e-13,1000.53)">
                <path d="M0,53.365L2560,53.365" style="fill:none;stroke:rgb(116,116,116);stroke-width:0.42px;"/>
            </g>
            <g transform="matrix(1,0,0,1,-2.27374e-13,1008.53)">
                <path d="M0,53.365L2560,53.365" style="fill:none;stroke:rgb(116,116,116);stroke-width:0.42px;"/>
            </g>
            <g transform="matrix(1,0,0,1,-2.27374e-13,1017.53)">
                <path d="M0,53.365L2560,53.365" style="fill:none;stroke:rgb(116,116,116);stroke-width:0.42px;"/>
            </g>
            <g transform="matrix(1,0,0,1,-2.27374e-13,1025.53)">
                <path d="M0,53.365L2560,53.365" style="fill:none;stroke:rgb(116,116,116);stroke-width:0.42px;"/>
            </g>
            <g transform="matrix(1,0,0,1,-2.27374e-13,1034.53)">
                <path d="M0,53.365L2560,53.365" style="fill:none;stroke:rgb(116,116,116);stroke-width:0.42px;"/>
            </g>
            <g transform="matrix(1,0,0,1,-2.27374e-13,1042.53)">
                <path d="M0,53.365L2560,53.365" style="fill:none;stroke:rgb(116,116,116);stroke-width:0.42px;"/>
            </g>
            <g transform="matrix(1,0,0,1,-2.27374e-13,1051.53)">
                <path d="M0,53.365L2560,53.365" style="fill:none;stroke:rgb(116,116,116);stroke-width:0.42px;"/>
            </g>
            <g transform="matrix(1,0,0,1,-2.27374e-13,1059.53)">
                <path d="M0,53.365L2560,53.365" style="fill:none;stroke:rgb(116,116,116);stroke-width:0.42px;"/>
            </g>
            <g transform="matrix(1,0,0,1,-2.27374e-13,1068.53)">
                <path d="M0,53.365L2560,53.365" style="fill:none;stroke:rgb(116,116,116);stroke-width:0.42px;"/>
            </g>
            <g transform="matrix(1,0,0,1,-2.27374e-13,1076.53)">
                <path d="M0,53.365L2560,53.365" style="fill:none;stroke:rgb(116,116,116);stroke-width:0.42px;"/>
            </g>
            <g transform="matrix(1,0,0,1,-2.27374e-13,1085.53)">
                <path d="M0,53.365L2560,53.365" style="fill:none;stroke:rgb(116,116,116);stroke-width:0.42px;"/>
            </g>
            <g transform="matrix(1,0,0,1,-2.27374e-13,1093.53)">
                <path d="M0,53.365L2560,53.365" style="fill:none;stroke:rgb(116,116,116);stroke-width:0.42px;"/>
            </g>
            <g transform="matrix(1,0,0,1,-2.27374e-13,1102.53)">
                <path d="M0,53.365L2560,53.365" style="fill:none;stroke:rgb(116,116,116);stroke-width:0.42px;"/>
            </g>
            <g transform="matrix(1,0,0,1,-2.27374e-13,1110.53)">
                <path d="M0,53.365L2560,53.365" style="fill:none;stroke:rgb(116,116,116);stroke-width:0.42px;"/>
            </g>
            <g transform="matrix(1,0,0,1,-2.27374e-13,1119.53)">
                <path d="M0,53.365L2560,53.365" style="fill:none;stroke:rgb(116,116,116);stroke-width:0.42px;"/>
            </g>
            <g transform="matrix(1,0,0,1,-2.27374e-13,1127.53)">
                <path d="M0,53.365L2560,53.365" style="fill:none;stroke:rgb(116,116,116);stroke-width:0.42px;"/>
            </g>
            <g transform="matrix(1,0,0,1,-2.27374e-13,1136.53)">
                <path d="M0,53.365L2560,53.365" style="fill:none;stroke:rgb(116,116,116);stroke-width:0.42px;"/>
            </g>
            <g transform="matrix(1,0,0,1,-2.27374e-13,1144.53)">
                <path d="M0,53.365L2560,53.365" style="fill:none;stroke:rgb(116,116,116);stroke-width:0.42px;"/>
            </g>
            <g transform="matrix(1,0,0,1,-2.27374e-13,1153.53)">
                <path d="M0,53.365L2560,53.365" style="fill:none;stroke:rgb(116,116,116);stroke-width:0.42px;"/>
            </g>
            <g transform="matrix(1,0,0,1,-2.27374e-13,1161.53)">
                <path d="M0,53.365L2560,53.365" style="fill:none;stroke:rgb(116,116,116);stroke-width:0.42px;"/>
            </g>
            <g transform="matrix(1,0,0,1,-2.27374e-13,1170.53)">
                <path d="M0,53.365L2560,53.365" style="fill:none;stroke:rgb(116,116,116);stroke-width:0.42px;"/>
            </g>
            <g transform="matrix(1,0,0,1,-2.27374e-13,1178.53)">
                <path d="M0,53.365L2560,53.365" style="fill:none;stroke:rgb(116,116,116);stroke-width:0.42px;"/>
            </g>
            <g transform="matrix(1,0,0,1,-2.27374e-13,1187.53)">
                <path d="M0,53.365L2560,53.365" style="fill:none;stroke:rgb(116,116,116);stroke-width:0.42px;"/>
            </g>
            <g transform="matrix(1,0,0,1,-2.27374e-13,1195.53)">
                <path d="M0,53.365L2560,53.365" style="fill:none;stroke:rgb(116,116,116);stroke-width:0.42px;"/>
            </g>
            <g transform="matrix(1,0,0,1,-2.27374e-13,1204.53)">
                <path d="M0,53.365L2560,53.365" style="fill:none;stroke:rgb(116,116,116);stroke-width:0.42px;"/>
            </g>
            <g transform="matrix(1,0,0,1,-2.27374e-13,1212.53)">
                <path d="M0,53.365L2560,53.365" style="fill:none;stroke:rgb(116,116,116);stroke-width:0.42px;"/>
            </g>
            <g transform="matrix(1,0,0,1,-2.27374e-13,1221.53)">
                <path d="M0,53.365L2560,53.365" style="fill:none;stroke:rgb(116,116,116);stroke-width:0.42px;"/>
            </g>
            <g transform="matrix(1,0,0,1,-2.27374e-13,1229.53)">
                <path d="M0,53.365L2560,53.365" style="fill:none;stroke:rgb(116,116,116);stroke-width:0.42px;"/>
            </g>
            <g transform="matrix(1,0,0,1,-2.27374e-13,1238.53)">
                <path d="M0,53.365L2560,53.365" style="fill:none;stroke:rgb(116,116,116);stroke-width:0.42px;"/>
            </g>
            <g transform="matrix(1,0,0,1,-2.27374e-13,1246.53)">
                <path d="M0,53.365L2560,53.365" style="fill:none;stroke:rgb(116,116,116);stroke-width:0.42px;"/>
            </g>
            <g transform="matrix(1,0,0,1,-2.27374e-13,1255.53)">
                <path d="M0,53.365L2560,53.365" style="fill:none;stroke:rgb(116,116,116);stroke-width:0.42px;"/>
            </g>
            <g transform="matrix(1,0,0,1,-2.27374e-13,1263.53)">
                <path d="M0,53.365L2560,53.365" style="fill:none;stroke:rgb(116,116,116);stroke-width:0.42px;"/>
            </g>
            <g transform="matrix(1,0,0,1,-2.27374e-13,1272.53)">
                <path d="M0,53.365L2560,53.365" style="fill:none;stroke:rgb(116,116,116);stroke-width:0.42px;"/>
            </g>
            <g transform="matrix(1,0,0,1,-2.27374e-13,1280.53)">
                <path d="M0,53.365L2560,53.365" style="fill:none;stroke:rgb(116,116,116);stroke-width:0.42px;"/>
            </g>
            <g transform="matrix(1,0,0,1,-2.27374e-13,1289.53)">
                <path d="M0,53.365L2560,53.365" style="fill:none;stroke:rgb(116,116,116);stroke-width:0.42px;"/>
            </g>
            <g transform="matrix(1,0,0,1,-2.27374e-13,1297.53)">
                <path d="M0,53.365L2560,53.365" style="fill:none;stroke:rgb(116,116,116);stroke-width:0.42px;"/>
            </g>
            <g transform="matrix(1,0,0,1,-2.27374e-13,1306.53)">
                <path d="M0,53.365L2560,53.365" style="fill:none;stroke:rgb(116,116,116);stroke-width:0.42px;"/>
            </g>
            <g transform="matrix(1,0,0,1,-2.27374e-13,1314.53)">
                <path d="M0,53.365L2560,53.365" style="fill:none;stroke:rgb(116,116,116);stroke-width:0.42px;"/>
            </g>
            <g transform="matrix(1,0,0,1,-2.27374e-13,1323.53)">
                <path d="M0,53.365L2560,53.365" style="fill:none;stroke:rgb(116,116,116);stroke-width:0.42px;"/>
            </g>
            <g transform="matrix(1,0,0,1,-2.27374e-13,1331.53)">
                <path d="M0,53.365L2560,53.365" style="fill:none;stroke:rgb(116,116,116);stroke-width:0.42px;"/>
            </g>
            <g transform="matrix(1,0,0,1,-2.27374e-13,1340.53)">
                <path d="M0,53.365L2560,53.365" style="fill:none;stroke:rgb(116,116,116);stroke-width:0.42px;"/>
            </g>
            <g transform="matrix(1,0,0,1,-2.27374e-13,1348.53)">
                <path d="M0,53.365L2560,53.365" style="fill:none;stroke:rgb(116,116,116);stroke-width:0.42px;"/>
            </g>
            <g transform="matrix(1,0,0,1,-2.27374e-13,1357.53)">
                <path d="M0,53.365L2560,53.365" style="fill:none;stroke:rgb(116,116,116);stroke-width:0.42px;"/>
            </g>
            <g transform="matrix(1,0,0,1,-2.27374e-13,1365.53)">
                <path d="M0,53.365L2560,53.365" style="fill:none;stroke:rgb(116,116,116);stroke-width:0.42px;"/>
            </g>
            <g transform="matrix(1,0,0,1,-2.27374e-13,1374.53)">
                <path d="M0,53.365L2560,53.365" style="fill:none;stroke:rgb(116,116,116);stroke-width:0.42px;"/>
            </g>
            <g transform="matrix(1,0,0,1,-2.27374e-13,1382.53)">
                <path d="M0,53.365L2560,53.365" style="fill:none;stroke:rgb(116,116,116);stroke-width:0.42px;"/>
            </g>
        </g>
    </g>
</svg>
