<?xml version="1.0" encoding="UTF-8" standalone="no"?>
<!DOCTYPE svg PUBLIC "-//W3C//DTD SVG 1.1//EN" "http://www.w3.org/Graphics/SVG/1.1/DTD/svg11.dtd">
<svg width="100%" height="100%" viewBox="0 0 828 1792" version="1.1" xmlns="http://www.w3.org/2000/svg" xmlns:xlink="http://www.w3.org/1999/xlink" xml:space="preserve" xmlns:serif="http://www.serif.com/" style="fill-rule:evenodd;clip-rule:evenodd;stroke-linecap:round;stroke-linejoin:round;stroke-miterlimit:1.5;">
    <g>
        <clipPath id="_clip1">
            <rect x="0" y="0" width="828" height="1792"/>
        </clipPath>
        <g clip-path="url(#_clip1)">
            <g transform="matrix(2.63978,0,0,6.23394,-394.839,-2593.98)">
                <rect x="149.573" y="416.107" width="313.663" height="287.459" style="fill:rgb(187,187,187);"/>
            </g>
            <g id="pokeball" transform="matrix(0.378055,-0.21827,0.21827,0.378055,-54.6783,1259.75)">
                <g transform="matrix(1.03128,0,0,1.03128,13.0597,-45.0445)">
                    <circle cx="1228.51" cy="741.839" r="698.161" style="fill:rgb(223,223,223);stroke:rgb(87,87,87);stroke-width:41.65px;"/>
                </g>
                <g transform="matrix(1.03128,0,0,1.03128,13.0597,-45.0445)">
                    <circle cx="1228.51" cy="741.839" r="698.161" style="fill:rgb(223,223,223);stroke:rgb(87,87,87);stroke-width:41.65px;"/>
                </g>
                <g transform="matrix(-1,-1.22465e-16,1.22465e-16,-1,2560,1440)">
                    <path d="M560,720C560,490.161 2000,490.161 2000,720C2000,1236.39 1520,1440 1280,1440C1021.25,1440 560,1234.48 560,720Z" style="fill:rgb(255,93,78);stroke:rgb(87,87,87);stroke-width:42.95px;"/>
                </g>
                <path d="M560.24,701.25C565.193,701.25 798.455,838.409 1280,838.409C1785.57,838.409 1987.74,701.25 1999.76,701.25C2002.33,701.25 1992.11,836.589 1990.29,838.409C1919.61,909.089 1560.51,958.748 1280,958.748C1043.24,958.748 659.798,928.499 569.708,838.409C565.583,834.284 558.343,701.25 560.24,701.25Z" style="fill:rgb(87,87,87);stroke:rgb(87,87,87);stroke-width:42.95px;"/>
                <g transform="matrix(1.20985,0,0,1.20985,-322.995,-195.924)">
                    <circle cx="1324.96" cy="898.711" r="157.152" style="fill:rgb(223,223,223);stroke:rgb(87,87,87);stroke-width:35.5px;"/>
                </g>
                <g transform="matrix(0.682661,0,0,0.682661,375.503,277.864)">
                    <circle cx="1324.96" cy="898.711" r="157.152" style="fill:rgb(223,223,223);stroke:rgb(87,87,87);stroke-width:62.92px;"/>
                </g>
            </g>
            <g transform="matrix(2.34588,0,0,2.34588,554.8,938.254)">
                <g transform="matrix(1,0,0,1,-236.5,-250)">
                    <g transform="matrix(1,0,0,1,-12.4992,-0.537293)">
                        <g id="leaves">
                            <path d="M19.961,1.057C21.095,2.19 60.815,25.495 62.391,65.803C63.185,86.1 64.01,108.154 62.391,126.8C61.651,135.327 62.245,147.624 69.121,157.656C87.881,185.028 102.841,193.945 114.306,202.336C115.112,202.925 126.018,208.001 137.913,208.001C138.701,208.001 155.071,174.359 155.132,173.574C156.024,161.985 150.515,122.311 137.913,101.095C130.812,89.142 117.433,70.786 105.632,53.41C96.076,39.341 87.924,25.728 82.065,18.146C77.611,12.382 65.799,9.166 62.391,8.632C51.785,6.969 19.547,0.643 19.961,1.057Z" style="fill:rgb(140,196,71);stroke:black;stroke-width:1px;"/>
                            <path d="M273.384,21.387C273.099,21.387 264.66,24.907 254.102,26.888C247.989,28.035 236.418,28.865 231.417,30.17C212.507,35.104 190.967,39.017 168.133,60.786C156.17,72.192 147.575,85.731 138.85,100.805C138.529,101.36 155.206,142.743 155.206,172.128C155.206,172.984 177.517,138.283 189.167,123.989C206.336,102.924 231.054,92.159 231.417,91.377C239.05,74.892 249.572,61.489 260.832,48.738C271.779,36.343 273.878,21.387 273.384,21.387Z" style="fill:rgb(140,196,71);stroke:black;stroke-width:1px;"/>
                            <path d="M412.956,123.989C413.437,123.989 426.542,93.077 425.416,56.473C425.233,50.532 417.732,44.24 412.956,43.092C408.39,41.995 370.389,44.832 323.411,56.473C286.585,65.598 249.982,83.555 230.336,91.591C214.136,98.216 195.783,115.185 177.656,139.329C162.747,159.185 137.814,207.36 137.814,208.358C137.814,208.483 147.674,211.099 157.392,214.808C167.521,218.674 177.526,223.637 177.656,223.62C204.047,220.146 283.437,203.292 296.163,187.51C321.537,156.044 369.673,92.177 401.428,74.952C403.878,73.623 412.475,123.989 412.956,123.989Z" style="fill:rgb(140,196,71);stroke:black;stroke-width:1px;"/>
                            <path d="M484.724,177.069C478.618,170.92 446.213,147.982 412.956,138.035C390.203,131.23 343.27,129.804 342.054,131.019C327.723,145.35 299.709,182.588 299.874,182.753C299.967,182.846 320.438,175.432 342.054,172.144C358.689,169.613 376.003,170.744 385.228,172.144C391.508,173.097 413.805,187.521 416.624,187.521C419.444,187.521 436.272,176.974 449.595,174.927C460.945,173.184 485.188,177.536 484.724,177.069Z" style="fill:rgb(140,196,71);stroke:black;stroke-width:1px;"/>
                            <path d="M477.4,239.929C477.911,239.418 465.79,210.606 444.045,198.14C441.311,196.573 431.204,194.583 416.624,187.521C404.31,181.557 392.176,174.18 385.393,172.287C370.206,168.049 352.116,171.11 337.962,172.816C324.872,174.393 312.106,177.554 300.46,182.45C299.462,182.87 295.327,193.703 268.085,202.194C258.318,205.238 238.046,211.558 219.076,215.819C198.312,220.483 178.162,223.113 177.655,223.621C177.148,224.128 194.507,236.415 201.971,240.812C205.217,242.724 218.884,248.754 222.44,250C236.958,255.086 268.762,267.322 289.078,271.328C307.173,274.896 326.583,279.014 344.341,274.035C367.778,267.464 407.519,237.583 429.696,231.899C445.316,227.895 476.889,240.44 477.4,239.929Z" style="fill:rgb(140,196,71);stroke:black;stroke-width:1px;"/>
                        </g>
                        <g id="leavesShadows">
                            <path d="M298.627,185.555C384.196,190.072 319.3,260.776 281.62,269.13C281.515,269.153 276.353,267.846 269.379,265.687C261.968,263.392 252.483,260.154 243.899,257.197C232.197,253.166 222.333,249.403 222.191,249.34C222.002,249.256 217.653,245.346 212.424,241.355C208.129,238.076 202.793,235.253 199.7,233.288C193.694,229.472 180.22,223.558 181.475,223.366C196.376,221.096 228.847,214.318 256.148,206.351C259.263,205.442 261.4,204.791 263.492,204.149C264.562,203.82 265.645,203.509 266.791,203.134C277.514,199.619 283.822,196.545 287.972,194.174C292.434,191.623 294.333,189.885 296.047,188.286C297.844,186.609 298.546,185.551 298.627,185.555Z" style="fill:rgb(100,153,73);"/>
                            <path d="M334.972,139.329C349.904,136.342 364.472,154.735 361.96,169.753C361.929,169.937 343.487,170.995 329.195,173.619C312.821,176.625 301.606,181.732 301.467,181.573C301.205,181.273 333.441,139.635 334.972,139.329Z" style="fill:rgb(100,153,73);"/>
                            <path d="M208.635,106.219C240.707,92.866 329.022,91.335 256.233,205.19C255.826,205.826 241.888,209.913 225.975,213.776C205.884,218.652 182.527,222.909 179.792,222.771C179.148,222.739 167.701,217.848 156.778,213.634C147.529,210.065 139.016,207.464 139.016,206.918C139.016,206.372 150.777,182.632 165.837,158.177C167.804,154.982 169.695,151.665 171.852,148.414C175.344,143.153 179.231,137.988 183.014,133.214C194.66,118.518 206.201,107.232 208.635,106.219Z" style="fill:rgb(100,153,73);"/>
                            <path d="M139.412,100.869C143.567,96.714 202.513,65.33 205.181,107.589C205.206,107.989 191.786,119.835 180.287,134.935C167.322,151.958 155.999,173.903 155.68,173.584C155.56,173.464 155.566,170.692 155.196,166.331C154.625,159.583 153.353,149.023 150.861,138.528C146.476,120.061 139.087,101.194 139.412,100.869Z" style="fill:rgb(100,153,73);"/>
                            <path d="M80.116,171.353C79.87,170.863 77.211,139.875 83.53,108.085C89.069,80.221 115.35,76.252 137.552,101.24C137.816,101.538 138.892,103.246 140.143,106.315C141.767,110.297 143.97,117.101 146.477,125.534C148.729,133.112 151.304,142.016 152.596,151.167C153.578,158.119 155.538,166.64 154.625,173.517C154.438,174.929 153.821,176.209 153.391,177.46C153.056,178.436 140.642,200.802 139.723,203.367C139.643,203.59 137.789,207.102 137.552,207.096C136.727,207.073 130.246,204.715 123.905,203.367C119.05,202.335 114.529,202.552 114.327,202.351C113.833,201.856 106.632,196.694 99.137,190.461C90.859,183.578 82.151,175.414 80.116,171.353Z" style="fill:rgb(100,153,73);"/>
                        </g>
                        <g id="body">
                            <path id="body1" serif:id="body" d="M114.306,202.336C92.739,205.323 62.645,217.27 45.761,232.221C28.877,247.171 13.151,266.363 13,292.039C12.82,322.63 44.073,363.971 73.672,378.313C78.662,380.731 83.243,383.036 87.577,385.189C101.06,391.89 112.148,397.117 125.721,399.682C143.656,403.071 168.533,401.922 181.28,398.649C218.589,389.068 235.893,367.062 241.642,341.997C249.914,305.939 235.876,266.872 221.831,249.777C204.527,228.716 127.494,200.509 114.306,202.336Z" style="fill:rgb(90,144,204);stroke:black;stroke-width:1px;"/>
                            <path d="M204.04,235.828C203.56,237.635 220.851,293.746 197.839,331.829C181.491,358.884 160.889,361.646 125.177,357.589C102.836,355.05 69.255,336.157 52.33,331.829C46.845,330.426 38.82,330.001 35.344,331.829C33.33,332.889 29.422,337.925 29.785,338.694C33.386,346.303 55.857,368.329 68.683,375.068C85.673,383.996 101.818,393.66 124.398,399.035C144.168,403.742 182.496,399.212 192.175,395.329C221.398,383.606 238.114,362.182 241.959,338.694C250.195,288.383 225.165,252.597 220.996,248.427C220.9,248.331 216.906,244.611 213.588,242.216C209.94,239.583 204.083,235.667 204.04,235.828Z" style="fill:rgb(44,91,161);"/>
                        </g>
                        <g id="leftFoot">
                            <path id="leftFoot1" serif:id="leftFoot" d="M73.797,379.425C68.253,379.425 53.838,401.506 51.876,409.799C48.378,424.579 42.291,448.616 52.659,468.068C57.616,477.369 75.142,478.838 84.113,471.286C97.666,459.877 105.83,444.364 110.688,428.836C111.408,426.534 113.792,399.977 110.688,396.109C110.358,395.698 100.644,391.12 91.55,387.152C82.623,383.257 74.316,379.425 73.797,379.425Z" style="fill:rgb(90,144,204);stroke:black;stroke-width:1px;"/>
                            <path d="M52.546,409.956C52.549,410.585 65.958,410.736 75.029,419.808C92.431,437.21 91.321,463.6 91.777,463.102C100.939,453.086 107.937,440.028 110.203,428.642C112.2,418.61 112.443,404.495 110.649,396.076C110.623,395.951 101.126,392.089 91.777,387.823C83.044,383.838 74.44,379.425 73.797,379.425C68.482,379.425 52.527,404.101 52.546,409.956Z" style="fill:rgb(44,91,161);"/>
                        </g>
                        <g id="rightFoot">
                            <path id="rightFoot1" serif:id="rightFoot" d="M181.28,398.649C187.751,405.12 193,426.575 192.067,441.167C191.099,456.308 184.801,481.925 175.472,489.495C158.187,503.521 147.891,502.578 137.096,487.796C130.345,478.551 128.849,455.797 131.086,437.076C132.669,423.84 141.11,403.711 143.902,401.573C144.388,401.201 154.412,401.37 163.202,400.636C172.607,399.85 180.817,398.186 181.28,398.649Z" style="fill:rgb(90,144,204);stroke:black;stroke-width:1px;"/>
                            <path d="M143.902,401.573C141.016,404.459 137.054,415.294 134.437,424.278C132.617,430.526 131.541,435.86 131.541,437.082C131.541,437.334 152.386,435.787 162.524,450.392C172.029,464.087 176.408,488.031 176.802,487.656C184.508,480.336 192.666,452.182 191.564,433.743C190.524,416.354 184.471,402.242 180.798,398.569C180.624,398.394 170.671,400.461 161.147,401.251C152.424,401.975 144.062,401.413 143.902,401.573Z" style="fill:rgb(44,91,161);"/>
                        </g>
                        <g id="mouth">
                            <path id="mouth1" serif:id="mouth" d="M99.898,272.503C99.966,272.402 105.391,275.526 112.242,277.379C119.039,279.218 127.281,279.801 127.321,279.915C128.718,283.883 124.066,297.527 119.088,307.328C117.645,310.169 115.929,312.425 114.629,314.353C109.474,321.996 98.421,321.429 97.187,310.622C96.551,305.045 99.697,272.8 99.898,272.503Z" style="fill:rgb(66,0,0);stroke:black;stroke-width:1px;"/>
                            <path id="tongue" d="M108.549,276.758C109.31,276.645 113.228,277.811 117.308,278.507C122.192,279.341 127.295,279.755 127.321,279.915C128.335,286.181 119.766,309.349 114.629,314.353C109.759,319.097 101.729,323.809 97.187,310.622C96.684,309.16 98.687,288.009 99.179,286.543C100.615,282.261 105.971,277.138 108.549,276.758Z" style="fill:rgb(255,126,184);stroke:black;stroke-width:1px;"/>
                        </g>
                        <g id="leftEye">
                            <path id="leftEye1" serif:id="leftEye" d="M83.34,242.426C78.583,242.445 76.299,246.777 76.371,250C76.427,252.503 77.452,257.027 83.34,257.449C86.405,257.668 90.299,254.755 90.386,250C90.432,247.497 88.789,242.404 83.34,242.426Z" style="fill:rgb(210,80,108);stroke:black;stroke-width:1px;"/>
                            <g id="leftEye2" serif:id="leftEye" transform="matrix(0.839657,0,0,0.734578,13.7395,64.8938)">
                                <path d="M83.34,242.426C78.583,242.445 76.299,246.777 76.371,250C76.427,252.503 77.452,257.027 83.34,257.449C86.405,257.668 90.299,254.755 90.386,250C90.432,247.497 88.789,242.404 83.34,242.426Z" style="fill:rgb(223,223,223);"/>
                            </g>
                        </g>
                        <g id="rightEye">
                            <path id="rightEye1" serif:id="rightEye" d="M163.007,267.935C158.288,267.744 155.452,271.385 155.132,274.887C154.863,277.833 157.051,282.745 161.577,282.79C165.946,282.833 168.653,280.376 169.262,276.758C169.892,273.021 168.371,268.153 163.007,267.935Z" style="fill:rgb(210,80,108);stroke:black;stroke-width:1px;"/>
                            <g id="rightEye2" serif:id="rightEye" transform="matrix(0.868073,0,0,0.793435,21.5483,55.7592)">
                                <path d="M163.007,267.935C158.288,267.744 155.452,271.385 155.132,274.887C154.863,277.833 157.051,282.745 161.577,282.79C165.946,282.833 168.653,280.376 169.262,276.758C169.892,273.021 168.371,268.153 163.007,267.935Z" style="fill:rgb(223,223,223);"/>
                            </g>
                        </g>
                        <g id="leavesDetails">
                            <path d="M199.7,233.288C226.772,223.595 267.472,207.127 324.356,202.251C338.734,201.019 370.525,206.62 424.541,208.187C432.362,208.413 445.526,217.627 452.107,222.234" style="fill:none;stroke:black;stroke-width:1px;"/>
                            <path d="M307.89,172.079C336.437,163.432 403.8,144.87 453.055,164.727" style="fill:none;stroke:black;stroke-width:1px;"/>
                            <path d="M154.001,212.596C225.787,123.336 293.849,81.017 389.865,56.417" style="fill:none;stroke:black;stroke-width:1px;"/>
                            <path d="M153.406,152.813C174.783,101.119 208.002,50.255 256.121,35.463" style="fill:none;stroke:black;stroke-width:1px;"/>
                            <path d="M138.247,207.222C138.598,206.35 139.3,204.604 139.328,203.224C139.582,190.886 114.041,77.745 56.332,15.129" style="fill:none;stroke:black;stroke-width:1px;"/>
                        </g>
                    </g>
                </g>
            </g>
            <g transform="matrix(3.75714,0,0,4.04164,2808.02,-4187.29)">
                <path d="M-740.585,1076.62C-738.616,1075.96 -736.764,1075.36 -735.031,1074.81C-733.297,1074.26 -731.47,1073.73 -729.55,1073.23C-727.629,1072.74 -725.79,1072.34 -724.032,1072.05C-722.681,1071.82 -721.298,1071.71 -719.882,1071.71C-717.522,1071.71 -715.976,1071.77 -715.243,1071.9C-714.136,1072.12 -713.091,1072.46 -712.106,1072.93C-711.121,1073.4 -710.242,1074.03 -709.469,1074.82C-708.696,1075.61 -708.065,1076.54 -707.577,1077.62C-707.382,1078.06 -707.284,1078.52 -707.284,1079.01C-707.284,1080.83 -708.281,1083.08 -710.275,1085.75C-712.269,1088.41 -714.271,1090.74 -716.281,1092.73C-718.291,1094.71 -719.792,1096.14 -720.785,1097L-716.391,1112.41L-722.787,1117.02L-733.993,1085.01C-734.026,1085.01 -734.18,1085.17 -734.457,1085.48C-734.734,1085.79 -735.096,1086.19 -735.544,1086.69C-735.991,1087.18 -736.272,1087.49 -736.386,1087.6C-736.435,1087.6 -736.593,1087.25 -736.862,1086.55C-737.13,1085.85 -737.489,1084.88 -737.936,1083.63C-738.384,1082.39 -738.888,1081.01 -739.45,1079.48C-740.011,1077.96 -740.39,1077.01 -740.585,1076.62ZM-724.789,1083.4L-722.787,1090.61C-721.778,1089.58 -720.525,1088.18 -719.027,1086.4C-717.53,1084.63 -716.781,1083.35 -716.781,1082.55C-716.781,1082.24 -716.912,1082.06 -717.172,1082.01C-717.904,1081.85 -718.629,1081.77 -719.345,1081.77C-721.493,1081.77 -723.308,1082.31 -724.789,1083.4Z" style="fill:rgb(255,202,57);fill-rule:nonzero;stroke:rgb(42,87,147);stroke-width:2.67px;stroke-linecap:butt;stroke-miterlimit:2;"/>
                <path d="M-688.949,1088.97C-687.794,1089.59 -686.854,1090.42 -686.129,1091.47C-685.405,1092.52 -684.876,1093.7 -684.543,1095.01C-684.209,1096.32 -684.042,1097.68 -684.042,1099.1C-684.042,1100.27 -684.136,1101.4 -684.323,1102.49C-684.51,1103.59 -684.766,1104.59 -685.092,1105.5C-685.417,1106.41 -685.8,1107.18 -686.239,1107.82C-687.265,1109.35 -688.363,1110.66 -689.535,1111.77C-690.707,1112.88 -691.903,1113.77 -693.124,1114.44C-694.345,1115.12 -695.553,1115.62 -696.75,1115.93C-697.946,1116.25 -699.13,1116.41 -700.302,1116.41C-701.685,1116.41 -703,1116.19 -704.245,1115.76C-705.49,1115.33 -706.552,1114.77 -707.431,1114.07C-708.879,1112.86 -710.01,1111.24 -710.824,1109.2C-711.638,1107.15 -712.045,1104.99 -712.045,1102.71C-712.045,1098.79 -710.914,1095.63 -708.651,1093.22C-706.715,1091.15 -704.713,1089.59 -702.646,1088.54C-700.579,1087.49 -698.463,1086.97 -696.298,1086.97C-695.028,1086.97 -693.808,1087.13 -692.636,1087.44C-691.464,1087.76 -690.235,1088.27 -688.949,1088.97ZM-690.39,1093.07C-690.666,1094.31 -691.265,1095.4 -692.184,1096.34C-693.104,1097.29 -694.003,1097.76 -694.882,1097.76C-695.321,1097.76 -695.712,1097.64 -696.054,1097.42C-696.542,1097.03 -696.786,1096.34 -696.786,1095.37C-696.786,1094.62 -696.538,1093.88 -696.042,1093.14C-695.545,1092.41 -694.76,1091.83 -693.686,1091.41C-694.76,1091.41 -695.797,1091.61 -696.798,1092.02C-697.799,1092.43 -698.658,1092.95 -699.374,1093.6C-700.09,1094.24 -700.664,1094.96 -701.095,1095.77C-701.527,1096.57 -701.742,1097.38 -701.742,1098.2C-701.742,1099.71 -701.042,1100.91 -699.643,1101.81C-698.341,1102.64 -697.104,1103.06 -695.932,1103.06C-694.776,1103.06 -693.751,1102.67 -692.856,1101.9C-691.96,1101.12 -691.277,1100.13 -690.805,1098.92C-690.333,1097.7 -690.097,1096.51 -690.097,1095.32C-690.097,1094.5 -690.194,1093.75 -690.39,1093.07Z" style="fill:rgb(255,202,57);fill-rule:nonzero;stroke:rgb(42,87,147);stroke-width:2.67px;stroke-linecap:butt;stroke-miterlimit:2;"/>
                <path d="M-688.095,1074.61L-675.692,1069.41L-673.886,1097.61L-663.681,1092.02L-653.085,1093.61L-666.903,1104.2L-653.891,1114.02L-653.305,1123.81L-672.494,1110.01L-671.884,1122L-683.505,1122.22L-685.702,1079.81L-689.291,1080.62L-688.095,1074.61Z" style="fill:rgb(255,202,57);fill-rule:nonzero;stroke:rgb(42,87,147);stroke-width:2.67px;stroke-linecap:butt;stroke-miterlimit:2;"/>
                <path d="M-636.093,1101.91L-630.209,1109.01C-630.681,1110.38 -631.8,1111.63 -633.566,1112.77C-635.332,1113.91 -637.432,1114.81 -639.865,1115.47C-642.298,1116.13 -644.727,1116.46 -647.152,1116.46C-649.301,1116.46 -651.217,1116.17 -652.902,1115.61C-654.586,1115.04 -655.884,1114.17 -656.796,1113.02C-658.375,1111.03 -659.164,1108.49 -659.164,1105.4C-659.164,1102.96 -658.721,1100.55 -657.834,1098.18C-656.947,1095.82 -656.007,1094.16 -655.014,1093.22C-653.826,1092.09 -652.536,1091.16 -651.144,1090.41C-649.752,1089.66 -648.308,1089.1 -646.811,1088.72C-645.313,1088.35 -643.775,1088.16 -642.196,1088.16C-640.129,1088.16 -638.164,1088.49 -636.3,1089.15C-634.437,1089.81 -632.805,1090.77 -631.405,1092.02L-644.809,1108.01C-643.621,1108.01 -642.493,1107.76 -641.427,1107.27C-640.361,1106.77 -639.381,1106.06 -638.485,1105.14C-637.59,1104.22 -636.793,1103.14 -636.093,1101.91ZM-642.856,1096.22C-643.653,1095.81 -644.467,1095.61 -645.297,1095.61C-646.176,1095.61 -647.026,1095.79 -647.848,1096.15C-648.67,1096.51 -649.252,1096.93 -649.594,1097.42C-650.603,1098.72 -651.107,1100.15 -651.107,1101.71C-651.107,1102.28 -651.051,1102.83 -650.937,1103.35C-650.823,1103.87 -650.627,1104.59 -650.351,1105.5L-642.856,1096.22Z" style="fill:rgb(255,202,57);fill-rule:nonzero;stroke:rgb(42,87,147);stroke-width:2.67px;stroke-linecap:butt;stroke-miterlimit:2;"/>
                <path d="M-611.508,1087.41C-607.292,1086.07 -604.159,1085.4 -602.108,1085.4C-600.481,1085.4 -599.081,1085.74 -597.909,1086.4C-596.461,1087.24 -594.898,1088.65 -593.222,1090.65C-591.545,1092.65 -590.504,1094.51 -590.097,1096.22C-589.234,1099.69 -588.803,1102.71 -588.803,1105.3C-588.803,1106.67 -588.892,1108.11 -589.071,1109.61C-589.25,1111.12 -589.527,1113.05 -589.901,1115.41L-600.107,1116.02C-600.074,1115.21 -600.058,1114.03 -600.058,1112.5C-600.058,1106.12 -600.937,1100.7 -602.694,1096.22C-603.02,1095.42 -603.402,1094.8 -603.842,1094.34C-604.281,1093.88 -604.672,1093.66 -605.014,1093.66C-605.372,1093.66 -605.551,1093.91 -605.551,1094.41C-605.551,1094.71 -605.518,1094.96 -605.453,1095.17C-605.339,1095.43 -605.225,1095.78 -605.111,1096.22C-604.232,1099.75 -603.793,1102.78 -603.793,1105.3C-603.793,1106.54 -603.874,1107.84 -604.037,1109.2C-604.2,1110.56 -604.485,1112.63 -604.892,1115.41L-615.097,1116.02C-615.064,1115.21 -615.048,1114.03 -615.048,1112.5C-615.048,1106.11 -615.935,1100.68 -617.709,1096.22C-617.921,1095.7 -618.083,1095.15 -618.197,1094.57C-618.311,1093.99 -618.393,1093.7 -618.441,1093.7C-618.507,1093.7 -618.694,1094.09 -619.003,1094.85C-619.312,1095.62 -619.646,1096.41 -620.004,1097.22C-620.248,1097.79 -620.447,1098.44 -620.602,1099.17C-620.757,1099.91 -620.871,1100.73 -620.944,1101.64C-621.017,1102.55 -621.054,1103.62 -621.054,1104.86C-621.054,1107.37 -620.907,1110.55 -620.614,1114.41L-632.602,1115.8C-632.797,1114.37 -632.976,1112.94 -633.139,1111.53C-633.301,1110.11 -633.428,1108.8 -633.517,1107.59C-633.607,1106.37 -633.651,1105.07 -633.651,1103.67C-633.651,1103.06 -633.619,1102.19 -633.554,1101.05L-633.993,1086.82L-624.398,1085.6L-623.007,1087.21C-620.435,1086.38 -618.336,1085.97 -616.708,1085.97C-614.901,1085.97 -613.168,1086.45 -611.508,1087.41Z" style="fill:rgb(255,202,57);fill-rule:nonzero;stroke:rgb(42,87,147);stroke-width:2.67px;stroke-linecap:butt;stroke-miterlimit:2;"/>
                <path d="M-568.954,1088.97C-567.799,1089.59 -566.859,1090.42 -566.134,1091.47C-565.41,1092.52 -564.881,1093.7 -564.547,1095.01C-564.214,1096.32 -564.047,1097.68 -564.047,1099.1C-564.047,1100.27 -564.141,1101.4 -564.328,1102.49C-564.515,1103.59 -564.771,1104.59 -565.097,1105.5C-565.422,1106.41 -565.805,1107.18 -566.244,1107.82C-567.27,1109.35 -568.368,1110.66 -569.54,1111.77C-570.712,1112.88 -571.908,1113.77 -573.129,1114.44C-574.35,1115.12 -575.558,1115.62 -576.754,1115.93C-577.951,1116.25 -579.135,1116.41 -580.307,1116.41C-581.69,1116.41 -583.004,1116.19 -584.25,1115.76C-585.495,1115.33 -586.557,1114.77 -587.436,1114.07C-588.884,1112.86 -590.015,1111.24 -590.829,1109.2C-591.643,1107.15 -592.05,1104.99 -592.05,1102.71C-592.05,1098.79 -590.919,1095.63 -588.656,1093.22C-586.719,1091.15 -584.718,1089.59 -582.65,1088.54C-580.583,1087.49 -578.468,1086.97 -576.303,1086.97C-575.033,1086.97 -573.813,1087.13 -572.641,1087.44C-571.469,1087.76 -570.24,1088.27 -568.954,1088.97ZM-570.395,1093.07C-570.671,1094.31 -571.269,1095.4 -572.189,1096.34C-573.109,1097.29 -574.008,1097.76 -574.887,1097.76C-575.326,1097.76 -575.717,1097.64 -576.059,1097.42C-576.547,1097.03 -576.791,1096.34 -576.791,1095.37C-576.791,1094.62 -576.543,1093.88 -576.046,1093.14C-575.55,1092.41 -574.765,1091.83 -573.69,1091.41C-574.765,1091.41 -575.802,1091.61 -576.803,1092.02C-577.804,1092.43 -578.663,1092.95 -579.379,1093.6C-580.095,1094.24 -580.669,1094.96 -581.1,1095.77C-581.531,1096.57 -581.747,1097.38 -581.747,1098.2C-581.747,1099.71 -581.047,1100.91 -579.648,1101.81C-578.345,1102.64 -577.108,1103.06 -575.937,1103.06C-574.781,1103.06 -573.756,1102.67 -572.86,1101.9C-571.965,1101.12 -571.282,1100.13 -570.81,1098.92C-570.338,1097.7 -570.102,1096.51 -570.102,1095.32C-570.102,1094.5 -570.199,1093.75 -570.395,1093.07Z" style="fill:rgb(255,202,57);fill-rule:nonzero;stroke:rgb(42,87,147);stroke-width:2.67px;stroke-linecap:butt;stroke-miterlimit:2;"/>
                <path d="M-555.502,1087.21C-553.695,1086.61 -552.141,1086.15 -550.839,1085.83C-549.537,1085.51 -548.292,1085.36 -547.104,1085.36C-545.509,1085.36 -544.109,1085.71 -542.904,1086.4C-541.456,1087.24 -539.893,1088.65 -538.217,1090.65C-536.54,1092.65 -535.499,1094.51 -535.092,1096.22C-534.229,1099.69 -533.798,1102.71 -533.798,1105.3C-533.798,1106.67 -533.887,1108.11 -534.066,1109.61C-534.246,1111.12 -534.522,1113.05 -534.897,1115.41L-545.102,1116.02C-545.069,1115.21 -545.053,1114.03 -545.053,1112.5C-545.053,1106.12 -545.932,1100.7 -547.69,1096.22C-548.373,1094.54 -549.04,1093.7 -549.691,1093.7C-550.538,1093.7 -551.474,1094.88 -552.499,1097.22C-552.743,1097.79 -552.943,1098.44 -553.097,1099.17C-553.252,1099.91 -553.366,1100.73 -553.439,1101.64C-553.512,1102.55 -553.549,1103.62 -553.549,1104.86C-553.549,1107.37 -553.402,1110.55 -553.109,1114.41L-565.097,1115.8C-565.292,1114.37 -565.471,1112.94 -565.634,1111.53C-565.797,1110.11 -565.923,1108.8 -566.012,1107.59C-566.102,1106.37 -566.147,1105.07 -566.147,1103.67C-566.147,1103.06 -566.114,1102.19 -566.049,1101.05L-566.488,1086.82L-556.894,1085.6L-555.502,1087.21Z" style="fill:rgb(255,202,57);fill-rule:nonzero;stroke:rgb(42,87,147);stroke-width:2.67px;stroke-linecap:butt;stroke-miterlimit:2;"/>
                <path d="M-673.654,1134.6L-684.591,1141.75C-685.324,1139.93 -687.773,1139.02 -691.94,1139.02C-692.884,1139.02 -693.852,1139.69 -694.845,1141.04C-695.838,1142.39 -696.335,1143.92 -696.335,1145.61C-696.253,1146.89 -695.871,1148.13 -695.187,1149.31C-694.503,1150.49 -693.291,1151.12 -691.549,1151.2C-690.247,1151.2 -688.88,1150.85 -687.448,1150.15C-686.016,1149.45 -684.779,1148.05 -683.737,1145.95C-683.672,1146.08 -682.996,1146.69 -681.711,1147.78C-680.425,1148.87 -679.11,1149.96 -677.768,1151.05C-676.425,1152.14 -675.436,1152.95 -674.801,1153.47C-676.038,1156.43 -677.674,1158.75 -679.709,1160.43C-681.743,1162.11 -683.875,1163.25 -686.105,1163.87C-688.335,1164.49 -690.548,1164.8 -692.746,1164.8C-695.822,1164.8 -698.528,1164.22 -700.863,1163.05C-703.199,1161.89 -705.115,1159.9 -706.613,1157.07C-708.11,1154.25 -709.022,1150.43 -709.347,1145.61C-709.38,1145.14 -709.396,1144.42 -709.396,1143.46C-709.396,1141.05 -709.115,1138.74 -708.554,1136.53C-707.992,1134.31 -707.073,1132.32 -705.795,1130.53C-704.517,1128.75 -702.755,1127.3 -700.509,1126.18C-698.263,1125.05 -695.545,1124.47 -692.355,1124.42C-690.239,1124.42 -688.156,1124.67 -686.105,1125.16C-684.054,1125.66 -682.174,1126.35 -680.465,1127.24C-678.756,1128.12 -677.287,1129.21 -676.059,1130.49C-674.83,1131.76 -674.028,1133.13 -673.654,1134.6Z" style="fill:rgb(255,202,57);fill-rule:nonzero;stroke:rgb(42,87,147);stroke-width:2.67px;stroke-linecap:butt;stroke-miterlimit:2;"/>
                <path d="M-655.197,1138.97C-654.041,1139.59 -653.101,1140.42 -652.377,1141.47C-651.653,1142.52 -651.124,1143.7 -650.79,1145.01C-650.456,1146.32 -650.29,1147.68 -650.29,1149.1C-650.29,1150.27 -650.383,1151.4 -650.57,1152.49C-650.758,1153.59 -651.014,1154.59 -651.339,1155.5C-651.665,1156.41 -652.047,1157.18 -652.487,1157.82C-653.512,1159.35 -654.611,1160.66 -655.783,1161.77C-656.955,1162.88 -658.151,1163.77 -659.372,1164.44C-660.592,1165.12 -661.801,1165.62 -662.997,1165.93C-664.193,1166.25 -665.377,1166.41 -666.549,1166.41C-667.933,1166.41 -669.247,1166.19 -670.492,1165.76C-671.737,1165.33 -672.799,1164.77 -673.678,1164.07C-675.127,1162.86 -676.258,1161.24 -677.072,1159.2C-677.886,1157.15 -678.293,1154.99 -678.293,1152.71C-678.293,1148.79 -677.161,1145.63 -674.899,1143.22C-672.962,1141.15 -670.96,1139.59 -668.893,1138.54C-666.826,1137.49 -664.71,1136.97 -662.545,1136.97C-661.276,1136.97 -660.055,1137.13 -658.883,1137.44C-657.711,1137.76 -656.483,1138.27 -655.197,1138.97ZM-656.637,1143.07C-656.914,1144.31 -657.512,1145.4 -658.432,1146.34C-659.351,1147.29 -660.251,1147.76 -661.129,1147.76C-661.569,1147.76 -661.96,1147.64 -662.301,1147.42C-662.79,1147.03 -663.034,1146.34 -663.034,1145.37C-663.034,1144.62 -662.786,1143.88 -662.289,1143.14C-661.793,1142.41 -661.007,1141.83 -659.933,1141.41C-661.007,1141.41 -662.045,1141.61 -663.046,1142.02C-664.047,1142.43 -664.905,1142.95 -665.622,1143.6C-666.338,1144.24 -666.912,1144.96 -667.343,1145.77C-667.774,1146.57 -667.99,1147.38 -667.99,1148.2C-667.99,1149.71 -667.29,1150.91 -665.89,1151.81C-664.588,1152.64 -663.351,1153.06 -662.179,1153.06C-661.024,1153.06 -659.998,1152.67 -659.103,1151.9C-658.208,1151.12 -657.524,1150.13 -657.052,1148.92C-656.58,1147.7 -656.344,1146.51 -656.344,1145.32C-656.344,1144.5 -656.442,1143.75 -656.637,1143.07Z" style="fill:rgb(255,202,57);fill-rule:nonzero;stroke:rgb(42,87,147);stroke-width:2.67px;stroke-linecap:butt;stroke-miterlimit:2;"/>
                <path d="M-636.129,1141.51C-637.025,1141.62 -637.908,1141.91 -638.778,1142.36C-639.649,1142.82 -640.394,1143.36 -641.012,1143.97C-641.631,1144.59 -642.115,1145.27 -642.465,1146.01C-642.815,1146.75 -642.99,1147.48 -642.99,1148.2C-642.99,1149.68 -642.29,1150.88 -640.89,1151.81C-639.653,1152.64 -638.4,1153.06 -637.13,1153.06C-636.886,1153.06 -636.553,1153.02 -636.129,1152.96L-636.129,1147.76C-636.569,1147.76 -636.96,1147.64 -637.301,1147.42C-637.79,1147.03 -638.034,1146.28 -638.034,1145.17C-638.034,1143.58 -637.399,1142.35 -636.129,1141.51ZM-636.349,1117.8L-626.144,1113.21L-625.534,1146.27C-625.404,1147.12 -625.338,1148.08 -625.338,1149.15C-625.338,1150.09 -625.371,1150.79 -625.436,1151.25L-625.143,1166.21L-636.129,1166.8L-636.129,1165.31C-637.92,1166.04 -639.726,1166.41 -641.549,1166.41C-642.949,1166.41 -644.263,1166.2 -645.492,1165.78C-646.721,1165.35 -647.783,1164.78 -648.678,1164.07C-650.127,1162.86 -651.258,1161.24 -652.072,1159.2C-652.886,1157.15 -653.293,1154.99 -653.293,1152.71C-653.293,1148.79 -652.161,1145.63 -649.899,1143.22C-647.946,1141.17 -645.932,1139.61 -643.857,1138.55C-641.781,1137.5 -639.661,1136.97 -637.497,1136.97C-636.894,1136.97 -636.439,1136.98 -636.129,1137.02L-636.349,1117.8Z" style="fill:rgb(255,202,57);fill-rule:nonzero;stroke:rgb(42,87,147);stroke-width:2.67px;stroke-linecap:butt;stroke-miterlimit:2;"/>
                <path d="M-604.831,1151.91L-598.947,1159.01C-599.419,1160.38 -600.538,1161.63 -602.304,1162.77C-604.07,1163.91 -606.169,1164.81 -608.603,1165.47C-611.036,1166.13 -613.465,1166.46 -615.89,1166.46C-618.039,1166.46 -619.955,1166.17 -621.64,1165.61C-623.324,1165.04 -624.622,1164.17 -625.534,1163.02C-627.113,1161.03 -627.902,1158.49 -627.902,1155.4C-627.902,1152.96 -627.458,1150.55 -626.571,1148.18C-625.684,1145.82 -624.744,1144.16 -623.752,1143.22C-622.563,1142.09 -621.273,1141.16 -619.882,1140.41C-618.49,1139.66 -617.046,1139.1 -615.548,1138.73C-614.051,1138.35 -612.513,1138.16 -610.934,1138.16C-608.867,1138.16 -606.902,1138.49 -605.038,1139.15C-603.175,1139.81 -601.543,1140.77 -600.143,1142.02L-613.546,1158.01C-612.358,1158.01 -611.231,1157.76 -610.165,1157.27C-609.099,1156.77 -608.118,1156.06 -607.223,1155.14C-606.328,1154.22 -605.53,1153.14 -604.831,1151.91ZM-611.593,1146.22C-612.391,1145.81 -613.205,1145.61 -614.035,1145.61C-614.914,1145.61 -615.764,1145.79 -616.586,1146.15C-617.408,1146.51 -617.99,1146.93 -618.332,1147.42C-619.341,1148.72 -619.845,1150.15 -619.845,1151.71C-619.845,1152.28 -619.788,1152.83 -619.674,1153.35C-619.56,1153.87 -619.365,1154.59 -619.088,1155.5L-611.593,1146.22Z" style="fill:rgb(255,202,57);fill-rule:nonzero;stroke:rgb(42,87,147);stroke-width:2.67px;stroke-linecap:butt;stroke-miterlimit:2;"/>
                <path d="M-584.836,1160.77L-590.744,1168.41L-603.341,1168.8L-591.134,1152.66L-604.928,1134.82L-591.549,1135.4L-584.836,1144.27L-578.146,1135.4L-564.743,1134.82L-578.537,1152.66L-566.33,1168.8L-578.952,1168.41L-584.836,1160.77Z" style="fill:rgb(255,202,57);fill-rule:nonzero;stroke:rgb(42,87,147);stroke-width:2.67px;stroke-linecap:butt;stroke-miterlimit:2;"/>
            </g>
            <g id="venetionBlinds" transform="matrix(0.323438,0,0,1,-1.35003e-14,0)">
                <g transform="matrix(1,0,0,1,-2.27374e-13,-45.469)">
                    <path d="M0,53.365L2560,53.365" style="fill:none;stroke:rgb(116,116,116);stroke-width:0.56px;"/>
                </g>
                <g transform="matrix(1,0,0,1,-2.27374e-13,-36.469)">
                    <path d="M0,53.365L2560,53.365" style="fill:none;stroke:rgb(116,116,116);stroke-width:0.56px;"/>
                </g>
                <g transform="matrix(1,0,0,1,-2.27374e-13,-28.469)">
                    <path d="M0,53.365L2560,53.365" style="fill:none;stroke:rgb(116,116,116);stroke-width:0.56px;"/>
                </g>
                <g transform="matrix(1,0,0,1,-2.27374e-13,-19.469)">
                    <path d="M0,53.365L2560,53.365" style="fill:none;stroke:rgb(116,116,116);stroke-width:0.56px;"/>
                </g>
                <g transform="matrix(1,0,0,1,-2.27374e-13,-11.469)">
                    <path d="M0,53.365L2560,53.365" style="fill:none;stroke:rgb(116,116,116);stroke-width:0.56px;"/>
                </g>
                <g transform="matrix(1,0,0,1,-2.27374e-13,-2.46895)">
                    <path d="M0,53.365L2560,53.365" style="fill:none;stroke:rgb(116,116,116);stroke-width:0.56px;"/>
                </g>
                <g transform="matrix(1,0,0,1,-2.27374e-13,5.53105)">
                    <path d="M0,53.365L2560,53.365" style="fill:none;stroke:rgb(116,116,116);stroke-width:0.56px;"/>
                </g>
                <g transform="matrix(1,0,0,1,-2.27374e-13,14.531)">
                    <path d="M0,53.365L2560,53.365" style="fill:none;stroke:rgb(116,116,116);stroke-width:0.56px;"/>
                </g>
                <g transform="matrix(1,0,0,1,-2.27374e-13,22.531)">
                    <path d="M0,53.365L2560,53.365" style="fill:none;stroke:rgb(116,116,116);stroke-width:0.56px;"/>
                </g>
                <g transform="matrix(1,0,0,1,-2.27374e-13,31.531)">
                    <path d="M0,53.365L2560,53.365" style="fill:none;stroke:rgb(116,116,116);stroke-width:0.56px;"/>
                </g>
                <g transform="matrix(1,0,0,1,-2.27374e-13,39.531)">
                    <path d="M0,53.365L2560,53.365" style="fill:none;stroke:rgb(116,116,116);stroke-width:0.56px;"/>
                </g>
                <g transform="matrix(1,0,0,1,-2.27374e-13,48.531)">
                    <path d="M0,53.365L2560,53.365" style="fill:none;stroke:rgb(116,116,116);stroke-width:0.56px;"/>
                </g>
                <g transform="matrix(1,0,0,1,-2.27374e-13,56.531)">
                    <path d="M0,53.365L2560,53.365" style="fill:none;stroke:rgb(116,116,116);stroke-width:0.56px;"/>
                </g>
                <g transform="matrix(1,0,0,1,-2.27374e-13,65.531)">
                    <path d="M0,53.365L2560,53.365" style="fill:none;stroke:rgb(116,116,116);stroke-width:0.56px;"/>
                </g>
                <g transform="matrix(1,0,0,1,-2.27374e-13,73.531)">
                    <path d="M0,53.365L2560,53.365" style="fill:none;stroke:rgb(116,116,116);stroke-width:0.56px;"/>
                </g>
                <g transform="matrix(1,0,0,1,-2.27374e-13,82.531)">
                    <path d="M0,53.365L2560,53.365" style="fill:none;stroke:rgb(116,116,116);stroke-width:0.56px;"/>
                </g>
                <g transform="matrix(1,0,0,1,-2.27374e-13,90.531)">
                    <path d="M0,53.365L2560,53.365" style="fill:none;stroke:rgb(116,116,116);stroke-width:0.56px;"/>
                </g>
                <g transform="matrix(1,0,0,1,-2.27374e-13,99.531)">
                    <path d="M0,53.365L2560,53.365" style="fill:none;stroke:rgb(116,116,116);stroke-width:0.56px;"/>
                </g>
                <g transform="matrix(1,0,0,1,-2.27374e-13,107.531)">
                    <path d="M0,53.365L2560,53.365" style="fill:none;stroke:rgb(116,116,116);stroke-width:0.56px;"/>
                </g>
                <g transform="matrix(1,0,0,1,-2.27374e-13,116.531)">
                    <path d="M0,53.365L2560,53.365" style="fill:none;stroke:rgb(116,116,116);stroke-width:0.56px;"/>
                </g>
                <g transform="matrix(1,0,0,1,-2.27374e-13,124.531)">
                    <path d="M0,53.365L2560,53.365" style="fill:none;stroke:rgb(116,116,116);stroke-width:0.56px;"/>
                </g>
                <g transform="matrix(1,0,0,1,-2.27374e-13,133.531)">
                    <path d="M0,53.365L2560,53.365" style="fill:none;stroke:rgb(116,116,116);stroke-width:0.56px;"/>
                </g>
                <g transform="matrix(1,0,0,1,-2.27374e-13,141.531)">
                    <path d="M0,53.365L2560,53.365" style="fill:none;stroke:rgb(116,116,116);stroke-width:0.56px;"/>
                </g>
                <g transform="matrix(1,0,0,1,-2.27374e-13,150.531)">
                    <path d="M0,53.365L2560,53.365" style="fill:none;stroke:rgb(116,116,116);stroke-width:0.56px;"/>
                </g>
                <g transform="matrix(1,0,0,1,-2.27374e-13,158.531)">
                    <path d="M0,53.365L2560,53.365" style="fill:none;stroke:rgb(116,116,116);stroke-width:0.56px;"/>
                </g>
                <g transform="matrix(1,0,0,1,-2.27374e-13,167.531)">
                    <path d="M0,53.365L2560,53.365" style="fill:none;stroke:rgb(116,116,116);stroke-width:0.56px;"/>
                </g>
                <g transform="matrix(1,0,0,1,-2.27374e-13,175.531)">
                    <path d="M0,53.365L2560,53.365" style="fill:none;stroke:rgb(116,116,116);stroke-width:0.56px;"/>
                </g>
                <g transform="matrix(1,0,0,1,-2.27374e-13,184.531)">
                    <path d="M0,53.365L2560,53.365" style="fill:none;stroke:rgb(116,116,116);stroke-width:0.56px;"/>
                </g>
                <g transform="matrix(1,0,0,1,-2.27374e-13,192.531)">
                    <path d="M0,53.365L2560,53.365" style="fill:none;stroke:rgb(116,116,116);stroke-width:0.56px;"/>
                </g>
                <g transform="matrix(1,0,0,1,-2.27374e-13,201.531)">
                    <path d="M0,53.365L2560,53.365" style="fill:none;stroke:rgb(116,116,116);stroke-width:0.56px;"/>
                </g>
                <g transform="matrix(1,0,0,1,-2.27374e-13,209.531)">
                    <path d="M0,53.365L2560,53.365" style="fill:none;stroke:rgb(116,116,116);stroke-width:0.56px;"/>
                </g>
                <g transform="matrix(1,0,0,1,-2.27374e-13,218.531)">
                    <path d="M0,53.365L2560,53.365" style="fill:none;stroke:rgb(116,116,116);stroke-width:0.56px;"/>
                </g>
                <g transform="matrix(1,0,0,1,-2.27374e-13,226.531)">
                    <path d="M0,53.365L2560,53.365" style="fill:none;stroke:rgb(116,116,116);stroke-width:0.56px;"/>
                </g>
                <g transform="matrix(1,0,0,1,-2.27374e-13,235.531)">
                    <path d="M0,53.365L2560,53.365" style="fill:none;stroke:rgb(116,116,116);stroke-width:0.56px;"/>
                </g>
                <g transform="matrix(1,0,0,1,-2.27374e-13,243.531)">
                    <path d="M0,53.365L2560,53.365" style="fill:none;stroke:rgb(116,116,116);stroke-width:0.56px;"/>
                </g>
                <g transform="matrix(1,0,0,1,-2.27374e-13,252.531)">
                    <path d="M0,53.365L2560,53.365" style="fill:none;stroke:rgb(116,116,116);stroke-width:0.56px;"/>
                </g>
                <g transform="matrix(1,0,0,1,-2.27374e-13,260.531)">
                    <path d="M0,53.365L2560,53.365" style="fill:none;stroke:rgb(116,116,116);stroke-width:0.56px;"/>
                </g>
                <g transform="matrix(1,0,0,1,-2.27374e-13,269.531)">
                    <path d="M0,53.365L2560,53.365" style="fill:none;stroke:rgb(116,116,116);stroke-width:0.56px;"/>
                </g>
                <g transform="matrix(1,0,0,1,-2.27374e-13,277.531)">
                    <path d="M0,53.365L2560,53.365" style="fill:none;stroke:rgb(116,116,116);stroke-width:0.56px;"/>
                </g>
                <g transform="matrix(1,0,0,1,-2.27374e-13,286.531)">
                    <path d="M0,53.365L2560,53.365" style="fill:none;stroke:rgb(116,116,116);stroke-width:0.56px;"/>
                </g>
                <g transform="matrix(1,0,0,1,-2.27374e-13,294.531)">
                    <path d="M0,53.365L2560,53.365" style="fill:none;stroke:rgb(116,116,116);stroke-width:0.56px;"/>
                </g>
                <g transform="matrix(1,0,0,1,-2.27374e-13,303.531)">
                    <path d="M0,53.365L2560,53.365" style="fill:none;stroke:rgb(116,116,116);stroke-width:0.56px;"/>
                </g>
                <g transform="matrix(1,0,0,1,-2.27374e-13,311.531)">
                    <path d="M0,53.365L2560,53.365" style="fill:none;stroke:rgb(116,116,116);stroke-width:0.56px;"/>
                </g>
                <g transform="matrix(1,0,0,1,-2.27374e-13,320.531)">
                    <path d="M0,53.365L2560,53.365" style="fill:none;stroke:rgb(116,116,116);stroke-width:0.56px;"/>
                </g>
                <g transform="matrix(1,0,0,1,-2.27374e-13,328.531)">
                    <path d="M0,53.365L2560,53.365" style="fill:none;stroke:rgb(116,116,116);stroke-width:0.56px;"/>
                </g>
                <g transform="matrix(1,0,0,1,-2.27374e-13,337.531)">
                    <path d="M0,53.365L2560,53.365" style="fill:none;stroke:rgb(116,116,116);stroke-width:0.56px;"/>
                </g>
                <g transform="matrix(1,0,0,1,-2.27374e-13,345.531)">
                    <path d="M0,53.365L2560,53.365" style="fill:none;stroke:rgb(116,116,116);stroke-width:0.56px;"/>
                </g>
                <g transform="matrix(1,0,0,1,-2.27374e-13,354.531)">
                    <path d="M0,53.365L2560,53.365" style="fill:none;stroke:rgb(116,116,116);stroke-width:0.56px;"/>
                </g>
                <g transform="matrix(1,0,0,1,-2.27374e-13,362.531)">
                    <path d="M0,53.365L2560,53.365" style="fill:none;stroke:rgb(116,116,116);stroke-width:0.56px;"/>
                </g>
                <g transform="matrix(1,0,0,1,-2.27374e-13,371.531)">
                    <path d="M0,53.365L2560,53.365" style="fill:none;stroke:rgb(116,116,116);stroke-width:0.56px;"/>
                </g>
                <g transform="matrix(1,0,0,1,-2.27374e-13,379.531)">
                    <path d="M0,53.365L2560,53.365" style="fill:none;stroke:rgb(116,116,116);stroke-width:0.56px;"/>
                </g>
                <g transform="matrix(1,0,0,1,-2.27374e-13,388.531)">
                    <path d="M0,53.365L2560,53.365" style="fill:none;stroke:rgb(116,116,116);stroke-width:0.56px;"/>
                </g>
                <g transform="matrix(1,0,0,1,-2.27374e-13,396.531)">
                    <path d="M0,53.365L2560,53.365" style="fill:none;stroke:rgb(116,116,116);stroke-width:0.56px;"/>
                </g>
                <g transform="matrix(1,0,0,1,-2.27374e-13,405.531)">
                    <path d="M0,53.365L2560,53.365" style="fill:none;stroke:rgb(116,116,116);stroke-width:0.56px;"/>
                </g>
                <g transform="matrix(1,0,0,1,-2.27374e-13,413.531)">
                    <path d="M0,53.365L2560,53.365" style="fill:none;stroke:rgb(116,116,116);stroke-width:0.56px;"/>
                </g>
                <g transform="matrix(1,0,0,1,-2.27374e-13,422.531)">
                    <path d="M0,53.365L2560,53.365" style="fill:none;stroke:rgb(116,116,116);stroke-width:0.56px;"/>
                </g>
                <g transform="matrix(1,0,0,1,-2.27374e-13,430.531)">
                    <path d="M0,53.365L2560,53.365" style="fill:none;stroke:rgb(116,116,116);stroke-width:0.56px;"/>
                </g>
                <g transform="matrix(1,0,0,1,-2.27374e-13,439.531)">
                    <path d="M0,53.365L2560,53.365" style="fill:none;stroke:rgb(116,116,116);stroke-width:0.56px;"/>
                </g>
                <g transform="matrix(1,0,0,1,-2.27374e-13,447.531)">
                    <path d="M0,53.365L2560,53.365" style="fill:none;stroke:rgb(116,116,116);stroke-width:0.56px;"/>
                </g>
                <g transform="matrix(1,0,0,1,-2.27374e-13,456.531)">
                    <path d="M0,53.365L2560,53.365" style="fill:none;stroke:rgb(116,116,116);stroke-width:0.56px;"/>
                </g>
                <g transform="matrix(1,0,0,1,-2.27374e-13,464.531)">
                    <path d="M0,53.365L2560,53.365" style="fill:none;stroke:rgb(116,116,116);stroke-width:0.56px;"/>
                </g>
                <g transform="matrix(1,0,0,1,-2.27374e-13,473.531)">
                    <path d="M0,53.365L2560,53.365" style="fill:none;stroke:rgb(116,116,116);stroke-width:0.56px;"/>
                </g>
                <g transform="matrix(1,0,0,1,-2.27374e-13,481.531)">
                    <path d="M0,53.365L2560,53.365" style="fill:none;stroke:rgb(116,116,116);stroke-width:0.56px;"/>
                </g>
                <g transform="matrix(1,0,0,1,-2.27374e-13,490.531)">
                    <path d="M0,53.365L2560,53.365" style="fill:none;stroke:rgb(116,116,116);stroke-width:0.56px;"/>
                </g>
                <g transform="matrix(1,0,0,1,-2.27374e-13,498.531)">
                    <path d="M0,53.365L2560,53.365" style="fill:none;stroke:rgb(116,116,116);stroke-width:0.56px;"/>
                </g>
                <g transform="matrix(1,0,0,1,-2.27374e-13,507.531)">
                    <path d="M0,53.365L2560,53.365" style="fill:none;stroke:rgb(116,116,116);stroke-width:0.56px;"/>
                </g>
                <g transform="matrix(1,0,0,1,-2.27374e-13,515.531)">
                    <path d="M0,53.365L2560,53.365" style="fill:none;stroke:rgb(116,116,116);stroke-width:0.56px;"/>
                </g>
                <g transform="matrix(1,0,0,1,-2.27374e-13,524.531)">
                    <path d="M0,53.365L2560,53.365" style="fill:none;stroke:rgb(116,116,116);stroke-width:0.56px;"/>
                </g>
                <g transform="matrix(1,0,0,1,-2.27374e-13,532.531)">
                    <path d="M0,53.365L2560,53.365" style="fill:none;stroke:rgb(116,116,116);stroke-width:0.56px;"/>
                </g>
                <g transform="matrix(1,0,0,1,-2.27374e-13,541.531)">
                    <path d="M0,53.365L2560,53.365" style="fill:none;stroke:rgb(116,116,116);stroke-width:0.56px;"/>
                </g>
                <g transform="matrix(1,0,0,1,-2.27374e-13,549.531)">
                    <path d="M0,53.365L2560,53.365" style="fill:none;stroke:rgb(116,116,116);stroke-width:0.56px;"/>
                </g>
                <g transform="matrix(1,0,0,1,-2.27374e-13,558.531)">
                    <path d="M0,53.365L2560,53.365" style="fill:none;stroke:rgb(116,116,116);stroke-width:0.56px;"/>
                </g>
                <g transform="matrix(1,0,0,1,-2.27374e-13,566.531)">
                    <path d="M0,53.365L2560,53.365" style="fill:none;stroke:rgb(116,116,116);stroke-width:0.56px;"/>
                </g>
                <g transform="matrix(1,0,0,1,-2.27374e-13,575.531)">
                    <path d="M0,53.365L2560,53.365" style="fill:none;stroke:rgb(116,116,116);stroke-width:0.56px;"/>
                </g>
                <g transform="matrix(1,0,0,1,-2.27374e-13,583.531)">
                    <path d="M0,53.365L2560,53.365" style="fill:none;stroke:rgb(116,116,116);stroke-width:0.56px;"/>
                </g>
                <g transform="matrix(1,0,0,1,-2.27374e-13,592.531)">
                    <path d="M0,53.365L2560,53.365" style="fill:none;stroke:rgb(116,116,116);stroke-width:0.56px;"/>
                </g>
                <g transform="matrix(1,0,0,1,-2.27374e-13,600.531)">
                    <path d="M0,53.365L2560,53.365" style="fill:none;stroke:rgb(116,116,116);stroke-width:0.56px;"/>
                </g>
                <g transform="matrix(1,0,0,1,-2.27374e-13,609.531)">
                    <path d="M0,53.365L2560,53.365" style="fill:none;stroke:rgb(116,116,116);stroke-width:0.56px;"/>
                </g>
                <g transform="matrix(1,0,0,1,-2.27374e-13,617.531)">
                    <path d="M0,53.365L2560,53.365" style="fill:none;stroke:rgb(116,116,116);stroke-width:0.56px;"/>
                </g>
                <g transform="matrix(1,0,0,1,-2.27374e-13,626.531)">
                    <path d="M0,53.365L2560,53.365" style="fill:none;stroke:rgb(116,116,116);stroke-width:0.56px;"/>
                </g>
                <g transform="matrix(1,0,0,1,-2.27374e-13,634.531)">
                    <path d="M0,53.365L2560,53.365" style="fill:none;stroke:rgb(116,116,116);stroke-width:0.56px;"/>
                </g>
                <g transform="matrix(1,0,0,1,-2.27374e-13,643.531)">
                    <path d="M0,53.365L2560,53.365" style="fill:none;stroke:rgb(116,116,116);stroke-width:0.56px;"/>
                </g>
                <g transform="matrix(1,0,0,1,-2.27374e-13,651.531)">
                    <path d="M0,53.365L2560,53.365" style="fill:none;stroke:rgb(116,116,116);stroke-width:0.56px;"/>
                </g>
                <g transform="matrix(1,0,0,1,-2.27374e-13,660.531)">
                    <path d="M0,53.365L2560,53.365" style="fill:none;stroke:rgb(116,116,116);stroke-width:0.56px;"/>
                </g>
                <g transform="matrix(1,0,0,1,-2.27374e-13,668.531)">
                    <path d="M0,53.365L2560,53.365" style="fill:none;stroke:rgb(116,116,116);stroke-width:0.56px;"/>
                </g>
                <g transform="matrix(1,0,0,1,-2.27374e-13,677.531)">
                    <path d="M0,53.365L2560,53.365" style="fill:none;stroke:rgb(116,116,116);stroke-width:0.56px;"/>
                </g>
                <g transform="matrix(1,0,0,1,-2.27374e-13,685.531)">
                    <path d="M0,53.365L2560,53.365" style="fill:none;stroke:rgb(116,116,116);stroke-width:0.56px;"/>
                </g>
                <g transform="matrix(1,0,0,1,-2.27374e-13,694.531)">
                    <path d="M0,53.365L2560,53.365" style="fill:none;stroke:rgb(116,116,116);stroke-width:0.56px;"/>
                </g>
                <g transform="matrix(1,0,0,1,-2.27374e-13,702.531)">
                    <path d="M0,53.365L2560,53.365" style="fill:none;stroke:rgb(116,116,116);stroke-width:0.56px;"/>
                </g>
                <g transform="matrix(1,0,0,1,-2.27374e-13,711.531)">
                    <path d="M0,53.365L2560,53.365" style="fill:none;stroke:rgb(116,116,116);stroke-width:0.56px;"/>
                </g>
                <g transform="matrix(1,0,0,1,-2.27374e-13,719.531)">
                    <path d="M0,53.365L2560,53.365" style="fill:none;stroke:rgb(116,116,116);stroke-width:0.56px;"/>
                </g>
                <g transform="matrix(1,0,0,1,-2.27374e-13,728.531)">
                    <path d="M0,53.365L2560,53.365" style="fill:none;stroke:rgb(116,116,116);stroke-width:0.56px;"/>
                </g>
                <g transform="matrix(1,0,0,1,-2.27374e-13,736.531)">
                    <path d="M0,53.365L2560,53.365" style="fill:none;stroke:rgb(116,116,116);stroke-width:0.56px;"/>
                </g>
                <g transform="matrix(1,0,0,1,-2.27374e-13,745.531)">
                    <path d="M0,53.365L2560,53.365" style="fill:none;stroke:rgb(116,116,116);stroke-width:0.56px;"/>
                </g>
                <g transform="matrix(1,0,0,1,-2.27374e-13,753.531)">
                    <path d="M0,53.365L2560,53.365" style="fill:none;stroke:rgb(116,116,116);stroke-width:0.56px;"/>
                </g>
                <g transform="matrix(1,0,0,1,-2.27374e-13,762.531)">
                    <path d="M0,53.365L2560,53.365" style="fill:none;stroke:rgb(116,116,116);stroke-width:0.56px;"/>
                </g>
                <g transform="matrix(1,0,0,1,-2.27374e-13,770.531)">
                    <path d="M0,53.365L2560,53.365" style="fill:none;stroke:rgb(116,116,116);stroke-width:0.56px;"/>
                </g>
                <g transform="matrix(1,0,0,1,-2.27374e-13,779.531)">
                    <path d="M0,53.365L2560,53.365" style="fill:none;stroke:rgb(116,116,116);stroke-width:0.56px;"/>
                </g>
                <g transform="matrix(1,0,0,1,-2.27374e-13,787.531)">
                    <path d="M0,53.365L2560,53.365" style="fill:none;stroke:rgb(116,116,116);stroke-width:0.56px;"/>
                </g>
                <g transform="matrix(1,0,0,1,-2.27374e-13,796.531)">
                    <path d="M0,53.365L2560,53.365" style="fill:none;stroke:rgb(116,116,116);stroke-width:0.56px;"/>
                </g>
                <g transform="matrix(1,0,0,1,-2.27374e-13,804.531)">
                    <path d="M0,53.365L2560,53.365" style="fill:none;stroke:rgb(116,116,116);stroke-width:0.56px;"/>
                </g>
                <g transform="matrix(1,0,0,1,-2.27374e-13,813.531)">
                    <path d="M0,53.365L2560,53.365" style="fill:none;stroke:rgb(116,116,116);stroke-width:0.56px;"/>
                </g>
                <g transform="matrix(1,0,0,1,-2.27374e-13,821.531)">
                    <path d="M0,53.365L2560,53.365" style="fill:none;stroke:rgb(116,116,116);stroke-width:0.56px;"/>
                </g>
                <g transform="matrix(1,0,0,1,-2.27374e-13,830.531)">
                    <path d="M0,53.365L2560,53.365" style="fill:none;stroke:rgb(116,116,116);stroke-width:0.56px;"/>
                </g>
                <g transform="matrix(1,0,0,1,-2.27374e-13,838.531)">
                    <path d="M0,53.365L2560,53.365" style="fill:none;stroke:rgb(116,116,116);stroke-width:0.56px;"/>
                </g>
                <g transform="matrix(1,0,0,1,-2.27374e-13,847.531)">
                    <path d="M0,53.365L2560,53.365" style="fill:none;stroke:rgb(116,116,116);stroke-width:0.56px;"/>
                </g>
                <g transform="matrix(1,0,0,1,-2.27374e-13,855.531)">
                    <path d="M0,53.365L2560,53.365" style="fill:none;stroke:rgb(116,116,116);stroke-width:0.56px;"/>
                </g>
                <g transform="matrix(1,0,0,1,-2.27374e-13,864.531)">
                    <path d="M0,53.365L2560,53.365" style="fill:none;stroke:rgb(116,116,116);stroke-width:0.56px;"/>
                </g>
                <g transform="matrix(1,0,0,1,-2.27374e-13,872.531)">
                    <path d="M0,53.365L2560,53.365" style="fill:none;stroke:rgb(116,116,116);stroke-width:0.56px;"/>
                </g>
                <g transform="matrix(1,0,0,1,-2.27374e-13,881.531)">
                    <path d="M0,53.365L2560,53.365" style="fill:none;stroke:rgb(116,116,116);stroke-width:0.56px;"/>
                </g>
                <g transform="matrix(1,0,0,1,-2.27374e-13,889.531)">
                    <path d="M0,53.365L2560,53.365" style="fill:none;stroke:rgb(116,116,116);stroke-width:0.56px;"/>
                </g>
                <g transform="matrix(1,0,0,1,-2.27374e-13,898.531)">
                    <path d="M0,53.365L2560,53.365" style="fill:none;stroke:rgb(116,116,116);stroke-width:0.56px;"/>
                </g>
                <g transform="matrix(1,0,0,1,-2.27374e-13,906.531)">
                    <path d="M0,53.365L2560,53.365" style="fill:none;stroke:rgb(116,116,116);stroke-width:0.56px;"/>
                </g>
                <g transform="matrix(1,0,0,1,-2.27374e-13,915.531)">
                    <path d="M0,53.365L2560,53.365" style="fill:none;stroke:rgb(116,116,116);stroke-width:0.56px;"/>
                </g>
                <g transform="matrix(1,0,0,1,-2.27374e-13,923.531)">
                    <path d="M0,53.365L2560,53.365" style="fill:none;stroke:rgb(116,116,116);stroke-width:0.56px;"/>
                </g>
                <g transform="matrix(1,0,0,1,-2.27374e-13,932.531)">
                    <path d="M0,53.365L2560,53.365" style="fill:none;stroke:rgb(116,116,116);stroke-width:0.56px;"/>
                </g>
                <g transform="matrix(1,0,0,1,-2.27374e-13,940.531)">
                    <path d="M0,53.365L2560,53.365" style="fill:none;stroke:rgb(116,116,116);stroke-width:0.56px;"/>
                </g>
                <g transform="matrix(1,0,0,1,-2.27374e-13,949.531)">
                    <path d="M0,53.365L2560,53.365" style="fill:none;stroke:rgb(116,116,116);stroke-width:0.56px;"/>
                </g>
                <g transform="matrix(1,0,0,1,-2.27374e-13,957.531)">
                    <path d="M0,53.365L2560,53.365" style="fill:none;stroke:rgb(116,116,116);stroke-width:0.56px;"/>
                </g>
                <g transform="matrix(1,0,0,1,-2.27374e-13,966.531)">
                    <path d="M0,53.365L2560,53.365" style="fill:none;stroke:rgb(116,116,116);stroke-width:0.56px;"/>
                </g>
                <g transform="matrix(1,0,0,1,-2.27374e-13,974.531)">
                    <path d="M0,53.365L2560,53.365" style="fill:none;stroke:rgb(116,116,116);stroke-width:0.56px;"/>
                </g>
                <g transform="matrix(1,0,0,1,-2.27374e-13,983.531)">
                    <path d="M0,53.365L2560,53.365" style="fill:none;stroke:rgb(116,116,116);stroke-width:0.56px;"/>
                </g>
                <g transform="matrix(1,0,0,1,-2.27374e-13,991.531)">
                    <path d="M0,53.365L2560,53.365" style="fill:none;stroke:rgb(116,116,116);stroke-width:0.56px;"/>
                </g>
                <g transform="matrix(1,0,0,1,-2.27374e-13,1000.53)">
                    <path d="M0,53.365L2560,53.365" style="fill:none;stroke:rgb(116,116,116);stroke-width:0.56px;"/>
                </g>
                <g transform="matrix(1,0,0,1,-2.27374e-13,1008.53)">
                    <path d="M0,53.365L2560,53.365" style="fill:none;stroke:rgb(116,116,116);stroke-width:0.56px;"/>
                </g>
                <g transform="matrix(1,0,0,1,-2.27374e-13,1017.53)">
                    <path d="M0,53.365L2560,53.365" style="fill:none;stroke:rgb(116,116,116);stroke-width:0.56px;"/>
                </g>
                <g transform="matrix(1,0,0,1,-2.27374e-13,1025.53)">
                    <path d="M0,53.365L2560,53.365" style="fill:none;stroke:rgb(116,116,116);stroke-width:0.56px;"/>
                </g>
                <g transform="matrix(1,0,0,1,-2.27374e-13,1034.53)">
                    <path d="M0,53.365L2560,53.365" style="fill:none;stroke:rgb(116,116,116);stroke-width:0.56px;"/>
                </g>
                <g transform="matrix(1,0,0,1,-2.27374e-13,1042.53)">
                    <path d="M0,53.365L2560,53.365" style="fill:none;stroke:rgb(116,116,116);stroke-width:0.56px;"/>
                </g>
                <g transform="matrix(1,0,0,1,-2.27374e-13,1051.53)">
                    <path d="M0,53.365L2560,53.365" style="fill:none;stroke:rgb(116,116,116);stroke-width:0.56px;"/>
                </g>
                <g transform="matrix(1,0,0,1,-2.27374e-13,1059.53)">
                    <path d="M0,53.365L2560,53.365" style="fill:none;stroke:rgb(116,116,116);stroke-width:0.56px;"/>
                </g>
                <g transform="matrix(1,0,0,1,-2.27374e-13,1068.53)">
                    <path d="M0,53.365L2560,53.365" style="fill:none;stroke:rgb(116,116,116);stroke-width:0.56px;"/>
                </g>
                <g transform="matrix(1,0,0,1,-2.27374e-13,1076.53)">
                    <path d="M0,53.365L2560,53.365" style="fill:none;stroke:rgb(116,116,116);stroke-width:0.56px;"/>
                </g>
                <g transform="matrix(1,0,0,1,-2.27374e-13,1085.53)">
                    <path d="M0,53.365L2560,53.365" style="fill:none;stroke:rgb(116,116,116);stroke-width:0.56px;"/>
                </g>
                <g transform="matrix(1,0,0,1,-2.27374e-13,1093.53)">
                    <path d="M0,53.365L2560,53.365" style="fill:none;stroke:rgb(116,116,116);stroke-width:0.56px;"/>
                </g>
                <g transform="matrix(1,0,0,1,-2.27374e-13,1102.53)">
                    <path d="M0,53.365L2560,53.365" style="fill:none;stroke:rgb(116,116,116);stroke-width:0.56px;"/>
                </g>
                <g transform="matrix(1,0,0,1,-2.27374e-13,1110.53)">
                    <path d="M0,53.365L2560,53.365" style="fill:none;stroke:rgb(116,116,116);stroke-width:0.56px;"/>
                </g>
                <g transform="matrix(1,0,0,1,-2.27374e-13,1119.53)">
                    <path d="M0,53.365L2560,53.365" style="fill:none;stroke:rgb(116,116,116);stroke-width:0.56px;"/>
                </g>
                <g transform="matrix(1,0,0,1,-2.27374e-13,1127.53)">
                    <path d="M0,53.365L2560,53.365" style="fill:none;stroke:rgb(116,116,116);stroke-width:0.56px;"/>
                </g>
                <g transform="matrix(1,0,0,1,-2.27374e-13,1136.53)">
                    <path d="M0,53.365L2560,53.365" style="fill:none;stroke:rgb(116,116,116);stroke-width:0.56px;"/>
                </g>
                <g transform="matrix(1,0,0,1,-2.27374e-13,1144.53)">
                    <path d="M0,53.365L2560,53.365" style="fill:none;stroke:rgb(116,116,116);stroke-width:0.56px;"/>
                </g>
                <g transform="matrix(1,0,0,1,-2.27374e-13,1153.53)">
                    <path d="M0,53.365L2560,53.365" style="fill:none;stroke:rgb(116,116,116);stroke-width:0.56px;"/>
                </g>
                <g transform="matrix(1,0,0,1,-2.27374e-13,1161.53)">
                    <path d="M0,53.365L2560,53.365" style="fill:none;stroke:rgb(116,116,116);stroke-width:0.56px;"/>
                </g>
                <g transform="matrix(1,0,0,1,-2.27374e-13,1170.53)">
                    <path d="M0,53.365L2560,53.365" style="fill:none;stroke:rgb(116,116,116);stroke-width:0.56px;"/>
                </g>
                <g transform="matrix(1,0,0,1,-2.27374e-13,1178.53)">
                    <path d="M0,53.365L2560,53.365" style="fill:none;stroke:rgb(116,116,116);stroke-width:0.56px;"/>
                </g>
                <g transform="matrix(1,0,0,1,-2.27374e-13,1187.53)">
                    <path d="M0,53.365L2560,53.365" style="fill:none;stroke:rgb(116,116,116);stroke-width:0.56px;"/>
                </g>
                <g transform="matrix(1,0,0,1,-2.27374e-13,1195.53)">
                    <path d="M0,53.365L2560,53.365" style="fill:none;stroke:rgb(116,116,116);stroke-width:0.56px;"/>
                </g>
                <g transform="matrix(1,0,0,1,-2.27374e-13,1204.53)">
                    <path d="M0,53.365L2560,53.365" style="fill:none;stroke:rgb(116,116,116);stroke-width:0.56px;"/>
                </g>
                <g transform="matrix(1,0,0,1,-2.27374e-13,1212.53)">
                    <path d="M0,53.365L2560,53.365" style="fill:none;stroke:rgb(116,116,116);stroke-width:0.56px;"/>
                </g>
                <g transform="matrix(1,0,0,1,-2.27374e-13,1221.53)">
                    <path d="M0,53.365L2560,53.365" style="fill:none;stroke:rgb(116,116,116);stroke-width:0.56px;"/>
                </g>
                <g transform="matrix(1,0,0,1,-2.27374e-13,1229.53)">
                    <path d="M0,53.365L2560,53.365" style="fill:none;stroke:rgb(116,116,116);stroke-width:0.56px;"/>
                </g>
                <g transform="matrix(1,0,0,1,-2.27374e-13,1238.53)">
                    <path d="M0,53.365L2560,53.365" style="fill:none;stroke:rgb(116,116,116);stroke-width:0.56px;"/>
                </g>
                <g transform="matrix(1,0,0,1,-2.27374e-13,1246.53)">
                    <path d="M0,53.365L2560,53.365" style="fill:none;stroke:rgb(116,116,116);stroke-width:0.56px;"/>
                </g>
                <g transform="matrix(1,0,0,1,-2.27374e-13,1255.53)">
                    <path d="M0,53.365L2560,53.365" style="fill:none;stroke:rgb(116,116,116);stroke-width:0.56px;"/>
                </g>
                <g transform="matrix(1,0,0,1,-2.27374e-13,1263.53)">
                    <path d="M0,53.365L2560,53.365" style="fill:none;stroke:rgb(116,116,116);stroke-width:0.56px;"/>
                </g>
                <g transform="matrix(1,0,0,1,-2.27374e-13,1272.53)">
                    <path d="M0,53.365L2560,53.365" style="fill:none;stroke:rgb(116,116,116);stroke-width:0.56px;"/>
                </g>
                <g transform="matrix(1,0,0,1,-2.27374e-13,1280.53)">
                    <path d="M0,53.365L2560,53.365" style="fill:none;stroke:rgb(116,116,116);stroke-width:0.56px;"/>
                </g>
                <g transform="matrix(1,0,0,1,-2.27374e-13,1289.53)">
                    <path d="M0,53.365L2560,53.365" style="fill:none;stroke:rgb(116,116,116);stroke-width:0.56px;"/>
                </g>
                <g transform="matrix(1,0,0,1,-2.27374e-13,1297.53)">
                    <path d="M0,53.365L2560,53.365" style="fill:none;stroke:rgb(116,116,116);stroke-width:0.56px;"/>
                </g>
                <g transform="matrix(1,0,0,1,-2.27374e-13,1306.53)">
                    <path d="M0,53.365L2560,53.365" style="fill:none;stroke:rgb(116,116,116);stroke-width:0.56px;"/>
                </g>
                <g transform="matrix(1,0,0,1,-2.27374e-13,1314.53)">
                    <path d="M0,53.365L2560,53.365" style="fill:none;stroke:rgb(116,116,116);stroke-width:0.56px;"/>
                </g>
                <g transform="matrix(1,0,0,1,-2.27374e-13,1323.53)">
                    <path d="M0,53.365L2560,53.365" style="fill:none;stroke:rgb(116,116,116);stroke-width:0.56px;"/>
                </g>
                <g transform="matrix(1,0,0,1,-2.27374e-13,1331.53)">
                    <path d="M0,53.365L2560,53.365" style="fill:none;stroke:rgb(116,116,116);stroke-width:0.56px;"/>
                </g>
                <g transform="matrix(1,0,0,1,-2.27374e-13,1340.53)">
                    <path d="M0,53.365L2560,53.365" style="fill:none;stroke:rgb(116,116,116);stroke-width:0.56px;"/>
                </g>
                <g transform="matrix(1,0,0,1,-2.27374e-13,1348.53)">
                    <path d="M0,53.365L2560,53.365" style="fill:none;stroke:rgb(116,116,116);stroke-width:0.56px;"/>
                </g>
                <g transform="matrix(1,0,0,1,-2.27374e-13,1357.53)">
                    <path d="M0,53.365L2560,53.365" style="fill:none;stroke:rgb(116,116,116);stroke-width:0.56px;"/>
                </g>
                <g transform="matrix(1,0,0,1,-2.27374e-13,1365.53)">
                    <path d="M0,53.365L2560,53.365" style="fill:none;stroke:rgb(116,116,116);stroke-width:0.56px;"/>
                </g>
                <g transform="matrix(1,0,0,1,-2.27374e-13,1374.53)">
                    <path d="M0,53.365L2560,53.365" style="fill:none;stroke:rgb(116,116,116);stroke-width:0.56px;"/>
                </g>
                <g transform="matrix(1,0,0,1,-2.27374e-13,1382.53)">
                    <path d="M0,53.365L2560,53.365" style="fill:none;stroke:rgb(116,116,116);stroke-width:0.56px;"/>
                </g>
                <g transform="matrix(1,0,0,1,-2.27374e-13,1390.53)">
                    <path d="M0,53.365L2560,53.365" style="fill:none;stroke:rgb(116,116,116);stroke-width:0.56px;"/>
                </g>
                <g transform="matrix(1,0,0,1,-2.27374e-13,1398.53)">
                    <path d="M0,53.365L2560,53.365" style="fill:none;stroke:rgb(116,116,116);stroke-width:0.56px;"/>
                </g>
                <g transform="matrix(1,0,0,1,-2.27374e-13,1407.53)">
                    <path d="M0,53.365L2560,53.365" style="fill:none;stroke:rgb(116,116,116);stroke-width:0.56px;"/>
                </g>
                <g transform="matrix(1,0,0,1,-2.27374e-13,1415.53)">
                    <path d="M0,53.365L2560,53.365" style="fill:none;stroke:rgb(116,116,116);stroke-width:0.56px;"/>
                </g>
                <g transform="matrix(1,0,0,1,-2.27374e-13,1424.53)">
                    <path d="M0,53.365L2560,53.365" style="fill:none;stroke:rgb(116,116,116);stroke-width:0.56px;"/>
                </g>
                <g transform="matrix(1,0,0,1,-2.27374e-13,1432.53)">
                    <path d="M0,53.365L2560,53.365" style="fill:none;stroke:rgb(116,116,116);stroke-width:0.56px;"/>
                </g>
                <g transform="matrix(1,0,0,1,-2.27374e-13,1441.53)">
                    <path d="M0,53.365L2560,53.365" style="fill:none;stroke:rgb(116,116,116);stroke-width:0.56px;"/>
                </g>
                <g transform="matrix(1,0,0,1,-2.27374e-13,1449.53)">
                    <path d="M0,53.365L2560,53.365" style="fill:none;stroke:rgb(116,116,116);stroke-width:0.56px;"/>
                </g>
                <g transform="matrix(1,0,0,1,-2.27374e-13,1458.53)">
                    <path d="M0,53.365L2560,53.365" style="fill:none;stroke:rgb(116,116,116);stroke-width:0.56px;"/>
                </g>
                <g transform="matrix(1,0,0,1,-2.27374e-13,1466.53)">
                    <path d="M0,53.365L2560,53.365" style="fill:none;stroke:rgb(116,116,116);stroke-width:0.56px;"/>
                </g>
                <g transform="matrix(1,0,0,1,-2.27374e-13,1475.53)">
                    <path d="M0,53.365L2560,53.365" style="fill:none;stroke:rgb(116,116,116);stroke-width:0.56px;"/>
                </g>
                <g transform="matrix(1,0,0,1,-2.27374e-13,1483.53)">
                    <path d="M0,53.365L2560,53.365" style="fill:none;stroke:rgb(116,116,116);stroke-width:0.56px;"/>
                </g>
                <g transform="matrix(1,0,0,1,-2.27374e-13,1492.53)">
                    <path d="M0,53.365L2560,53.365" style="fill:none;stroke:rgb(116,116,116);stroke-width:0.56px;"/>
                </g>
                <g transform="matrix(1,0,0,1,-2.27374e-13,1500.53)">
                    <path d="M0,53.365L2560,53.365" style="fill:none;stroke:rgb(116,116,116);stroke-width:0.56px;"/>
                </g>
                <g transform="matrix(1,0,0,1,-2.27374e-13,1509.53)">
                    <path d="M0,53.365L2560,53.365" style="fill:none;stroke:rgb(116,116,116);stroke-width:0.56px;"/>
                </g>
                <g transform="matrix(1,0,0,1,-2.27374e-13,1517.53)">
                    <path d="M0,53.365L2560,53.365" style="fill:none;stroke:rgb(116,116,116);stroke-width:0.56px;"/>
                </g>
                <g transform="matrix(1,0,0,1,-2.27374e-13,1526.53)">
                    <path d="M0,53.365L2560,53.365" style="fill:none;stroke:rgb(116,116,116);stroke-width:0.56px;"/>
                </g>
                <g transform="matrix(1,0,0,1,-2.27374e-13,1534.53)">
                    <path d="M0,53.365L2560,53.365" style="fill:none;stroke:rgb(116,116,116);stroke-width:0.56px;"/>
                </g>
                <g transform="matrix(1,0,0,1,-2.27374e-13,1543.53)">
                    <path d="M0,53.365L2560,53.365" style="fill:none;stroke:rgb(116,116,116);stroke-width:0.56px;"/>
                </g>
                <g transform="matrix(1,0,0,1,-2.27374e-13,1551.53)">
                    <path d="M0,53.365L2560,53.365" style="fill:none;stroke:rgb(116,116,116);stroke-width:0.56px;"/>
                </g>
                <g transform="matrix(1,0,0,1,-2.27374e-13,1560.53)">
                    <path d="M0,53.365L2560,53.365" style="fill:none;stroke:rgb(116,116,116);stroke-width:0.56px;"/>
                </g>
                <g transform="matrix(1,0,0,1,-2.27374e-13,1568.53)">
                    <path d="M0,53.365L2560,53.365" style="fill:none;stroke:rgb(116,116,116);stroke-width:0.56px;"/>
                </g>
                <g transform="matrix(1,0,0,1,-2.27374e-13,1576.12)">
                    <path d="M0,53.365L2560,53.365" style="fill:none;stroke:rgb(116,116,116);stroke-width:0.56px;"/>
                </g>
                <g transform="matrix(1,0,0,1,-2.27374e-13,1584.12)">
                    <path d="M0,53.365L2560,53.365" style="fill:none;stroke:rgb(116,116,116);stroke-width:0.56px;"/>
                </g>
                <g transform="matrix(1,0,0,1,-2.27374e-13,1593.12)">
                    <path d="M0,53.365L2560,53.365" style="fill:none;stroke:rgb(116,116,116);stroke-width:0.56px;"/>
                </g>
                <g transform="matrix(1,0,0,1,-2.27374e-13,1601.12)">
                    <path d="M0,53.365L2560,53.365" style="fill:none;stroke:rgb(116,116,116);stroke-width:0.56px;"/>
                </g>
                <g transform="matrix(1,0,0,1,-2.27374e-13,1610.12)">
                    <path d="M0,53.365L2560,53.365" style="fill:none;stroke:rgb(116,116,116);stroke-width:0.56px;"/>
                </g>
                <g transform="matrix(1,0,0,1,-2.27374e-13,1618.12)">
                    <path d="M0,53.365L2560,53.365" style="fill:none;stroke:rgb(116,116,116);stroke-width:0.56px;"/>
                </g>
                <g transform="matrix(1,0,0,1,-2.27374e-13,1627.12)">
                    <path d="M0,53.365L2560,53.365" style="fill:none;stroke:rgb(116,116,116);stroke-width:0.56px;"/>
                </g>
                <g transform="matrix(1,0,0,1,-2.27374e-13,1635.12)">
                    <path d="M0,53.365L2560,53.365" style="fill:none;stroke:rgb(116,116,116);stroke-width:0.56px;"/>
                </g>
                <g transform="matrix(1,0,0,1,-2.27374e-13,1644.12)">
                    <path d="M0,53.365L2560,53.365" style="fill:none;stroke:rgb(116,116,116);stroke-width:0.56px;"/>
                </g>
                <g transform="matrix(1,0,0,1,-2.27374e-13,1652.12)">
                    <path d="M0,53.365L2560,53.365" style="fill:none;stroke:rgb(116,116,116);stroke-width:0.56px;"/>
                </g>
                <g transform="matrix(1,0,0,1,-2.27374e-13,1661.12)">
                    <path d="M0,53.365L2560,53.365" style="fill:none;stroke:rgb(116,116,116);stroke-width:0.56px;"/>
                </g>
                <g transform="matrix(1,0,0,1,-2.27374e-13,1669.12)">
                    <path d="M0,53.365L2560,53.365" style="fill:none;stroke:rgb(116,116,116);stroke-width:0.56px;"/>
                </g>
                <g transform="matrix(1,0,0,1,-2.27374e-13,1678.12)">
                    <path d="M0,53.365L2560,53.365" style="fill:none;stroke:rgb(116,116,116);stroke-width:0.56px;"/>
                </g>
                <g transform="matrix(1,0,0,1,-2.27374e-13,1686.12)">
                    <path d="M0,53.365L2560,53.365" style="fill:none;stroke:rgb(116,116,116);stroke-width:0.56px;"/>
                </g>
                <g transform="matrix(1,0,0,1,-2.27374e-13,1695.12)">
                    <path d="M0,53.365L2560,53.365" style="fill:none;stroke:rgb(116,116,116);stroke-width:0.56px;"/>
                </g>
                <g transform="matrix(1,0,0,1,-2.27374e-13,1703.12)">
                    <path d="M0,53.365L2560,53.365" style="fill:none;stroke:rgb(116,116,116);stroke-width:0.56px;"/>
                </g>
                <g transform="matrix(1,0,0,1,-2.27374e-13,1712.12)">
                    <path d="M0,53.365L2560,53.365" style="fill:none;stroke:rgb(116,116,116);stroke-width:0.56px;"/>
                </g>
                <g transform="matrix(1,0,0,1,-2.27374e-13,1720.12)">
                    <path d="M0,53.365L2560,53.365" style="fill:none;stroke:rgb(116,116,116);stroke-width:0.56px;"/>
                </g>
                <g transform="matrix(1,0,0,1,-2.27374e-13,1729.12)">
                    <path d="M0,53.365L2560,53.365" style="fill:none;stroke:rgb(116,116,116);stroke-width:0.56px;"/>
                </g>
            </g>
        </g>
    </g>
</svg>
